<svg width="15" height="16" viewBox="0 0 15 16" fill="none" xmlns="http://www.w3.org/2000/svg">
<path d="M11.3896 5.83846C11.504 5.95837 11.5661 6.11882 11.5623 6.28452C11.5584 6.45023 11.4889 6.60761 11.369 6.72205L6.7857 11.0971C6.66945 11.208 6.51491 11.27 6.3542 11.27C6.19348 11.27 6.03893 11.2081 5.92266 11.0971L3.63094 8.90963C3.57109 8.85308 3.52302 8.78526 3.48946 8.71006C3.45591 8.63487 3.43754 8.55379 3.43542 8.47149C3.4333 8.38917 3.44746 8.30726 3.4771 8.23044C3.50673 8.15362 3.55125 8.08341 3.6081 8.02385C3.66495 7.96429 3.73301 7.91654 3.80836 7.88337C3.88372 7.85019 3.96489 7.83222 4.04721 7.83051C4.12953 7.8288 4.21138 7.84337 4.28805 7.87338C4.36472 7.9034 4.43471 7.94827 4.49398 8.00541L6.35414 9.78103L10.5059 5.81791C10.6258 5.70347 10.7863 5.64135 10.952 5.6452C11.1177 5.64905 11.2751 5.71857 11.3895 5.83846H11.3896ZM15 1.89502V14.395C14.9996 14.7264 14.8678 15.0442 14.6335 15.2785C14.3991 15.5128 14.0814 15.6446 13.75 15.645H1.25C0.918594 15.6446 0.600868 15.5128 0.366528 15.2785C0.132188 15.0442 0.000372204 14.7264 0 14.395V1.89502C0.000372204 1.56361 0.132188 1.24589 0.366528 1.01155C0.600868 0.777207 0.918594 0.645392 1.25 0.64502H13.75C14.0814 0.645392 14.3991 0.777207 14.6335 1.01155C14.8678 1.24589 14.9996 1.56361 15 1.89502ZM13.7508 14.395L13.75 1.89502H1.25V14.395H13.75H13.7508Z" fill="white"/>
</svg>
