<svg width="15" height="16" viewBox="0 0 15 16" fill="none" xmlns="http://www.w3.org/2000/svg">
<path d="M13.75 15.645H1.25C0.918594 15.6446 0.600868 15.5128 0.366528 15.2785C0.132188 15.0442 0.000372204 14.7264 0 14.395V1.89502C0.000372204 1.56361 0.132188 1.24589 0.366528 1.01155C0.600868 0.777207 0.918594 0.645392 1.25 0.64502H13.75C14.0814 0.645392 14.3991 0.777207 14.6335 1.01155C14.8678 1.24589 14.9996 1.56361 15 1.89502V14.395C14.9996 14.7264 14.8678 15.0442 14.6335 15.2785C14.3991 15.5128 14.0814 15.6446 13.75 15.645ZM1.25 1.89502V14.395H13.7508L13.75 1.89502H1.25Z" fill="#1B63D4"/>
</svg>
