<svg width="300" height="269" viewBox="0 0 300 269" fill="none" xmlns="http://www.w3.org/2000/svg">
<path d="M78.3625 265.131H191.917C238.144 243.684 270.203 196.86 270.203 142.548C270.203 67.9539 209.733 7.48438 135.14 7.48438C60.5462 7.48438 0.0766602 67.9547 0.0766602 142.548C0.0766602 196.86 32.1359 243.684 78.3625 265.131Z" fill="#ECF3FE"/>
<path d="M226.689 56.156L226.696 56.1851L199.667 69.7532C199.456 69.8596 199.348 70.0998 199.41 70.3275L200.428 74.0904L201.461 77.9073L209.166 106.382C206.793 105.907 203.649 106.961 201.062 109.341C197.468 112.647 196.318 117.245 198.495 119.61C200.67 121.975 205.347 121.212 208.941 117.906C211.941 115.146 213.396 111.437 212.687 108.88L204.06 76.9973C204.006 76.7962 204.1 76.5851 204.286 76.492L228.381 64.4206C228.628 64.2967 228.927 64.4305 228.999 64.6973L236.194 91.2909C233.822 90.8164 230.677 91.8701 228.09 94.2502C224.496 97.556 223.346 102.154 225.523 104.518C227.699 106.883 232.376 106.121 235.97 102.815C238.969 100.055 240.257 96.4009 239.339 93.8912L239.359 93.8854L229.022 55.6773C228.94 55.3757 228.604 55.2236 228.323 55.3599L226.688 56.156H226.689Z" fill="white"/>
<path d="M70.7928 134.955C68.736 135.953 67.2468 137.62 66.3742 139.552L50.7559 136.273C51.1465 134.33 50.962 132.259 50.0313 130.338C49.0955 128.41 47.5731 126.979 45.7964 126.086L52.8626 111.788C54.9335 112.313 57.1822 112.18 59.2548 111.175C63.9202 108.911 65.8673 103.295 63.6036 98.6297C61.3399 93.9643 55.7238 92.0172 51.0584 94.2809C46.393 96.5446 44.4459 102.161 46.7097 106.826C47.3321 108.109 48.2238 109.163 49.2642 110.003L41.8066 125.09C40.3565 125.054 38.8806 125.313 37.4861 125.989C32.8207 128.253 30.8737 133.869 33.1374 138.535C35.4011 143.2 41.0171 145.147 45.6825 142.883C47.0861 142.202 48.208 141.196 49.0789 140.025L65.5307 143.479C65.5407 144.832 65.8133 146.202 66.4432 147.5C68.7069 152.165 74.323 154.112 78.9883 151.848C83.6537 149.585 85.6008 143.969 83.3371 139.303C81.0734 134.638 75.4573 132.691 70.7919 134.955L70.7928 134.955Z" fill="#C4D7F2"/>
<path d="M196.989 245.461C196.989 245.461 241.269 113.976 277.224 91.504C279.785 89.9035 283.171 91.2389 283.936 94.1608C285.896 101.65 283.495 120.533 250.784 166.133C202.036 234.087 196.989 245.461 196.989 245.461V245.461Z" fill="#C4D7F2"/>
<path d="M195.965 251.001C195.965 251.001 261.319 150.664 295.605 140.837C297.619 140.26 299.676 141.638 299.881 143.724C300.476 149.778 295.791 164.785 257.247 196.99C202.552 242.689 195.966 251.001 195.966 251.001H195.965Z" fill="#C4D7F2"/>
<path d="M198.583 249.932C198.583 249.932 191.878 147.205 210.414 122.78C211.503 121.345 213.629 121.234 214.844 122.565C218.372 126.426 222.878 139.168 212.939 181.189C198.834 240.819 198.583 249.932 198.583 249.932Z" fill="#C4D7F2"/>
<path d="M140.231 268.28C207.267 268.28 261.61 264.703 261.61 260.29C261.61 255.877 207.267 252.3 140.231 252.3C73.1959 252.3 18.8528 255.877 18.8528 260.29C18.8528 264.703 73.1959 268.28 140.231 268.28Z" fill="#D7E4F9"/>
<path d="M201.923 237.679L202.176 57.2071C202.183 51.6891 197.717 47.2091 192.199 47.2016L94.1569 47.0645C88.6389 47.057 84.1588 51.5237 84.1513 57.0418L83.8987 237.514C83.8912 243.032 88.358 247.512 93.876 247.519L191.918 247.656C197.436 247.664 201.916 243.197 201.923 237.679Z" fill="#1B63D4"/>
<path d="M186.583 254.566L88.6265 258.663C83.1135 258.894 78.4564 254.611 78.2262 249.098L70.683 68.7833C70.452 63.2703 74.7351 58.6133 80.2481 58.3831L178.204 54.2853C183.717 54.0543 188.374 58.3374 188.605 63.8504L196.148 244.165C196.379 249.678 192.096 254.335 186.583 254.566Z" fill="white"/>
<path d="M132.178 190.529C156.02 190.529 175.347 171.201 175.347 147.36C175.347 123.518 156.02 104.19 132.178 104.19C108.336 104.19 89.0088 123.518 89.0088 147.36C89.0088 171.201 108.336 190.529 132.178 190.529Z" fill="#ECF3FE"/>
<path d="M154.281 169.463C166.488 157.256 166.488 137.465 154.281 125.257C142.074 113.05 122.282 113.05 110.075 125.257C97.8682 137.465 97.8682 157.256 110.075 169.463C122.282 181.67 142.074 181.67 154.281 169.463Z" fill="#1B63D4"/>
<path d="M167.969 72.9896L92.0096 76.1674C90.6367 76.2247 89.4675 75.1486 89.4101 73.7765C89.3528 72.4037 90.429 71.2344 91.801 71.1771L167.761 67.9993C169.134 67.9419 170.303 69.0181 170.36 70.3901C170.418 71.763 169.341 72.9322 167.969 72.9896Z" fill="#36588E"/>
<g style="mix-blend-mode:multiply" opacity="0.2">
<path d="M143.441 127.318L145.734 95.5621C145.759 95.2139 145.484 94.9446 145.119 94.9596L130.019 95.5912C129.654 95.6061 129.338 95.9011 129.313 96.2485L127.021 128.004C126.996 128.353 126.679 128.647 126.315 128.662L118.001 129.01C117.492 129.032 117.136 129.569 117.361 129.979L132.495 157.66C132.718 158.07 133.354 158.044 133.638 157.612L152.874 128.493C153.158 128.063 152.879 127.551 152.37 127.572L144.056 127.921C143.691 127.935 143.416 127.666 143.441 127.318Z" fill="#003889"/>
</g>
<path d="M139.571 127.48L138.249 95.8752C138.235 95.5287 137.927 95.2603 137.562 95.2761L122.463 95.9076C122.098 95.9226 121.814 96.2159 121.828 96.5625L123.151 128.167C123.165 128.514 122.881 128.806 122.517 128.822L114.202 129.17C113.694 129.192 113.398 129.727 113.669 130.135L132.037 157.681C132.309 158.088 132.943 158.062 133.18 157.633L149.183 128.649C149.419 128.22 149.079 127.711 148.572 127.733L140.257 128.081C139.892 128.096 139.585 127.827 139.571 127.482V127.48Z" fill="white"/>
<path d="M180.83 206.657C180.904 208.433 180.251 210.071 179.138 211.281C178.022 212.495 176.444 213.282 174.671 213.356L97.054 216.602C93.5038 216.751 90.5055 213.993 90.3568 210.441C90.2828 208.665 90.9352 207.03 92.0487 205.816C93.1648 204.606 94.7421 203.819 96.5163 203.745L174.133 200.498C177.683 200.349 180.682 203.107 180.83 206.657Z" fill="#ECF3FE"/>
<path d="M153.318 201.369L153.856 214.227L97.053 216.603C93.5029 216.751 90.5045 213.993 90.3558 210.441C90.2818 208.666 90.9342 207.03 92.0477 205.817C93.1638 204.606 94.7411 203.819 96.5153 203.745L153.318 201.369Z" fill="#7BBC49"/>
<path d="M143.494 227.96L93.7804 230.039C92.3444 230.099 91.132 228.984 91.0721 227.549C91.0123 226.113 92.1275 224.9 93.5627 224.84L143.276 222.761C144.712 222.701 145.925 223.816 145.985 225.252C146.044 226.688 144.929 227.9 143.494 227.96Z" fill="#C4D7F2"/>
<path d="M164.742 237.902L94.2333 240.852C92.7973 240.911 91.5848 239.796 91.525 238.361C91.4652 236.925 92.5804 235.713 94.0156 235.653L164.525 232.703C165.961 232.644 167.173 233.759 167.233 235.194C167.293 236.63 166.178 237.843 164.742 237.902Z" fill="#C4D7F2"/>
<g style="mix-blend-mode:multiply" opacity="0.2">
<path d="M95.8057 213.05L87.0143 212.93C86.3295 212.92 85.7229 212.704 85.314 212.324L64.004 192.507C63.4123 191.957 62.2663 191.985 61.4445 192.57L21.9434 220.712L62.2855 260.31L97.1328 236.09L104.911 230.548L109.308 227.415C110.13 226.829 110.316 225.908 109.725 225.358L96.9143 213.446C96.6475 213.198 96.2528 213.057 95.8065 213.051L95.8057 213.05Z" fill="#003889"/>
</g>
<path d="M91.2441 211.741L82.4619 212.16C81.778 212.193 81.1588 212.015 80.7275 211.66L58.2425 193.188C57.6176 192.675 56.4757 192.773 55.6912 193.408L17.991 223.92L62.2854 260.309L93.9824 234.656L101.407 228.648L105.603 225.251C106.388 224.616 106.518 223.686 105.893 223.173L92.3752 212.068C92.0943 211.837 91.6912 211.721 91.2458 211.742L91.2441 211.741Z" fill="#1A71D8"/>
<path d="M94.0489 231.373L60.1613 244.437C58.5259 245.067 56.6893 244.252 56.0586 242.617L38.1924 196.27C37.5616 194.635 38.3768 192.798 40.0123 192.168L73.8998 179.104C75.5353 178.473 77.3719 179.288 78.0026 180.924L95.8688 227.27C96.4996 228.906 95.6843 230.742 94.0489 231.373Z" fill="white"/>
<path d="M75.1531 190.526L46.7495 201.475C46.0831 201.732 45.3351 201.401 45.0783 200.734C44.8216 200.068 45.1531 199.32 45.8196 199.063L74.2232 188.113C74.8897 187.856 75.6376 188.188 75.8944 188.855C76.1512 189.521 75.8196 190.269 75.1531 190.526Z" fill="#DFE8F7"/>
<path d="M77.774 197.326L49.3704 208.275C48.7039 208.532 47.956 208.2 47.6992 207.534C47.4424 206.867 47.774 206.119 48.4405 205.863L76.8441 194.913C77.5106 194.656 78.2585 194.988 78.5153 195.654C78.7721 196.321 78.4405 197.069 77.774 197.326Z" fill="#DFE8F7"/>
<path d="M80.3951 204.124L51.9915 215.074C51.325 215.331 50.5771 214.999 50.3203 214.333C50.0635 213.666 50.3951 212.918 51.0616 212.661L79.4652 201.712C80.1316 201.455 80.8796 201.787 81.1364 202.453C81.3931 203.12 81.0616 203.868 80.3951 204.124Z" fill="#DFE8F7"/>
<path d="M83.0162 210.924L54.6126 221.874C53.9461 222.131 53.1982 221.799 52.9414 221.132C52.6846 220.466 53.0162 219.718 53.6827 219.461L82.0863 208.512C82.7527 208.255 83.5007 208.586 83.7574 209.253C84.0142 209.919 83.6827 210.667 83.0162 210.924Z" fill="#DFE8F7"/>
<path d="M85.6373 217.723L57.2337 228.673C56.5672 228.929 55.8193 228.598 55.5625 227.931C55.3057 227.265 55.6373 226.517 56.3038 226.26L84.7074 215.311C85.3738 215.054 86.1218 215.385 86.3786 216.052C86.6353 216.718 86.3038 217.466 85.6373 217.723Z" fill="#DFE8F7"/>
<path d="M88.2584 224.523L59.8548 235.472C59.1883 235.729 58.4404 235.398 58.1836 234.731C57.9268 234.065 58.2584 233.317 58.9249 233.06L87.3284 222.11C87.9949 221.854 88.7428 222.185 88.9996 222.852C89.2564 223.518 88.9249 224.266 88.2584 224.523Z" fill="#DFE8F7"/>
<g style="mix-blend-mode:multiply" opacity="0.2">
<path d="M108.351 210.721L94.4295 163.041C93.9383 161.359 92.1766 160.394 90.4937 160.885L55.6314 171.064C53.9494 171.555 52.9838 173.317 53.4749 175L67.3962 222.679C67.8874 224.361 69.6491 225.327 71.332 224.836L106.194 214.656C107.876 214.165 108.842 212.403 108.351 210.721Z" fill="#003889"/>
</g>
<path d="M108.683 211.388L74.2159 222.834C72.5521 223.387 70.7563 222.486 70.2037 220.822L54.5497 173.683C53.997 172.019 54.8978 170.224 56.5616 169.671L91.0292 158.225C92.6929 157.673 94.4887 158.573 95.0413 160.237L110.695 207.376C111.248 209.04 110.347 210.836 108.683 211.388Z" fill="white"/>
<path d="M90.8803 180.722L70.9049 176.611C69.3451 176.291 68.023 177.778 68.5249 179.289L74.952 198.644C75.454 200.154 77.4036 200.556 78.4615 199.366L92.0097 184.122C93.0676 182.932 92.4401 181.043 90.8803 180.722Z" fill="#DFE8F7"/>
<path d="M102.262 200.256L73.7064 209.739C73.1546 209.922 72.5521 209.621 72.3693 209.068C72.1856 208.516 72.4873 207.914 73.0399 207.731L101.596 198.248C102.147 198.065 102.75 198.366 102.933 198.919C103.116 199.471 102.815 200.073 102.262 200.256Z" fill="#DFE8F7"/>
<path d="M104.225 206.168L75.6693 215.651C75.1175 215.835 74.515 215.533 74.3322 214.98C74.1485 214.428 74.4502 213.826 75.0028 213.643L103.558 204.16C104.11 203.977 104.713 204.278 104.896 204.831C105.079 205.383 104.778 205.985 104.225 206.168Z" fill="#DFE8F7"/>
<g style="mix-blend-mode:multiply" opacity="0.2">
<path d="M67.4495 256.13L62.2838 260.31L21.5645 226.381L46.747 197.511L59.755 208.197C60.1922 208.556 60.6991 208.7 61.1786 208.602L62.0877 208.414L67.3257 207.334C67.6381 207.271 67.9689 207.364 68.2531 207.598L81.9326 218.836C82.5642 219.355 82.8043 220.411 82.4711 221.195L67.4487 256.13H67.4495Z" fill="#003889"/>
</g>
<path d="M62.2839 260.309L17.4592 223.484L33.641 185.59C33.8969 184.99 34.6581 184.803 35.1626 185.218L58.0457 204.031C58.4828 204.39 58.9897 204.534 59.4692 204.436L65.6163 203.168C65.9296 203.104 66.2595 203.198 66.5437 203.432L80.2232 214.67C80.8548 215.189 81.0958 216.244 80.7617 217.029L78.9717 221.221L75.8047 228.638L62.2831 260.308L62.2839 260.309Z" fill="#1B63D4"/>
<g style="mix-blend-mode:multiply" opacity="0.2">
<path d="M117.614 103.095C108.1 101.822 98.5856 100.55 89.0712 99.2769C87.9692 99.1298 86.9795 98.101 86.8972 96.9791C86.3006 87.1879 87.5728 77.6802 90.7224 68.391C91.0972 67.3298 92.323 66.5976 93.4241 66.7456C102.938 68.0187 112.452 69.291 121.966 70.5641C123.068 70.7112 123.629 71.6827 123.255 72.7439C120.105 82.0331 118.833 91.5408 119.429 101.332C119.512 102.454 118.716 103.243 117.614 103.096V103.095Z" fill="#003889"/>
</g>
<path d="M114.785 99.9222C105.211 99.2292 95.637 98.5361 86.0636 97.8438C84.955 97.7632 83.9046 96.7976 83.7533 95.6823C82.5633 85.946 83.2555 76.3785 85.8351 66.9147C86.145 65.8328 87.3234 65.0275 88.432 65.1081C98.0054 65.8012 107.58 66.4934 117.153 67.1865C118.262 67.2671 118.881 68.202 118.571 69.284C115.991 78.7477 115.299 88.3145 116.489 98.0516C116.639 99.1668 115.892 100.003 114.784 99.923L114.785 99.9222Z" fill="#FBAB18"/>
<path d="M108.053 82.1163C103.807 79.1886 99.5978 76.2102 95.4252 73.1778C94.8435 72.7531 93.9219 73.1645 93.7798 73.919C92.844 79.2293 92.4617 84.5046 92.6238 89.8938C92.6562 90.6617 93.5088 91.2002 94.1454 90.8645C98.7111 88.4653 103.305 86.1235 107.93 83.8373C108.61 83.5024 108.68 82.5459 108.054 82.1163H108.053Z" fill="white"/>
<g style="mix-blend-mode:multiply" opacity="0.2">
<path d="M142.317 260.291H117.188C114.363 260.291 112.474 258.053 112.992 255.318L115.497 242.07C116.014 239.335 118.749 237.097 121.573 237.097H146.703C149.527 237.097 151.416 239.335 150.899 242.07L148.394 255.318C147.877 258.053 145.142 260.291 142.317 260.291Z" fill="#003889"/>
</g>
<path d="M140.232 236.334H115.102C112.266 236.334 109.966 238.634 109.966 241.471V255.153C109.966 257.99 112.266 260.29 115.102 260.29H140.232C143.069 260.29 145.368 257.99 145.368 255.153V241.471C145.368 238.634 143.069 236.334 140.232 236.334Z" fill="#36588E"/>
<path d="M133.446 236.334H108.316C105.479 236.334 103.18 238.634 103.18 241.471V255.153C103.18 257.99 105.479 260.29 108.316 260.29H133.446C136.282 260.29 138.582 257.99 138.582 255.153V241.471C138.582 238.634 136.282 236.334 133.446 236.334Z" fill="#FBAB18"/>
<path d="M121.643 241.389H115.704V244.796C115.106 245.816 114.762 247.003 114.762 248.271C114.762 249.539 115.107 250.727 115.704 251.747V255.154H121.643C125.445 255.154 128.526 252.072 128.526 248.271C128.526 244.47 125.445 241.389 121.643 241.389Z" fill="#36588E"/>
<path d="M115.703 255.154C119.504 255.154 122.586 252.072 122.586 248.271C122.586 244.47 119.504 241.389 115.703 241.389C111.902 241.389 108.821 244.47 108.821 248.271C108.821 252.072 111.902 255.154 115.703 255.154Z" fill="white"/>
<path d="M118.602 244.853C117.832 244.293 116.884 243.963 115.86 243.963C113.282 243.963 111.192 246.053 111.192 248.63C111.192 249.815 111.633 250.897 112.361 251.72C111.193 250.872 110.435 249.495 110.435 247.942C110.435 245.364 112.525 243.274 115.103 243.274C116.496 243.274 117.747 243.885 118.602 244.853Z" fill="#36588E"/>
<path d="M134.361 238.821H131.319C130.777 238.821 130.338 239.261 130.338 239.803V240.652C130.338 241.194 130.777 241.633 131.319 241.633H134.361C134.904 241.633 135.343 241.194 135.343 240.652V239.803C135.343 239.261 134.904 238.821 134.361 238.821Z" fill="white"/>
<g style="mix-blend-mode:multiply" opacity="0.2">
<path d="M150.471 70.4036C141.082 68.4099 131.693 66.4163 122.303 64.4227C121.216 64.1917 120.307 63.0914 120.31 61.9662C120.46 52.1584 122.453 42.7745 126.301 33.752C126.756 32.7224 128.033 32.0858 129.121 32.3169C138.51 34.3105 147.899 36.3041 157.289 38.2977C158.376 38.5288 158.861 39.5393 158.407 40.5689C154.559 49.5914 152.566 58.9753 152.416 68.7831C152.413 69.9083 151.559 70.6346 150.471 70.4036Z" fill="#003889"/>
</g>
<g style="mix-blend-mode:multiply" opacity="0.2">
<path d="M105.325 40.4387C95.9353 38.4451 86.5464 36.4515 77.1566 34.4578C76.0696 34.2268 75.1605 33.1265 75.1638 32.0013C75.3142 22.1936 77.307 12.8096 81.1547 3.78719C81.6093 2.75755 82.8865 2.12099 83.9744 2.35201C93.3641 4.34564 102.753 6.33927 112.143 8.3329C113.23 8.56392 113.715 9.57445 113.26 10.6041C109.413 19.6265 107.42 29.0105 107.27 38.8182C107.266 39.9434 106.413 40.6697 105.325 40.4387Z" fill="#003889"/>
</g>
<path d="M148.22 66.1329C138.716 64.7883 129.212 63.4438 119.708 62.1C118.607 61.9446 117.625 60.9083 117.55 59.7856C117.028 49.9903 118.37 40.4925 121.59 31.2266C121.973 30.1687 123.204 29.4457 124.304 29.6011C133.808 30.9457 143.312 32.2903 152.816 33.6341C153.917 33.7895 154.471 34.7651 154.088 35.823C150.869 45.0881 149.525 54.5867 150.048 64.382C150.122 65.5047 149.32 66.2883 148.22 66.1321V66.1329Z" fill="white"/>
<path d="M138.644 53.3241C137.828 53.3631 137.098 53.7587 136.584 54.313C134.879 53.2036 133.176 52.09 131.477 50.9714C131.846 50.3482 132.042 49.5994 131.972 48.8008C131.902 47.9989 131.576 47.2892 131.091 46.7307C132.607 45.3936 134.139 44.0797 135.691 42.7842C136.305 43.2512 137.109 43.5354 137.954 43.4606C139.745 43.3011 141.466 41.639 141.592 39.785C141.717 37.9351 140.015 36.5473 138.261 36.598C136.311 36.6545 134.58 38.3881 134.467 40.2379C134.436 40.7457 134.567 41.2435 134.775 41.6748C133.11 43.0252 131.475 44.4138 129.864 45.8291C129.372 45.6138 128.817 45.5099 128.251 45.5374C126.347 45.6288 124.865 47.5468 125.055 49.2894C125.245 51.0213 127.023 52.7415 128.935 52.5712C129.494 52.5213 130.01 52.3351 130.449 52.0476C132.254 53.2293 134.064 54.4044 135.879 55.572C135.747 56.0482 135.702 56.5825 135.817 57.1127C136.198 58.8662 137.989 60.6205 139.939 60.4094C141.734 60.2149 142.917 58.3543 142.604 56.6133C142.277 54.7941 140.472 53.2376 138.643 53.3249L138.644 53.3241Z" fill="#1B63D4"/>
<path d="M103.442 37.3179C93.9451 35.9259 84.4473 34.5339 74.9503 33.142C73.8509 32.9808 72.8736 31.9403 72.8046 30.8168C72.3301 21.019 73.7212 11.5278 76.9872 2.27854C77.3753 1.2223 78.6093 0.505961 79.7096 0.66718C89.2066 2.05915 98.7043 3.45111 108.201 4.84308C109.301 5.0043 109.85 5.98241 109.462 7.03865C106.197 16.288 104.806 25.7791 105.279 35.5769C105.348 36.7004 104.541 37.4791 103.442 37.3179Z" fill="#FBAB18"/>
<path d="M92.9919 15.4617C93.2711 15.0885 93.4124 14.9016 93.6975 14.5301C94.659 14.9207 95.1401 15.116 96.1033 15.5074C94.6581 17.5052 93.2786 19.5345 91.9556 21.6162C91.7155 22.006 91.5742 22.2703 91.526 22.4082C91.4761 22.552 91.4736 22.6791 91.5177 22.7888C91.5617 22.8985 91.634 22.9741 91.7338 23.014C92.072 23.1487 92.5822 23.1021 93.2687 22.8736C93.9542 22.6459 94.6282 22.2304 95.3013 21.6304C95.9745 21.0295 96.4856 20.2808 96.8479 19.3866C97.1495 18.6412 97.3066 17.8841 97.3174 17.1171C97.3282 16.3492 97.1894 15.6204 96.8952 14.929C96.6011 14.2376 96.1432 13.6027 95.5157 13.0226C94.8875 12.4426 94.0964 11.9572 93.1357 11.5642C92.1567 11.1644 91.1919 10.9268 90.2404 10.852C89.2889 10.7772 88.3756 10.8553 87.5072 11.0872C86.6387 11.319 85.8135 11.7113 85.0465 12.2539C84.375 12.7293 83.7576 13.3077 83.2124 13.9924C82.6673 14.6772 82.2252 15.4193 81.8894 16.2196C81.4415 17.2858 81.2695 18.3503 81.3659 19.4099C81.4631 20.4694 81.8279 21.4667 82.4495 22.3974C83.0711 23.3282 83.9446 24.1509 85.029 24.8705C86.2365 25.6716 87.6144 26.1935 88.9565 26.5949C90.1249 26.9439 91.2376 27.047 92.1617 26.9788C93.0858 26.9099 93.9293 26.6348 94.7005 26.1536C95.5083 26.4736 95.9121 26.6331 96.7216 26.9531C96.1972 27.4957 95.6022 27.9279 94.9299 28.2478C94.2576 28.5678 93.5196 28.7689 92.7135 28.8511C91.9066 28.9334 91.0365 28.8944 90.1008 28.7356C89.1651 28.5769 88.1421 28.3043 87.1266 27.8805C85.7105 27.2896 84.2853 26.56 83.0612 25.6077C82.0872 24.8498 81.0401 23.7162 80.4451 22.611C79.8567 21.5165 79.5268 20.3365 79.4745 19.1265C79.4229 17.9348 79.7578 16.468 80.2216 15.3952C80.7293 14.2201 81.6351 12.8788 82.5567 11.9805C83.4476 11.1113 84.7498 10.2578 85.9058 9.79159C87.0759 9.31957 88.6257 9.04034 89.8839 9.04699C91.2144 9.05447 92.834 9.38106 94.0681 9.90461C95.1825 10.3766 96.1507 10.9633 96.9235 11.6888C97.6955 12.4143 98.2615 13.2345 98.6313 14.1487C99.0011 15.0636 99.1664 16.0342 99.1374 17.0614C99.1083 18.0885 98.8781 19.1365 98.4551 20.2068C98.1252 21.0403 97.6698 21.7999 97.0831 22.483C96.4964 23.1661 95.8216 23.7187 95.0495 24.1376C94.2767 24.5572 93.4556 24.8024 92.5772 24.8739C91.6989 24.9453 90.8188 24.8057 89.9371 24.4559C89.4268 24.2531 89.057 24.0096 88.8302 23.7246C88.6025 23.4395 88.5036 23.0905 88.536 22.6766C87.8097 22.9982 87.0725 23.0888 86.3171 22.9475C85.5617 22.8063 84.8952 22.4672 84.3235 21.9304C83.7518 21.3935 83.3745 20.7204 83.2024 19.9143C83.0304 19.1082 83.1293 18.2348 83.5108 17.2966C83.9072 16.321 84.5279 15.4484 85.3631 14.678C86.1983 13.9077 87.1465 13.38 88.1886 13.0916C89.2299 12.8032 90.2279 12.8531 91.1778 13.2395C92.2664 13.6824 92.8615 14.4212 92.9928 15.4608L92.9919 15.4617ZM85.9041 18.2398C85.6074 18.9861 85.5468 19.6218 85.7105 20.1462C85.8742 20.6705 86.2124 21.0337 86.7177 21.2356C87.3036 21.47 87.9019 21.4417 88.5152 21.1509C89.1285 20.86 89.6819 20.4038 90.1847 19.7822C90.6875 19.1606 91.0764 18.5182 91.3531 17.8542C91.4894 17.5259 91.5775 17.2143 91.6141 16.9201C91.6507 16.6259 91.639 16.35 91.5767 16.0916C91.5152 15.834 91.4022 15.6113 91.2385 15.4243C91.0739 15.2373 90.8587 15.0894 90.5911 14.9805C90.0551 14.7628 89.475 14.7786 88.8534 15.0262C88.2318 15.2739 87.6534 15.6894 87.1282 16.2728C86.603 16.8561 86.1933 17.5118 85.9041 18.2398Z" fill="white"/>
<g style="mix-blend-mode:multiply" opacity="0.2">
<path d="M177.505 60.8444C168.386 57.8485 159.266 54.8519 150.147 51.856C149.091 51.5086 148.307 50.317 148.431 49.1984C149.64 39.4638 152.635 30.3507 157.435 21.7962C157.998 20.8222 159.337 20.3269 160.392 20.6743C169.511 23.6701 178.631 26.6668 187.75 29.6627C188.806 30.01 189.179 31.0671 188.615 32.0411C183.815 40.5956 180.821 49.7086 179.612 59.4433C179.487 60.5618 178.56 61.1917 177.504 60.8444H177.505Z" fill="#003889"/>
</g>
<path d="M176.142 56.175C166.845 53.7858 157.548 51.3957 148.252 49.0065C147.176 48.7298 146.314 47.5913 146.364 46.4678C146.93 36.675 149.318 27.3841 153.544 18.5329C154.042 17.524 155.345 16.9415 156.422 17.2182C165.719 19.6074 175.016 21.9974 184.312 24.3866C185.389 24.6633 185.831 25.6938 185.333 26.7027C181.106 35.5539 178.719 44.8448 178.153 54.6376C178.102 55.762 177.218 56.4509 176.142 56.175Z" fill="white"/>
<path d="M163.777 38.6677C163.805 38.6752 163.819 38.6785 163.847 38.686C165.695 39.0799 167.76 37.9929 168.202 36.0641C168.772 34.0056 169.42 31.9655 170.177 29.9669C170.961 28.176 169.832 26.2264 168.054 25.7012C168.026 25.6937 168.012 25.6904 167.983 25.6829C166.035 25.122 163.905 26.3785 163.134 28.1527C162.377 30.1513 161.729 32.1915 161.158 34.25C160.743 36.0965 161.821 38.243 163.777 38.6677Z" fill="#1B63D4"/>
<path d="M167.961 40.6044C169.316 39.7135 170.344 38.3124 170.778 36.7276C170.876 36.3694 170.669 36.0055 170.313 35.9132C169.956 35.821 169.574 36.0412 169.485 36.3944C169.199 37.5221 168.219 38.8309 167.246 39.4376C166.287 40.0359 164.698 40.3309 163.576 39.9902C163.547 39.9827 163.533 39.9794 163.505 39.9719C162.325 39.7118 161.038 38.6697 160.432 37.6816C159.829 36.6985 159.544 35.0523 159.878 33.9188C159.981 33.5689 159.769 33.1966 159.411 33.1044C159.054 33.0121 158.682 33.2273 158.584 33.5855C158.14 35.2093 158.472 36.9611 159.318 38.3764C159.997 39.514 161.364 40.68 162.647 41.1046C162.392 42.6237 162.17 44.1321 161.979 45.6603C160.829 45.3645 160.254 45.2157 159.104 44.9199C158.747 44.8276 158.423 45.0528 158.384 45.4235C158.346 45.7941 158.608 46.1697 158.965 46.2611L166.009 48.0753C166.366 48.1675 166.684 47.9415 166.722 47.5708C166.76 47.2002 166.505 46.8254 166.148 46.734C164.998 46.4381 164.423 46.2894 163.272 45.9935C163.464 44.4653 163.685 42.957 163.941 41.4379C165.208 41.6805 166.901 41.2991 167.961 40.6027V40.6044Z" fill="#1B63D4"/>
<g style="mix-blend-mode:multiply" opacity="0.2">
<path d="M266.352 110.551C255.952 109.084 245.554 107.618 235.154 106.152C234.263 106.026 233.267 106.612 232.952 107.467C229.391 117.669 227.946 127.919 228.547 138.704C228.613 139.613 229.409 140.451 230.3 140.577C240.699 142.044 251.098 143.51 261.497 144.976C262.388 145.102 263.038 144.468 262.971 143.559C262.37 132.774 263.816 122.523 267.377 112.322C267.692 111.467 267.243 110.677 266.352 110.552V110.551Z" fill="#003889"/>
</g>
<path d="M257.201 141.473L226.168 136.035C225.281 135.88 224.515 135.015 224.478 134.105C224.238 123.305 226.025 113.11 229.924 103.033C230.268 102.188 231.283 101.636 232.169 101.792C242.514 103.605 252.858 105.418 263.202 107.23C264.089 107.385 264.511 108.19 264.167 109.033C260.268 119.11 258.481 129.307 258.722 140.105C258.758 141.016 258.088 141.629 257.201 141.473Z" fill="white"/>
<path d="M257.391 123.857C256.66 128.505 256.295 133.078 256.28 137.78C256.288 138.387 255.823 138.796 255.225 138.692C246.121 137.096 237.018 135.501 227.915 133.906C227.322 133.802 226.82 133.218 226.812 132.608C226.798 131.647 226.799 131.167 226.816 130.207C229.913 127.839 233.054 125.549 236.251 123.316C237.385 122.533 238.956 122.814 239.828 123.956C240.228 124.479 240.43 124.74 240.836 125.264C241.405 125.996 242.444 126.086 243.057 125.455C245.205 123.281 247.397 121.169 249.646 119.099C250.79 118.065 252.541 118.144 253.483 119.272C254.767 120.815 256.071 122.344 257.391 123.856V123.857Z" fill="#1B63D4"/>
<path d="M245.168 115.403C244.652 117.312 242.759 118.636 240.786 118.31C238.843 117.988 237.55 116.066 238.077 114.16C238.615 112.218 240.656 110.972 242.631 111.295C244.57 111.611 245.688 113.482 245.168 115.403V115.403Z" fill="#1B63D4"/>
<path d="M30.3926 165.105C32.7938 162.703 32.7938 158.81 30.3926 156.409C27.9914 154.008 24.0982 154.008 21.6969 156.409C19.2957 158.81 19.2957 162.703 21.6969 165.105C24.0982 167.506 27.9914 167.506 30.3926 165.105Z" fill="white"/>
<path d="M219.046 39.4146C223.055 35.4059 223.055 28.9066 219.046 24.8979C215.037 20.8893 208.538 20.8893 204.529 24.8979C200.521 28.9066 200.521 35.4059 204.529 39.4146C208.538 43.4232 215.037 43.4232 219.046 39.4146Z" fill="#C4D7F2"/>
<path d="M210.604 244.745C212.446 241.367 219.522 233.436 232.754 230.976C234.918 230.574 239.726 229.68 241.468 230.87C244.93 233.232 229.477 242.45 231.482 243.678C233.615 244.984 251.812 235.27 254.902 236.847C256.354 237.589 242.352 243.614 242.738 251.791C242.826 253.638 243.617 255.174 244.372 256.273H206.576C206.576 256.273 206.065 253.072 210.603 244.745H210.604Z" fill="#7BBC49"/>
<g style="mix-blend-mode:multiply" opacity="0.22">
<path d="M222.01 143.644C222.309 138.341 220.34 135.896 218.123 134.801C218.082 134.78 218.039 134.759 217.995 134.739C217.985 134.734 217.974 134.729 217.964 134.724C217.586 134.547 217.137 134.378 216.603 134.219C215.383 133.855 214.007 133.845 212.633 134.082C212.586 134.09 212.561 134.094 212.561 134.094C207.213 135.049 201.916 139.711 205.8 141.815C205.387 142.588 205.056 143.439 204.835 144.35C204.66 145.066 204.564 145.77 204.541 146.451C204.451 148.981 205.347 151.18 206.915 152.327C206.922 152.333 206.93 152.337 206.937 152.343C206.739 153.377 206.566 154.418 206.423 155.458C204.223 155.473 202.583 155.856 201.371 156.294C200.026 156.779 185.378 167.024 185.378 167.024L171.986 155.711L171.113 156.535C170.812 156.224 170.638 156.044 170.638 156.044C170.638 156.044 170.58 148.906 169.343 150.121C168.106 151.335 168.485 153.96 167.405 151.945C166.326 149.93 163.547 146.158 162.693 149.583C161.84 153.009 163.611 155.756 167.194 158.509C167.471 158.722 167.786 159.007 168.134 159.351L167.516 159.935C167.516 159.935 180.977 176.542 183.546 177.318C184.521 177.612 186.685 176.585 188.996 175.197C192.728 172.957 196.843 169.772 196.941 169.696L196.943 169.695C197.008 172.268 199.208 174.841 199.208 174.841C198.964 190.6 195.254 200.5 195.066 200.993C189.655 202.428 184.013 204.502 183.919 206.926C183.737 211.599 185.625 251.916 185.625 251.916L186.131 251.914L186.148 253.758L185.796 253.721C185.278 254.664 184.129 256.194 181.933 256.761C178.666 257.606 176.925 258.134 176.571 259.996C176.41 260.84 179.569 260.931 183.073 260.778C185.306 261.54 193.952 260.735 196.971 260.424C197.141 260.406 197.297 260.344 197.434 260.255H200.084L205.412 225.921V225.919L205.853 223.076H220.985L221.588 260.254H226.699L224.504 218.31H223.198C223.442 218.157 223.671 217.973 223.87 217.755C225.21 216.29 227.194 213.034 227.263 206.557C227.274 205.462 227.23 204.272 227.118 202.984L227.577 202.82C228.131 202.622 228.468 202.042 228.35 201.489L226.72 193.854L225.024 185.911C225.024 185.911 226.887 188.096 229.609 187.368C232.33 186.64 233.281 184.116 233.202 182.463C233.169 181.761 232.682 177.875 232.134 173.64C248.035 167.676 221.436 153.834 222.011 143.641L222.01 143.644Z" fill="#003889"/>
</g>
<path d="M194.923 260.255H200.034L202.975 225.921V225.919L203.218 223.076H218.35L221.537 260.255H226.648L221.537 218.311H200.034L196.405 248.094L196.403 248.101L194.923 260.255Z" fill="white"/>
<path d="M166.792 159.345C165.784 160.266 164.797 161.207 163.837 162.174C162.291 160.516 160.975 159.167 160.073 158.51C156.299 155.757 154.337 153.008 154.951 149.584C155.567 146.158 158.609 149.93 159.828 151.945C161.047 153.96 160.486 151.335 161.639 150.121C162.791 148.907 163.346 156.043 163.346 156.043C163.346 156.043 164.825 157.478 166.793 159.345H166.792Z" fill="#FDC8AA"/>
<path d="M190.63 250.015L190.611 254.792L185.735 254.883L185.333 249.793L190.63 250.015Z" fill="#FDC8AA"/>
<path d="M176.503 259.998C176.726 258.134 178.431 257.607 181.64 256.762C183.796 256.195 184.839 254.665 185.291 253.722L191.109 254.328L191.821 259.025C191.906 259.588 191.504 260.107 190.938 260.166C187.44 260.53 176.314 261.567 176.503 259.997L176.503 259.998Z" fill="#15315E"/>
<path d="M197.212 249.791L196.476 255.05L191.601 255.141L191.592 249.556L197.212 249.791Z" fill="#FDC8AA"/>
<path d="M182.497 260.254C182.721 258.391 184.425 257.864 187.634 257.019C189.791 256.452 190.833 254.922 191.286 253.979L197.104 254.585L197.815 259.282C197.901 259.845 197.498 260.364 196.932 260.423C193.434 260.787 182.309 261.824 182.497 260.254L182.497 260.254Z" fill="#1F3A6F"/>
<path d="M200.601 198.878C200.601 198.878 180.02 202.253 180.162 206.926C180.304 211.6 184.995 251.917 184.995 251.917L190.999 251.883C190.999 251.883 190.903 210.24 199.831 207.618C208.759 204.996 211.769 202.762 211.769 202.762L210.797 196.741L200.601 198.878H200.601Z" fill="#15315E"/>
<path d="M190.599 252.193H197.3L200.972 218.786H218.645C219.501 218.786 220.313 218.409 220.865 217.755C222.103 216.29 223.862 213.035 223.48 206.558C223.399 205.211 223.228 203.723 222.937 202.082C222.937 202.082 220.298 196.789 211.476 198.682C211.476 198.682 205.639 199.536 200.137 201.331C195.305 202.908 190.734 205.21 190.598 208.297C190.307 214.901 190.598 252.192 190.598 252.192L190.599 252.193Z" fill="#1F3A6F"/>
<path d="M202.671 171.719C205.38 174.864 210.001 176.544 217.45 175.574C219.023 175.368 220.433 175.135 221.69 174.873C245.955 169.831 213.998 154.619 213.854 143.642C213.702 132.096 203.74 134.094 203.74 134.094C203.74 134.094 193.774 161.397 202.671 171.719Z" fill="#1F3A6F"/>
<path d="M211.599 157.75H195.988L194.969 198.391C194.969 198.391 201.767 202.082 212.352 198.391L211.599 157.75Z" fill="white"/>
<path d="M200.138 201.332C201.92 201.604 205.223 202.017 207.859 201.84C207.859 201.84 209.473 208.64 210.279 208.736C212.423 208.994 220.466 207.053 223.479 206.559C223.399 205.212 223.228 203.724 222.937 202.083C222.937 202.083 220.298 196.79 211.476 198.683C211.476 198.683 205.639 199.537 200.137 201.332H200.138Z" fill="#15315E"/>
<path d="M211.599 155.711L208.188 155.359L208.288 149.361C208.288 149.361 210.302 147.67 210.132 146.075C209.961 144.479 208.194 145.163 208.194 145.163L203.875 150.051L201.851 152.342L201.756 155.445L199.484 155.469L198.338 159.277C198.053 160.841 199.478 162.189 201.01 162.614C203.15 163.209 207.382 161.382 208.689 159.992C208.722 159.957 211.598 155.711 211.598 155.711H211.599Z" fill="#FDC8AA"/>
<path d="M201.757 155.445C206.952 152.18 207.207 148.923 207.207 148.923L203.876 150.051L201.852 152.342L201.757 155.445Z" fill="#EFA37D"/>
<path d="M196.58 146.451C196.665 148.981 197.715 151.181 199.361 152.328C199.919 152.716 200.546 152.983 201.227 153.102C204.457 153.664 207.678 150.657 208.421 146.387C209.164 142.116 207.15 138.198 203.92 137.636C200.691 137.074 197.47 140.081 196.727 144.351C196.602 145.067 196.555 145.772 196.58 146.452V146.451Z" fill="#FDC8AA"/>
<path d="M209.618 139.062C209.618 139.062 202.6 144.467 197.517 141.815C192.432 139.161 201.677 132.434 207.792 134.219C213.908 136.004 209.618 139.062 209.618 139.062Z" fill="#1F3A6F"/>
<path d="M204.638 139.255C204.638 139.255 206.592 144.797 208.565 145.06C208.565 145.06 209.139 144.573 209.392 144.695C209.583 144.786 209.778 144.865 209.979 144.931C213.182 145.979 207.395 137.111 207.395 137.111C207.395 137.111 205.241 137.024 204.638 139.255Z" fill="#1F3A6F"/>
<path d="M206.905 184.214C208.995 197.524 210.057 203.28 210.556 205.715C210.742 206.623 211.692 207.153 212.562 206.834L223.533 202.823C224.074 202.625 224.37 202.045 224.213 201.492L222.052 193.856L219.805 185.914C219.805 185.914 221.819 188.099 224.491 187.371C227.161 186.643 227.937 184.118 227.743 182.466C227.55 180.816 223.629 161.567 223.629 161.567C223.629 161.567 221.944 155.871 210.314 155.579C210.314 155.579 203.591 163.141 206.904 184.214H206.905Z" fill="#FBAB18"/>
<path d="M215.557 171.856L215.472 165.812L221.553 176.008C221.553 176.008 216.505 172.622 215.557 171.856Z" fill="#E59D29"/>
<path d="M209.062 177.027L222.052 193.855L219.804 185.913L209.062 177.027Z" fill="#E59D29"/>
<path d="M160.493 159.936C160.493 159.936 175.109 176.543 177.731 177.319C178.726 177.613 180.82 176.586 183.034 175.198C186.61 172.958 190.504 169.773 190.597 169.697L190.599 169.696C190.843 172.269 193.221 174.842 193.221 174.842C194.095 191.012 190.89 201.015 190.89 201.015C196.523 202.957 198.492 199.169 198.492 199.169C198.492 199.169 197.153 172.511 197.153 167.558C197.153 162.605 199.831 155.465 199.831 155.465C197.246 155.388 195.406 155.808 194.094 156.294C192.783 156.779 178.848 167.024 178.848 167.024L164.669 155.711L160.493 159.935V159.936Z" fill="#FBAB18"/>
<path d="M183.033 175.197C186.609 172.957 190.504 169.772 190.597 169.697L190.598 169.695C190.598 169.695 191.289 165.779 191.763 164.575C191.66 164.711 187.084 170.807 183.034 175.197H183.033Z" fill="#E59D29"/>
<path d="M199.736 175.256L206.404 176.846L209.179 165.206L202.511 163.616L199.736 175.256Z" fill="#36588E"/>
<path d="M211.686 170.734C211.578 170.352 211.293 170.035 210.917 169.869C209.96 169.446 207.26 168.311 206.587 168.647C205.765 169.059 206.353 170.108 206.353 170.108C206.353 170.108 205.387 170.225 205.243 170.968C205.098 171.712 205.768 172.065 205.768 172.065C205.768 172.065 205.197 172.083 205.05 172.714C204.903 173.344 205.583 173.812 205.583 173.812C205.583 173.812 204.938 173.897 204.938 174.191C204.938 174.485 210.116 177.74 211.339 173.957C211.877 172.295 211.845 171.306 211.686 170.735V170.734Z" fill="#E59D29"/>
<path d="M211.21 169.424C211.078 169.003 210.756 168.669 210.344 168.511C209.296 168.108 206.34 167.037 205.631 167.467C204.764 167.992 205.445 169.125 205.445 169.125C205.445 169.125 204.412 169.329 204.289 170.176C204.166 171.023 204.904 171.368 204.904 171.368C204.904 171.368 204.289 171.432 204.16 172.152C204.03 172.871 204.784 173.346 204.784 173.346C204.784 173.346 204.093 173.49 204.107 173.82C204.12 174.15 209.837 177.414 210.983 173.072C211.485 171.164 211.407 170.054 211.209 169.425L211.21 169.424Z" fill="#FDC8AA"/>
</svg>
