<svg width="300" height="244" viewBox="0 0 300 244" fill="none" xmlns="http://www.w3.org/2000/svg">
<path d="M177.883 243.817C245.326 243.817 300 189.237 300 121.909C300 54.5804 245.326 0 177.883 0C110.44 0 55.7669 54.5804 55.7669 121.909C55.7669 189.237 110.44 243.817 177.883 243.817Z" fill="#ECF3FE"/>
<path d="M241.042 189.914L177.312 204.422L133.187 214.461L114.24 218.775L81.3023 87.749L74.4734 60.5815L176.128 37.4692L189.267 34.4806L201.334 31.7346L205.514 48.4037L209.827 65.5677L211.197 71.0211L214.777 85.2926L216.146 90.752L219.734 105.024L221.103 110.484L224.684 124.756L226.059 130.215L229.641 144.479L231.009 149.947L234.59 164.212L235.958 169.671L239.724 184.668L240.612 188.19L241.042 189.914Z" fill="#0056DE"/>
<path d="M188.025 168.262L67.6662 217.509L2.51547 67.9712L122.931 18.7231L188.025 168.262Z" fill="#C1822F"/>
<g style="mix-blend-mode:multiply" opacity="0.2">
<path d="M255.084 204.101L235.456 52.0782C235.152 49.7178 232.97 48.0385 230.61 48.3424L203.162 51.886L189.201 53.6842L152.727 58.3893L115.24 63.2277C112.872 63.5388 111.193 65.7214 111.496 68.0806L130.384 214.436L130.836 217.942L131.117 220.102C131.295 221.5 132.138 222.669 133.293 223.32C134.077 223.765 135.002 223.971 135.964 223.845L251.342 208.953C253.702 208.642 255.389 206.467 255.086 204.1L255.084 204.101Z" fill="#004DA0"/>
</g>
<path d="M253.693 205.471L138.315 220.364C137.353 220.49 136.428 220.282 135.643 219.839C134.489 219.188 133.646 218.019 133.468 216.621L133.187 214.461L132.735 210.955L113.846 64.5993C113.543 62.239 115.223 60.0564 117.591 59.7465L155.078 54.908L191.552 50.2029L205.513 48.4047L232.961 44.8612C235.322 44.5573 237.504 46.2378 237.807 48.5969L257.434 200.62C257.738 202.987 256.051 205.163 253.69 205.473L253.693 205.471Z" fill="white"/>
<path d="M225.54 89.5422L136.112 101.083C134.586 101.28 133.178 100.193 132.981 98.6689C132.785 97.1434 133.872 95.7356 135.396 95.5386L224.824 83.9974C226.35 83.8004 227.757 84.8875 227.954 86.4118C228.151 87.9374 227.064 89.3452 225.54 89.5422Z" fill="#E4ECF9"/>
<path d="M228.126 109.577L138.698 121.118C137.172 121.315 135.765 120.228 135.568 118.704C135.371 117.178 136.458 115.77 137.982 115.573L227.41 104.032C228.936 103.835 230.344 104.922 230.541 106.447C230.738 107.972 229.651 109.38 228.126 109.577Z" fill="#E4ECF9"/>
<path d="M230.712 129.613L141.284 141.154C139.759 141.351 138.351 140.264 138.154 138.74C137.957 137.214 139.044 135.807 140.568 135.61L229.996 124.068C231.522 123.871 232.93 124.959 233.127 126.483C233.324 128.008 232.237 129.416 230.712 129.613Z" fill="#E4ECF9"/>
<path d="M233.298 149.648L143.869 161.189C142.344 161.386 140.936 160.299 140.739 158.775C140.542 157.249 141.629 155.841 143.154 155.644L232.582 144.103C234.107 143.906 235.515 144.993 235.712 146.518C235.909 148.043 234.822 149.451 233.298 149.648Z" fill="#E4ECF9"/>
<path d="M235.884 169.684L146.456 181.225C144.93 181.422 143.522 180.335 143.325 178.811C143.128 177.285 144.215 175.877 145.74 175.68L235.168 164.139C236.693 163.942 238.101 165.029 238.298 166.554C238.495 168.079 237.408 169.487 235.884 169.684Z" fill="#E4ECF9"/>
<path d="M238.47 189.719L149.042 201.26C147.516 201.457 146.108 200.37 145.911 198.846C145.714 197.32 146.801 195.912 148.326 195.715L237.754 184.174C239.28 183.977 240.687 185.064 240.884 186.589C241.081 188.114 239.994 189.522 238.47 189.719Z" fill="#E4ECF9"/>
<path d="M222.955 69.5063L133.527 81.0474C132.001 81.2444 130.594 80.1573 130.397 78.633C130.2 77.1075 131.287 75.6997 132.811 75.5027L222.239 63.9615C223.765 63.7645 225.173 64.8516 225.37 66.376C225.567 67.9015 224.479 69.3093 222.955 69.5063Z" fill="#7BBC49"/>
<g style="mix-blend-mode:multiply" opacity="0.2">
<path d="M198.959 196.408L177.31 204.42L135.642 219.839C134.488 219.188 133.644 218.019 133.467 216.621L133.186 214.461L114.238 218.775L81.3021 87.749L78.8384 70.7844L128.171 53.8943L176.127 37.4703L189.267 34.4817L191.553 50.203L194.083 67.5964L194.882 73.1303L195.148 74.9358L183.067 86.9874L183.407 89.3406L184.214 94.8745L186.315 109.338L187.113 114.872L189.214 129.329L190.02 134.87L192.121 149.326L192.92 154.86L195.021 169.317L195.827 174.858L197.928 189.314L198.727 194.848L198.956 196.41L198.959 196.408Z" fill="#004DA0"/>
</g>
<path d="M205.988 171.787L114.24 218.775L109.297 200.441L71.8103 61.2996L118.791 38.675L176.779 10.7458L187.795 51.6215L177.223 65.0209L205.988 171.787Z" fill="#1B63D4"/>
<g style="mix-blend-mode:multiply" opacity="0.25">
<path d="M151.942 174.428L109.297 200.441L71.8103 61.2997L118.791 38.675L124.857 55.9495L115.313 70.1033L151.942 174.428Z" fill="#004DA0"/>
</g>
<path d="M95.2685 2.04565L112.832 40.5646L104.601 55.5123L150.476 156.12L67.6661 217.509L0 69.1147L95.2685 2.04565Z" fill="#FBAB18"/>
<g style="mix-blend-mode:multiply" opacity="0.2">
<path d="M67.666 217.509L111.461 207.717L109.297 200.441L67.666 217.509Z" fill="#004DA0"/>
</g>
<g style="mix-blend-mode:multiply" opacity="0.2">
<path d="M283.583 159.264C283.583 159.264 240.584 163.905 241.044 164.734C241.504 165.563 264.994 200.795 264.994 200.795L266.674 176.621L283.583 159.262V159.264Z" fill="#004DA0"/>
</g>
<path d="M280.706 146.675C280.706 146.675 238.545 156.315 239.099 157.085C239.653 157.855 267.103 190.097 267.103 190.097L265.943 165.892L280.706 146.675Z" fill="#7BBC49"/>
<g style="mix-blend-mode:multiply" opacity="0.2">
<path d="M282.141 26.6763C282.141 26.6763 253.389 58.9838 254.286 59.2901C255.183 59.5952 296.246 69.9375 296.246 69.9375L281.263 50.8925L282.141 26.6763V26.6763Z" fill="#004DA0"/>
</g>
<path d="M273.422 19.2517C273.422 19.2517 250.973 56.2175 251.91 56.3556C252.848 56.4938 295.103 59.2577 295.103 59.2577L276.928 43.2289L273.422 19.2517V19.2517Z" fill="#FBAB18"/>
</svg>
