<svg width="20" height="19" viewBox="0 0 20 19" fill="none" xmlns="http://www.w3.org/2000/svg">
<path d="M8.49995 18.3531C8.25472 18.3507 8.01364 18.2896 7.79682 18.175C7.556 18.0484 7.35444 17.8582 7.21397 17.6252C7.0735 17.3922 6.99948 17.1252 6.99995 16.8531V9.54063L0.831195 2.7625C0.63846 2.54583 0.512221 2.27822 0.467578 1.99169C0.422936 1.70515 0.46178 1.41183 0.579464 1.14679C0.697149 0.881752 0.888691 0.656227 1.13118 0.497188C1.37367 0.33815 1.65684 0.252333 1.94682 0.25H18.0531C18.3431 0.252333 18.6262 0.33815 18.8687 0.497188C19.1112 0.656227 19.3027 0.881752 19.4204 1.14679C19.5381 1.41183 19.577 1.70515 19.5323 1.99169C19.4877 2.27822 19.3614 2.54583 19.1687 2.7625L12.9999 9.54063V14.8469C13.0008 15.0936 12.9405 15.3366 12.8243 15.5542C12.7081 15.7718 12.5398 15.9572 12.3343 16.0938L9.33432 18.1C9.0874 18.2651 8.797 18.3532 8.49995 18.3531ZM1.94682 1.75L8.1062 8.52813C8.35856 8.80506 8.49891 9.16595 8.49995 9.54063V16.8531L11.4999 14.8469V9.54063C11.501 9.16595 11.6413 8.80506 11.8937 8.52813L18.0531 1.75H1.94682Z" fill="#1B63D4"/>
</svg>
