<svg width="16" height="16" viewBox="0 0 16 16" fill="none" xmlns="http://www.w3.org/2000/svg">
<path d="M6.75015 15.2076C6.41861 15.2074 6.10071 15.0756 5.8663 14.8411C5.63189 14.6066 5.50014 14.2887 5.49999 13.9572V7.86656L0.362962 2.21602C0.200013 2.03684 0.0926251 1.81419 0.0538514 1.57512C0.0150776 1.33605 0.0465884 1.09087 0.144553 0.869381C0.242518 0.647888 0.402717 0.459625 0.605677 0.327476C0.808637 0.195327 1.04562 0.124985 1.28781 0.125H14.7122C14.9543 0.124997 15.1913 0.195338 15.3942 0.327473C15.5972 0.459609 15.7574 0.647848 15.8553 0.869313C15.9533 1.09078 15.9848 1.33593 15.9461 1.57498C15.9074 1.81403 15.8 2.03667 15.6371 2.21586L10.5 7.86664V12.2905C10.5002 12.4964 10.4495 12.6991 10.3524 12.8805C10.2553 13.062 10.1147 13.2166 9.94335 13.3306L7.44335 14.9972C7.23816 15.1343 6.99693 15.2075 6.75015 15.2076ZM1.28827 1.375L6.42491 7.02578C6.63433 7.25573 6.75027 7.55563 6.74999 7.86664V13.9572L9.24999 12.2905V7.86664C9.24973 7.55555 9.36573 7.25559 9.57523 7.02563L14.7119 1.37531L1.28827 1.375Z" fill="#1B63D4"/>
</svg>
