<svg width="21" height="20" viewBox="0 0 21 20" fill="none" xmlns="http://www.w3.org/2000/svg">
<path d="M10.4999 0.25C8.57158 0.25 6.68651 0.821828 5.08313 1.89317C3.47975 2.96451 2.23007 4.48726 1.49212 6.26884C0.754163 8.05042 0.561081 10.0108 0.937287 11.9021C1.31349 13.7934 2.24209 15.5307 3.60565 16.8943C4.96921 18.2579 6.7065 19.1865 8.59781 19.5627C10.4891 19.9389 12.4495 19.7458 14.2311 19.0078C16.0127 18.2699 17.5354 17.0202 18.6068 15.4168C19.6781 13.8134 20.2499 11.9284 20.2499 10C20.247 7.41504 19.2188 4.93679 17.391 3.10894C15.5632 1.2811 13.0849 0.252928 10.4999 0.25ZM10.4999 18.25C8.86825 18.25 7.27319 17.7661 5.91649 16.8596C4.55978 15.9531 3.50236 14.6646 2.87794 13.1571C2.25351 11.6496 2.09014 9.99085 2.40846 8.3905C2.72679 6.79016 3.51253 5.32015 4.66631 4.16637C5.8201 3.01259 7.2901 2.22685 8.89045 1.90852C10.4908 1.59019 12.1496 1.75357 13.6571 2.37799C15.1646 3.00242 16.453 4.05984 17.3596 5.41655C18.2661 6.77325 18.7499 8.3683 18.7499 10C18.7475 12.1873 17.8775 14.2843 16.3308 15.8309C14.7842 17.3775 12.6872 18.2475 10.4999 18.25ZM13.916 9.376L9.41601 6.376C9.30306 6.30069 9.17179 6.25745 9.03619 6.25089C8.9006 6.24433 8.76577 6.27469 8.64608 6.33874C8.52638 6.40279 8.42632 6.49813 8.35656 6.61459C8.28679 6.73104 8.24995 6.86425 8.24994 7V13C8.24995 13.1358 8.28679 13.269 8.35656 13.3854C8.42632 13.5019 8.52638 13.5972 8.64608 13.6613C8.76577 13.7253 8.9006 13.7557 9.03619 13.7491C9.17179 13.7425 9.30306 13.6993 9.41601 13.624L13.916 10.624C14.0187 10.5555 14.1029 10.4627 14.1612 10.3539C14.2194 10.245 14.2499 10.1235 14.2499 10C14.2499 9.87654 14.2194 9.75499 14.1612 9.64614C14.1029 9.53728 14.0187 9.44449 13.916 9.376ZM9.74994 11.5986V8.40137L12.1479 10L9.74994 11.5986Z" fill="#1B63D4"/>
</svg>
