<svg width="121" height="121" viewBox="0 0 121 121" fill="none" xmlns="http://www.w3.org/2000/svg">
<g opacity="0.1">
<path d="M116.592 58.9764C116.428 58.6061 112.459 49.8001 103.63 40.9717C91.872 29.2122 77.0145 22.9961 60.6659 22.9961C44.3173 22.9961 29.4598 29.2117 17.7016 40.9712C8.8732 49.8001 4.90335 58.6066 4.73882 58.9769C4.52583 59.4563 4.41577 59.9752 4.41577 60.4998C4.41577 61.0245 4.52583 61.5433 4.73882 62.0228C4.90382 62.3931 8.8732 71.1972 17.7021 80.0247C29.4602 91.7814 44.3168 97.9961 60.6659 97.9961C77.0149 97.9961 91.8715 91.7814 103.63 80.0247C112.458 71.1972 116.428 62.3936 116.593 62.0228C116.806 61.5433 116.916 61.0245 116.916 60.4998C116.916 59.9752 116.806 59.4563 116.593 58.9769L116.592 58.9764ZM60.6659 90.4965C46.2377 90.4965 33.6312 85.2531 23.1963 74.9125C18.9079 70.6566 15.2586 65.802 12.3621 60.4998C15.2585 55.1966 18.9078 50.3409 23.1963 46.0839C33.6312 35.7405 46.2382 30.4961 60.6659 30.4961C75.0935 30.4961 87.7005 35.7405 98.1354 46.0839C102.424 50.3407 106.074 55.1965 108.97 60.4998C105.589 66.8045 90.8684 90.4951 60.6659 90.4951V90.4965ZM60.6659 37.9998C56.2158 37.9998 51.8656 39.3194 48.1655 41.7918C44.4654 44.2641 41.5815 47.7781 39.8786 51.8895C38.1756 56.0008 37.73 60.5248 38.5982 64.8894C39.4664 69.2539 41.6093 73.2631 44.756 76.4097C47.9026 79.5564 51.9118 81.6993 56.2763 82.5675C60.6409 83.4357 65.1649 82.9901 69.2762 81.2871C73.3876 79.5842 76.9016 76.7003 79.3739 73.0002C81.8463 69.3001 83.1659 64.9499 83.1659 60.4998C83.1592 54.5345 80.7865 48.8155 76.5684 44.5973C72.3503 40.3792 66.6312 38.0065 60.6659 37.9998ZM60.6659 75.4998C57.6991 75.4998 54.799 74.6201 52.3323 72.9719C49.8656 71.3237 47.943 68.981 46.8077 66.2401C45.6723 63.4992 45.3753 60.4832 45.9541 57.5735C46.5329 54.6638 47.9615 51.991 50.0593 49.8932C52.157 47.7954 54.8298 46.3668 57.7395 45.7881C60.6492 45.2093 63.6652 45.5063 66.4061 46.6416C69.147 47.777 71.4897 49.6995 73.1379 52.1663C74.7861 54.633 75.6659 57.5331 75.6659 60.4998C75.6613 64.4767 74.0794 68.2893 71.2674 71.1014C68.4553 73.9134 64.6427 75.4952 60.6659 75.4998Z" fill="#1B63D4"/>
</g>
</svg>
