<svg width="121" height="121" viewBox="0 0 121 121" fill="none" xmlns="http://www.w3.org/2000/svg">
<g opacity="0.1">
<path d="M88.792 39.875C86.3681 39.8724 83.9914 40.5452 81.9285 41.818C81.1969 40.2505 80.1625 38.8433 78.8848 37.6773C77.607 36.5114 76.1113 35.6097 74.4836 35.0242C72.8559 34.4387 71.1285 34.181 69.4009 34.2659C67.6732 34.3508 65.9794 34.7767 64.417 35.5189V17.375C64.417 13.894 63.0342 10.5556 60.5727 8.09422C58.1113 5.63281 54.7729 4.25 51.292 4.25C47.811 4.25 44.4726 5.63281 42.0112 8.09422C39.5498 10.5556 38.167 13.894 38.167 17.375V60.2234L34.8862 54.5408C33.151 51.542 30.3005 49.351 26.9564 48.4454C23.6122 47.5399 20.0457 47.9933 17.0345 49.7069C14.0233 51.4204 11.8118 54.255 10.8822 57.5926C9.95258 60.9301 10.3803 64.4998 12.0721 67.5233C27.2812 99.5933 37.4137 113 60.667 113C71.6033 112.988 82.0882 108.638 89.8214 100.904C97.5546 93.1713 101.905 82.6864 101.917 71.75V53C101.913 49.5202 100.529 46.1841 98.0685 43.7235C95.6079 41.2629 92.2718 39.8788 88.792 39.875ZM94.417 71.75C94.4069 80.698 90.8479 89.2766 84.5207 95.6038C78.1935 101.931 69.6149 105.49 60.667 105.5C51.2081 105.5 44.6231 102.943 38.6474 96.9509C32.7885 91.0756 27.0356 81.5825 18.7893 64.1844C18.7459 64.0928 18.6987 64.0031 18.6477 63.9153C18.2784 63.2755 18.0387 62.5693 17.9423 61.8369C17.8459 61.1045 17.8947 60.3603 18.0859 59.6467C18.2771 58.9332 18.607 58.2643 19.0567 57.6782C19.5065 57.0922 20.0672 56.6004 20.707 56.2311C21.999 55.4852 23.5345 55.2831 24.9756 55.6693C25.6891 55.8605 26.358 56.1904 26.944 56.6401C27.5301 57.0898 28.0218 57.6506 28.3912 58.2903L38.6695 76.0934C39.0822 76.8083 39.7194 77.367 40.482 77.6829C41.2446 77.9987 42.0902 78.0541 42.8875 77.8405C43.6849 77.6268 44.3895 77.1561 44.892 76.5012C45.3945 75.8463 45.6669 75.0439 45.667 74.2184V17.375C45.667 15.8832 46.2596 14.4524 47.3145 13.3975C48.3694 12.3426 49.8001 11.75 51.292 11.75C52.7838 11.75 54.2145 12.3426 55.2694 13.3975C56.3243 14.4524 56.917 15.8832 56.917 17.375V49.25C56.917 50.2446 57.3121 51.1984 58.0153 51.9016C58.7186 52.6049 59.6724 53 60.667 53C61.6615 53 62.6154 52.6049 63.3186 51.9016C64.0219 51.1984 64.417 50.2446 64.417 49.25V47.375C64.417 45.8832 65.0096 44.4524 66.0645 43.3975C67.1194 42.3426 68.5501 41.75 70.042 41.75C71.5338 41.75 72.9645 42.3426 74.0194 43.3975C75.0743 44.4524 75.667 45.8832 75.667 47.375V53C75.667 53.9946 76.062 54.9484 76.7653 55.6516C77.4686 56.3549 78.4224 56.75 79.417 56.75C80.4115 56.75 81.3654 56.3549 82.0686 55.6516C82.7719 54.9484 83.167 53.9946 83.167 53C83.167 51.5082 83.7596 50.0774 84.8145 49.0225C85.8694 47.9676 87.3001 47.375 88.792 47.375C90.2838 47.375 91.7145 47.9676 92.7694 49.0225C93.8243 50.0774 94.417 51.5082 94.417 53V71.75Z" fill="#1B63D4"/>
</g>
</svg>
