<svg width="121" height="121" viewBox="0 0 121 121" fill="none" xmlns="http://www.w3.org/2000/svg">
<g opacity="0.1">
<path d="M104.667 39.4823C109.874 50.3631 110.865 62.7867 107.45 74.3553C104.035 85.9239 96.4551 95.8174 86.1744 102.126C75.8936 108.435 63.6403 110.712 51.7794 108.518C39.9185 106.323 29.2909 99.8133 21.9477 90.2439C14.6045 80.6745 11.0663 68.7242 12.0161 56.6995C12.9658 44.6747 18.3361 33.428 27.0905 25.1301C35.8449 16.8321 47.3628 12.0711 59.4211 11.7659C71.4794 11.4608 83.2234 15.6332 92.3862 23.4778L103.016 12.8484C103.719 12.1451 104.673 11.75 105.667 11.75C106.662 11.75 107.616 12.1451 108.319 12.8484C109.022 13.5517 109.417 14.5055 109.417 15.5001C109.417 16.4947 109.022 17.4485 108.319 18.1518L79.2312 47.2392L79.2294 47.2415L79.227 47.2434L63.319 63.1513C62.6158 63.8546 61.6619 64.2497 60.6673 64.2497C59.6727 64.2497 58.7189 63.8546 58.0156 63.1513C57.3123 62.4481 56.9172 61.4942 56.9172 60.4996C56.9172 59.505 57.3123 58.5512 58.0156 57.8479L71.0094 44.8542C67.4869 42.5241 63.281 41.4511 59.0728 41.8089C54.8645 42.1667 50.9002 43.9344 47.8217 46.8257C44.7431 49.7171 42.7306 53.5628 42.1098 57.7404C41.4891 61.918 42.2965 66.1828 44.4013 69.8443C46.5061 73.5059 49.7852 76.3499 53.7076 77.9158C57.63 79.4818 61.9661 79.678 66.0139 78.4728C70.0617 77.2676 73.5843 74.7315 76.0113 71.275C78.4383 67.8186 79.6277 63.6442 79.3869 59.4276C79.356 58.9343 79.4229 58.4397 79.5838 57.9723C79.7448 57.505 79.9965 57.074 80.3246 56.7043C80.6526 56.3346 81.0506 56.0334 81.4955 55.818C81.9404 55.6026 82.4234 55.4773 82.9169 55.4493C83.4104 55.4212 83.9046 55.4911 84.371 55.6547C84.8374 55.8183 85.2669 56.0726 85.6347 56.4028C86.0025 56.733 86.3014 57.1327 86.5142 57.5788C86.727 58.025 86.8495 58.5088 86.8747 59.0024C87.2167 64.9692 85.5125 70.8741 82.0438 75.7411C78.575 80.6081 73.5495 84.1458 67.7977 85.7696C62.0459 87.3933 55.9122 87.0059 50.4105 84.6712C44.9087 82.3366 40.3683 78.1946 37.5396 72.9298C34.7109 67.665 33.7633 61.5926 34.8534 55.7163C35.9435 49.84 39.0061 44.5115 43.5349 40.6116C48.0637 36.7117 53.7877 34.4739 59.7607 34.2679C65.7338 34.062 71.5983 35.9003 76.385 39.479L87.0575 28.8056C79.2423 22.3163 69.3051 18.9432 59.1544 19.3342C49.0038 19.7252 39.3555 23.8527 32.0626 30.9239C24.7697 37.9951 20.3465 47.5115 19.6426 57.6452C18.9386 67.779 22.0035 77.8156 28.2486 85.8272C34.4937 93.8389 43.4786 99.2608 53.4777 101.052C63.4767 102.842 73.7849 100.876 82.4223 95.5293C91.0597 90.183 97.4173 81.8339 100.274 72.0857C103.131 62.3375 102.285 51.8775 97.8997 42.7148C97.471 41.8173 97.4163 40.7863 97.7478 39.8485C98.0792 38.9108 98.7696 38.1431 99.6671 37.7144C100.565 37.2857 101.596 37.231 102.533 37.5625C103.471 37.8939 104.239 38.5843 104.667 39.4818V39.4823Z" fill="#1B63D4"/>
</g>
</svg>
