<svg width="121" height="121" viewBox="0 0 121 121" fill="none" xmlns="http://www.w3.org/2000/svg">
<g opacity="0.1">
<path d="M115.049 34.7567C114.481 34.427 113.836 34.2523 113.179 34.2501C112.523 34.2479 111.877 34.4182 111.306 34.7441L90.6667 46.5378V43.625C90.661 38.6539 88.6838 33.8881 85.1687 30.3731C81.6536 26.858 76.8878 24.8807 71.9167 24.875H11.9167C9.92831 24.8772 8.02195 25.6681 6.61591 27.0742C5.20987 28.4802 4.41898 30.3866 4.41675 32.375V77.375C4.42245 82.3461 6.39973 87.1119 9.9148 90.627C13.4299 94.142 18.1957 96.1193 23.1667 96.125H83.1667C85.1552 96.1228 87.0615 95.3319 88.4676 93.9258C89.8736 92.5198 90.6645 90.6134 90.6667 88.625V74.4622L111.306 86.2559C111.877 86.5818 112.522 86.7522 113.179 86.75C113.836 86.7478 114.481 86.5731 115.049 86.2434C115.617 85.9137 116.089 85.4406 116.416 84.8714C116.744 84.3022 116.917 83.6568 116.917 83V38C116.917 37.3432 116.744 36.6979 116.417 36.1287C116.089 35.5595 115.617 35.0864 115.049 34.7567ZM83.1667 88.625H23.1667C20.1841 88.6217 17.3246 87.4353 15.2155 85.3263C13.1064 83.2172 11.9201 80.3577 11.9167 77.375V32.375H71.9167C74.8994 32.3783 77.7589 33.5647 79.868 35.6737C81.9771 37.7828 83.1634 40.6423 83.1667 43.625L83.1677 53.0558V53.0947L83.1691 67.8838C83.1682 67.9231 83.1691 67.962 83.1691 68.0009L83.1714 88.625H83.1667ZM109.417 76.5383L90.6667 65.8236V55.1764L109.417 44.4617V76.5383Z" fill="#1B63D4"/>
</g>
</svg>
