<svg width="16" height="17" viewBox="0 0 16 17" fill="none" xmlns="http://www.w3.org/2000/svg">
<path d="M5.1875 3.64502C5.1875 3.49584 5.24676 3.35276 5.35225 3.24727C5.45774 3.14178 5.60082 3.08252 5.75 3.08252H12.5C12.6492 3.08252 12.7923 3.14178 12.8977 3.24727C13.0032 3.35276 13.0625 3.49584 13.0625 3.64502V10.395C13.0625 10.5442 13.0032 10.6873 12.8977 10.7928C12.7923 10.8983 12.6492 10.9575 12.5 10.9575C12.3508 10.9575 12.2077 10.8983 12.1023 10.7928C11.9968 10.6873 11.9375 10.5442 11.9375 10.395V4.20752H5.75C5.60082 4.20752 5.45774 4.14826 5.35225 4.04277C5.24676 3.93728 5.1875 3.7942 5.1875 3.64502ZM15.3125 12.0825H4.0625V0.83252C4.0625 0.683335 4.00324 0.540261 3.89775 0.434772C3.79226 0.329283 3.64918 0.27002 3.5 0.27002C3.35082 0.27002 3.20774 0.329283 3.10225 0.434772C2.99676 0.540261 2.9375 0.683335 2.9375 0.83252V3.08252H0.6875C0.538316 3.08252 0.395242 3.14178 0.289752 3.24727C0.184263 3.35276 0.125 3.49584 0.125 3.64502C0.125 3.7942 0.184263 3.93728 0.289752 4.04277C0.395242 4.14826 0.538316 4.20752 0.6875 4.20752H2.9375V12.645C2.9375 12.7942 2.99676 12.9373 3.10225 13.0428C3.20774 13.1483 3.35082 13.2075 3.5 13.2075H11.9375V15.4575C11.9375 15.6067 11.9968 15.7498 12.1023 15.8553C12.2077 15.9608 12.3508 16.02 12.5 16.02C12.6492 16.02 12.7923 15.9608 12.8977 15.8553C13.0032 15.7498 13.0625 15.6067 13.0625 15.4575V13.2075H15.3125C15.4617 13.2075 15.6048 13.1483 15.7102 13.0428C15.8157 12.9373 15.875 12.7942 15.875 12.645C15.875 12.4958 15.8157 12.3528 15.7102 12.2473C15.6048 12.1418 15.4617 12.0825 15.3125 12.0825Z" fill="#9A9A9A"/>
</svg>
