<svg width="248" height="184" viewBox="0 0 248 184" fill="none" xmlns="http://www.w3.org/2000/svg">
<path d="M4.54541 9.13867L247.9 77.7421L207.044 178.328L14.9392 177.339L4.54541 9.13867Z" fill="#ECF3FE"/>
<g style="mix-blend-mode:multiply" opacity="0.22">
<path d="M61.2407 63.0356L77.3957 95.5082L77.1893 73.6118L97.4399 65.2814L61.2407 63.0356Z" fill="#003889"/>
</g>
<g style="mix-blend-mode:multiply" opacity="0.22">
<path d="M205.899 145.856L222.054 178.329L221.848 156.432L242.099 148.101L205.899 145.856Z" fill="#003889"/>
</g>
<path d="M58.2905 60.4531L76.0439 92.0797L74.7461 70.2211L94.5569 60.8911L58.2905 60.4531Z" fill="#33DA82"/>
<path d="M203.004 144.141L220.758 175.767L219.461 153.909L239.271 144.579L203.004 144.141Z" fill="#33DA82"/>
<g style="mix-blend-mode:multiply" opacity="0.22">
<path d="M159.952 153.505C193.744 153.505 221.138 126.111 221.138 92.319C221.138 58.5268 193.744 31.1328 159.952 31.1328C126.159 31.1328 98.7654 58.5268 98.7654 92.319C98.7654 126.111 126.159 153.505 159.952 153.505Z" fill="#003889"/>
</g>
<path d="M185.287 14.2791L155.272 88.6983L87.8262 45.2427C102.108 23.1189 126.98 8.47412 155.272 8.47412C165.884 8.47412 176.015 10.5357 185.287 14.2791Z" fill="#D7E4F7"/>
<path d="M155.271 149.885C189.064 149.885 216.458 122.491 216.458 88.6984C216.458 54.9062 189.064 27.5122 155.271 27.5122C121.479 27.5122 94.0852 54.9062 94.0852 88.6984C94.0852 122.491 121.479 149.885 155.271 149.885Z" fill="white"/>
<path d="M106.595 183.721C165.411 183.721 213.09 181.632 213.09 179.054C213.09 176.477 165.411 174.388 106.595 174.388C47.7796 174.388 0.100098 176.477 0.100098 179.054C0.100098 181.632 47.7796 183.721 106.595 183.721Z" fill="#D7E4F9"/>
<g style="mix-blend-mode:multiply" opacity="0.22">
<path d="M178.891 99.4767C178.644 96.5895 178.341 94.1289 177.97 92.3283C180.606 87.1539 186.028 75.8571 186.179 70.1835C186.351 63.6675 179.078 61.1313 177.159 60.5763L176.804 58.9689L176.294 59.7963L176.087 56.1039L175.976 54.1161C176.229 53.7555 176.462 53.3673 176.67 52.9545C178.353 52.8849 179.939 50.2983 178.952 49.3767C178.917 49.3437 178.881 49.3149 178.844 49.2885C179.257 48.5649 179.307 47.5323 178.898 46.5681C178.482 45.5889 177.704 44.9385 176.907 44.8005C176.912 43.7739 176.185 42.9075 175.135 42.7791C174.671 42.7227 174.214 42.8199 173.815 43.0287C173.14 42.1005 171.939 41.5257 170.559 41.6049C168.417 41.7285 166.662 43.3767 166.638 45.2865C166.619 46.7535 167.631 47.9451 169.071 48.3639C168.972 48.6063 168.878 48.8559 168.793 49.1139C167.876 51.8793 168.056 54.6567 169.375 56.0265L169.209 57.6801L168.806 58.0545C166.133 57.4251 138.476 50.8965 138.476 50.8965L138.422 51.6603C136.915 51.1641 134.924 50.5041 134.924 50.5041C134.924 50.5041 128.853 49.9401 128.766 50.5041C128.711 50.8605 131.15 51.3825 132.965 51.8853C132.711 52.1529 132.459 52.4487 132.451 52.5723C132.436 52.7865 132.764 53.7411 133.248 54.0357C132.953 54.2169 132.719 54.3891 132.665 54.5469C132.501 55.0221 136.175 54.0291 138.194 54.8883L138.168 55.2597L159.666 63.9597C159.666 63.9597 163.959 71.3049 162.638 80.7513C159.332 80.8497 138.891 81.6003 138.591 85.1367C138.264 88.9851 136.733 118.917 137.316 118.835C137.397 118.824 137.553 118.815 137.757 118.81L137.304 121.908L130.322 123.452L129.745 125.354H142.363L141.972 118.83C142.155 118.833 142.263 118.835 142.263 118.835L146.502 92.6127C146.502 92.6127 156.147 92.8089 164.418 92.3247L165.596 98.7489L161.907 107.096L167.521 109.238L167.636 109.863L174.426 146.871H175.023L174.696 149.104L167.714 150.648L167.137 152.55H179.755L179.414 146.871H179.867C179.867 146.871 180.158 126.741 179.517 110.246L183.5 101.235L178.891 99.4761V99.4767Z" fill="#003889"/>
</g>
<path d="M128.201 51.3647C128.201 51.3647 127.253 52.3205 127.253 52.5713C127.253 52.8221 127.794 54.0911 128.421 54.1223C129.048 54.1535 131.273 52.9631 131.273 52.9631L128.202 51.3647H128.201Z" fill="#EFA37D"/>
<path d="M134.845 52.1951C134.657 52.1483 129.58 50.5031 129.58 50.5031C129.58 50.5031 123.469 49.9391 123.422 50.5031C123.376 51.0671 129.604 52.0463 129.698 52.7045C129.792 53.3627 127.747 54.0287 127.606 54.5453C127.465 55.0625 131.743 53.8403 133.67 55.1561L134.845 52.1945L134.845 52.1951Z" fill="#FDC8AA"/>
<path d="M137.258 118.408L136.993 121.907L130.119 123.451L129.676 125.353H142.294L141.34 118.036L137.258 118.408Z" fill="#072542"/>
<path d="M176.566 145.604L176.302 149.104L169.428 150.647L168.985 152.549H181.603L180.649 145.233L176.566 145.604Z" fill="#072542"/>
<path d="M181.315 146.87H175.873L166.475 109.862L163.787 99.2784L161.69 91.017C161.69 91.017 168.685 87.9834 173.035 88.8552C173.369 88.9218 173.688 89.0124 173.988 89.1288C178.172 90.7578 181.315 146.87 181.315 146.87Z" fill="#15315E"/>
<path d="M173.035 88.8561V90.4468L163.788 99.2794L161.69 91.0179C161.69 91.0179 168.686 87.9843 173.035 88.8561Z" fill="#072542"/>
<path d="M159.876 80.7378C159.876 80.7378 135.743 81.2874 135.688 85.1358C135.633 88.9842 136.21 118.916 136.787 118.834C137.365 118.752 141.735 118.834 141.735 118.834L144.127 92.6118C144.127 92.6118 172.236 93.1842 173.436 89.973L159.876 80.7378Z" fill="#1F3A6F"/>
<path d="M175.964 81.2893C174.832 86.4787 173.436 91.0183 173.436 91.0183L169.473 88.2901L159.381 81.3439C160.289 71.6131 155.271 63.9595 155.271 63.9595L133.16 55.2595V50.8975C133.16 50.8975 163.994 58.0567 164.205 58.1047L172.057 60.4543C172.057 60.4543 174.004 62.7073 176.687 67.2163C178.068 69.5377 177.165 75.7795 175.964 81.2905V81.2893Z" fill="#F4B545"/>
<path d="M163.528 59.9292C163.594 59.9424 171.677 60.3702 171.677 60.3702L164.603 72.6018L163.528 59.9292Z" fill="#E59D29"/>
<path d="M171.678 60.3704C171.678 60.3704 169.525 61.8134 167.132 61.8134C164.74 61.8134 164.287 60.5354 164.287 60.5354L164.347 58.529L164.429 55.7402L170.845 53.7788L171.139 56.1032L171.679 60.3698L171.678 60.3704Z" fill="#FDC8AA"/>
<path d="M165.03 95.025L160.549 107.089L177.247 113.293L181.729 101.228L165.03 95.025Z" fill="#3B82F4"/>
<path d="M166.483 98.1148L163.666 105.698L167.917 107.277L170.734 99.694L166.483 98.1148Z" fill="#C4D7F2"/>
<path d="M175.964 81.2894C174.832 86.4788 173.436 91.0183 173.436 91.0183L169.474 88.2902C172.155 84.4262 174.353 74.252 174.353 74.252C174.353 74.252 175.073 77.3888 175.964 81.2894Z" fill="#E59D29"/>
<path d="M171.924 92.4925L171.112 94.0333C171.112 94.0333 170.383 95.1415 169.246 95.7241C168.11 96.3067 167.105 97.2283 167.301 97.6837C167.496 98.1391 169.222 96.8719 169.53 97.0345C169.838 97.1971 169.77 97.6795 169.437 98.3119C169.103 98.9443 166.859 101.431 169.076 100.962C171.293 100.493 172.769 98.2309 173.121 97.1443C173.472 96.0583 174.671 93.7321 174.671 93.7321L171.989 92.3179L171.925 92.4913L171.924 92.4925Z" fill="#FDC8AA"/>
<path d="M172.058 60.4531C172.058 60.4531 181.893 62.6797 182.223 70.1833C182.553 77.6869 174.353 95.0311 174.353 95.0311L171.143 93.4921C171.143 93.4921 174.812 78.6493 174.353 74.2513L172.058 60.4531Z" fill="#F4B545"/>
<path d="M171.138 56.1037C166.855 59.9539 165.095 59.4427 164.347 58.5295L164.429 55.7407L170.845 53.7793L171.139 56.1037H171.138Z" fill="#EFA37D"/>
<path d="M171.956 51.6302C171.041 55.136 168.275 57.449 165.779 56.7974C163.282 56.1458 162.436 52.6196 163.351 49.1138C164.266 45.608 166.596 43.451 169.093 44.1026C171.589 44.7542 172.871 48.1244 171.956 51.6296V51.6302Z" fill="#FDC8AA"/>
<path d="M170.894 50.2461C170.894 50.2461 172.428 48.4113 173.529 49.3761C174.63 50.3415 173.04 53.1351 171.26 52.9485L170.895 50.2455L170.894 50.2461Z" fill="#FDC8AA"/>
<path d="M171.749 50.4286C171.749 50.4286 172.958 49.852 173.032 50.4988C173.105 51.1456 172.262 51.9904 172.045 51.991C171.827 51.991 172.603 51.0058 172.489 50.9158C172.375 50.8258 171.798 51.0646 171.749 50.428L171.749 50.4286Z" fill="#EFA37D"/>
<path d="M164.994 48.5096C167.127 48.3858 168.766 46.7376 168.655 44.8281C168.545 42.9187 166.726 41.4711 164.593 41.5948C162.459 41.7185 160.82 43.3668 160.931 45.2762C161.042 47.1857 162.861 48.6333 164.994 48.5096Z" fill="#15315E"/>
<path d="M170.662 46.3315C171.432 45.4029 171.303 44.0265 170.374 43.2573C169.445 42.488 168.069 42.6171 167.3 43.5457C166.53 44.4743 166.66 45.8507 167.588 46.62C168.517 47.3893 169.893 47.2601 170.662 46.3315Z" fill="#15315E"/>
<path d="M172.662 50.0654C173.702 49.551 173.977 47.9867 173.277 46.5714C172.577 45.1562 171.167 44.4258 170.127 44.9402C169.087 45.4546 168.811 47.0189 169.512 48.4342C170.212 49.8495 171.622 50.5798 172.662 50.0654Z" fill="#15315E"/>
<path d="M164.427 57.6255L160.865 61.1541L162.267 65.7855L160.371 67.2561L164.603 72.6021L164.427 57.6255Z" fill="white"/>
<path d="M172.058 58.9688L164.603 72.6019L171.365 69.9631L171.142 65.1806L173.436 63.6962L172.058 58.9688Z" fill="white"/>
<path d="M142.449 125.354H117.401V179.055H142.449V125.354Z" fill="#3B82F4"/>
<path d="M152.827 125.354H142.449V179.055H152.827V125.354Z" fill="#1A71D8"/>
<path d="M97.774 101.86H72.7258V179.054H97.774V101.86Z" fill="#3B82F4"/>
<path d="M108.153 101.858H97.7754V179.054H108.153V101.858Z" fill="#1A71D8"/>
<path d="M53.1018 64.5835H28.053V179.054H53.1018V64.5835Z" fill="#3B82F4"/>
<path d="M63.4794 64.5835H53.1018V179.054H63.4794V64.5835Z" fill="#1A71D8"/>
<path d="M187.124 152.55H162.075V179.055H187.124V152.55Z" fill="#3B82F4"/>
<g style="mix-blend-mode:multiply" opacity="0.22">
<path d="M59.1202 125.999C59.017 125.64 58.9084 125.286 58.7896 124.931C58.7158 124.706 58.6372 124.481 58.543 124.265C58.5076 124.141 58.4572 124.016 58.4116 123.896L58.4026 123.892C57.79 122.35 57.01 120.903 56.0674 119.56V119.555C55.5664 118.841 55.027 118.166 54.4408 117.509H54.436C50.3536 112.988 44.2966 110.179 37.2682 110.179C35.17 110.179 33.103 110.433 31.0954 110.907C19.831 113.558 10.6486 123.226 9.4018 134.743C9.2338 136.297 9.2158 137.82 9.3454 139.295C9.3544 139.396 9.3634 139.492 9.3718 139.592C9.3796 139.703 9.397 139.813 9.4048 139.923C10.2232 147.263 14.5498 153.377 20.8936 156.667C20.8966 156.669 20.9002 156.67 20.9038 156.672L19.9264 159.058L12.2728 177.743C11.8774 178.708 12.3394 179.73 13.2994 180.013C14.2594 180.297 15.3688 179.739 15.7642 178.774L23.2828 160.418L24.2404 158.08C24.7438 158.251 25.2586 158.399 25.7728 158.537C26.5888 158.743 27.4186 158.911 28.2736 159.03C29.4652 159.207 30.6958 159.298 31.951 159.298C32.4808 159.298 33.0118 159.284 33.5422 159.25C34.1884 159.212 34.828 159.149 35.4604 159.059C37.126 158.843 38.7502 158.47 40.3306 157.957H40.3342L40.8094 160.418L44.3536 178.774C44.5396 179.739 45.5284 180.298 46.5502 180.013C47.572 179.73 48.2548 178.708 48.0688 177.743L44.4604 159.058L43.9642 156.489C46.8922 155.071 49.5664 153.166 51.8626 150.886V150.881C52.2862 150.458 52.69 150.036 53.0758 149.596C53.3296 149.311 53.5798 149.018 53.8198 148.724C54.037 148.46 54.2494 148.195 54.4552 147.924C56.752 144.914 58.4398 141.458 59.305 137.746C59.3812 137.43 59.4496 137.111 59.5114 136.79C59.641 136.115 59.7442 135.433 59.8186 134.743C60.1528 131.658 59.8906 128.713 59.1202 125.999Z" fill="#003889"/>
</g>
<path d="M197.501 152.55H187.124V179.055H197.501V152.55Z" fill="#1A71D8"/>
<path d="M35.4373 148.493C35.4373 148.667 35.4619 148.844 35.5129 149.018L38.7331 159.953L44.2645 178.743C44.5555 179.731 45.6037 180.303 46.5949 180.012C47.5861 179.722 48.1585 178.676 47.8675 177.687L42.2365 158.561L39.1159 147.963C38.8249 146.975 37.7767 146.403 36.7855 146.694C35.9689 146.933 35.4373 147.684 35.4373 148.494V148.493Z" fill="#F4B545"/>
<path d="M24.5015 148.498C24.5015 148.665 24.4673 148.846 24.4181 149.018L23.4173 152.416V152.421L22.2941 156.227L21.9017 157.556C20.6951 157.163 19.5281 156.688 18.4097 156.114L19.4195 152.696L19.9589 150.877V150.867L20.8121 147.959C21.0521 147.16 21.8027 146.63 22.6067 146.615H22.6163C22.7879 146.615 22.9745 146.639 23.1461 146.689C23.5235 146.806 23.8427 147.027 24.0635 147.311L24.0683 147.316C24.3479 147.645 24.5003 148.067 24.5003 148.498H24.5015Z" fill="white"/>
<g style="mix-blend-mode:multiply" opacity="0.24">
<path d="M35.4373 148.493C35.4373 148.667 35.4619 148.844 35.5129 149.018L38.7331 159.953C39.9385 159.566 41.1079 159.1 42.2371 158.561L39.1165 147.963C38.8255 146.975 37.7773 146.403 36.7861 146.694C35.9695 146.933 35.4379 147.684 35.4379 148.494L35.4373 148.493Z" fill="#003889"/>
</g>
<path d="M24.5016 148.493C24.5016 148.667 24.477 148.844 24.426 149.018L21.2058 159.953L15.6744 178.743C15.3834 179.731 14.3352 180.303 13.344 180.012C12.3528 179.722 11.7804 178.676 12.0714 177.687L17.7024 158.561L20.823 147.963C21.114 146.975 22.1622 146.403 23.1534 146.694C23.97 146.933 24.5016 147.684 24.5016 148.494V148.493Z" fill="#F4B545"/>
<g style="mix-blend-mode:multiply" opacity="0.24">
<path d="M24.5015 148.493C24.5015 148.667 24.4769 148.844 24.4259 149.018L21.2057 159.953C20.0003 159.566 18.8309 159.1 17.7017 158.561L20.8223 147.963C21.1133 146.975 22.1615 146.403 23.1527 146.694C23.9693 146.933 24.5009 147.684 24.5009 148.494L24.5015 148.493Z" fill="#003889"/>
</g>
<path opacity="0.25" d="M24.5015 148.498C24.5015 148.665 24.4673 148.846 24.4181 149.018L23.4173 152.416V152.421L22.2941 156.227L21.9017 157.556C20.6951 157.163 19.5281 156.688 18.4097 156.114L19.4195 152.696L19.9589 150.877V150.867L20.8121 147.959C21.0521 147.16 21.8027 146.63 22.6067 146.615H22.6163C22.7879 146.615 22.9745 146.639 23.1461 146.689C23.5235 146.806 23.8427 147.027 24.0635 147.311L24.0683 147.316C24.3479 147.645 24.5003 148.067 24.5003 148.498H24.5015Z" fill="#6D6D6D"/>
<path d="M54.9635 133.671C54.9635 134.377 54.9341 135.076 54.8777 135.767C54.8507 136.095 54.8165 136.421 54.7745 136.745C54.3113 140.545 52.9973 144.082 51.0263 147.163C50.8499 147.44 50.6657 147.712 50.4773 147.982C50.2691 148.284 50.0507 148.583 49.8275 148.874C49.4891 149.326 49.1315 149.757 48.7535 150.191V150.196C46.7039 152.53 44.2355 154.481 41.4605 155.932C40.3571 156.515 39.2003 157.02 37.9919 157.435H37.9871C36.4625 157.959 34.8785 158.342 33.2363 158.562C32.6135 158.655 31.9811 158.719 31.3391 158.758C30.8123 158.792 30.2825 158.807 29.7533 158.807C28.4981 158.807 27.2579 158.714 26.0471 158.533C25.1795 158.41 24.3311 158.239 23.4929 158.027C22.9607 157.885 22.4267 157.733 21.9017 157.557C20.6957 157.162 19.5287 156.687 18.4109 156.113C11.7113 152.745 6.72294 146.487 5.10954 138.973C5.08974 138.86 5.06034 138.748 5.04114 138.635C5.02134 138.532 5.00214 138.434 4.98234 138.331C4.69314 136.82 4.54614 135.262 4.54614 133.67C4.54614 121.882 12.6821 111.985 23.6597 109.272C25.6157 108.787 27.6557 108.527 29.7539 108.527C36.7823 108.527 43.1435 111.402 47.7155 116.03H47.7203C48.3773 116.702 48.9899 117.394 49.5689 118.124V118.129C50.6573 119.504 51.5939 120.985 52.3733 122.563L52.3829 122.568C52.4417 122.69 52.5053 122.818 52.5545 122.945C52.6721 123.166 52.7753 123.397 52.8731 123.627C53.0303 123.99 53.1773 124.352 53.3195 124.72C54.3833 127.498 54.9641 130.513 54.9641 133.67L54.9635 133.671Z" fill="#F4B545"/>
<path d="M29.7569 153.451C40.712 153.451 49.5929 144.594 49.5929 133.669C49.5929 122.743 40.712 113.886 29.7569 113.886C18.8018 113.886 9.9209 122.743 9.9209 133.669C9.9209 144.594 18.8018 153.451 29.7569 153.451Z" fill="white"/>
<path d="M29.7571 148.446C37.9406 148.446 44.5747 141.83 44.5747 133.669C44.5747 125.507 37.9406 118.891 29.7571 118.891C21.5735 118.891 14.9395 125.507 14.9395 133.669C14.9395 141.83 21.5735 148.446 29.7571 148.446Z" fill="#F4B545"/>
<path d="M29.757 143.772C35.3515 143.772 39.8868 139.248 39.8868 133.669C39.8868 128.089 35.3515 123.566 29.757 123.566C24.1625 123.566 19.6272 128.089 19.6272 133.669C19.6272 139.248 24.1625 143.772 29.757 143.772Z" fill="white"/>
<path d="M29.757 138.787C32.5913 138.787 34.8888 136.495 34.8888 133.669C34.8888 130.842 32.5913 128.551 29.757 128.551C26.9228 128.551 24.6252 130.842 24.6252 133.669C24.6252 136.495 26.9228 138.787 29.757 138.787Z" fill="#F4B545"/>
<g style="mix-blend-mode:multiply" opacity="0.24">
<path d="M54.8776 135.768C54.8506 136.096 54.8164 136.422 54.7744 136.746L49.4818 135.755L44.5276 134.826L39.8848 133.956L34.8448 133.012L29.0278 131.924L29.209 130.96L34.597 131.97L39.8626 132.955L44.572 133.838L49.5604 134.772L54.8776 135.768Z" fill="#003889"/>
</g>
<g style="mix-blend-mode:multiply" opacity="0.24">
<path d="M51.0262 147.164C50.8498 147.441 50.6656 147.713 50.4772 147.983L45.7042 145.431L41.2204 143.031L36.9724 140.759L32.1652 138.19L30.8464 137.483L31.3096 136.618L33.082 137.567L37.6438 140.006L41.8258 142.241L46.2748 144.622L51.0256 147.164H51.0262Z" fill="#003889"/>
</g>
<path d="M66.1181 120.823L29.0279 131.925L28.7471 130.985L65.8373 119.883L66.5729 120.175L66.1181 120.823Z" fill="#15315E"/>
<path d="M65.7953 120.407L64.2809 119.326L61.9619 121.1L62.0867 121.517L62.2115 121.934L65.1239 122.143L65.7953 120.407Z" fill="#15315E"/>
<path d="M69.5291 139.108L30.8477 137.473L30.8891 136.494L69.5705 138.128L70.1711 138.645L69.5291 139.108Z" fill="#15315E"/>
<path d="M69.3592 138.61L68.2822 137.093L65.5102 138.012L65.4916 138.447L65.4736 138.882L68.158 140.031L69.3592 138.61Z" fill="#15315E"/>
<path d="M35.6171 180.258L56.9465 151.554L56.9231 150.763L56.1593 150.97L34.3955 180.258H35.6171Z" fill="#15315E"/>
<path d="M56.439 151.415L54.5784 151.453L53.781 154.262L54.1302 154.522L54.4794 154.781L56.9388 153.207L56.439 151.415Z" fill="#15315E"/>
<path d="M67.6026 166.297L37.8264 180.969H40.0452L68.0358 167.177L68.3766 166.462L67.6026 166.297Z" fill="#15315E"/>
<path d="M67.6482 166.821L65.9754 166.006L63.9834 168.142L64.1754 168.532L64.368 168.922L67.275 168.645L67.6482 166.821Z" fill="#15315E"/>
<path d="M78.8411 7.16357C78.4919 6.79037 77.9993 6.57677 77.4887 6.57677H77.4845L67.7153 6.59477L67.7063 1.66816C67.7051 1.08796 67.2347 0.618164 66.6545 0.618164H66.6527L44.3705 0.660165C43.7897 0.661365 43.3199 1.13296 43.3205 1.71376C43.3217 2.29456 43.7891 2.75476 44.3741 2.76376L65.6045 2.72417L65.6513 27.9278C65.6525 28.6796 65.6135 29.4302 65.5349 30.1598C65.2727 32.6408 64.5695 35.0306 63.4445 37.2644C62.9759 38.1974 62.4287 39.1052 61.8185 39.9638C61.1465 40.913 60.3881 41.8142 59.5643 42.6416C59.1023 43.1054 58.6043 43.5596 58.0823 43.9928C57.9617 44.0936 57.8393 44.1926 57.7175 44.2892C57.7103 44.2946 57.7031 44.3006 57.6959 44.306C56.9111 44.9258 56.0741 45.4946 55.2143 45.9932C55.0667 46.0772 54.9167 46.1618 54.7625 46.2464C54.4691 46.4084 54.1727 46.562 53.8751 46.7048L53.8475 46.7186C53.7737 46.7546 53.7005 46.79 53.6255 46.8254C53.4797 46.8944 53.3339 46.961 53.1869 47.0258C52.8695 47.1656 52.5335 47.3036 52.1849 47.4362C52.0061 47.5052 51.8273 47.57 51.6419 47.6342C51.3509 47.7368 51.0515 47.834 50.7287 47.93C50.5055 47.996 50.2811 48.0584 50.0609 48.1166C49.8953 48.1592 49.7285 48.2012 49.5605 48.2402C49.4357 48.269 49.3115 48.2972 49.1759 48.3254C48.8189 48.4028 48.4445 48.4724 48.0347 48.5372C46.9913 48.6986 45.9275 48.782 44.8721 48.7838C44.1359 48.7826 43.3997 48.7478 42.6755 48.6722C42.3905 48.6434 42.1013 48.6074 41.8169 48.5654C41.4167 48.506 41.0273 48.437 40.6559 48.3596C40.6499 48.3584 40.6439 48.3572 40.6379 48.356C39.9089 48.2054 39.1853 48.0134 38.4929 47.7878C38.3555 47.7422 38.2187 47.696 38.0825 47.6492C38.0735 47.6462 38.0645 47.6432 38.0555 47.6402C36.9215 47.2436 35.8121 46.7456 34.7531 46.1558C34.5473 46.043 34.3451 45.926 34.1465 45.8066C30.7667 43.7684 28.0397 40.838 26.2595 37.3322C25.2227 35.2922 24.5375 33.1142 24.2237 30.8594C24.2225 30.8516 24.2219 30.8432 24.2207 30.8354C24.2039 30.7184 24.1883 30.6014 24.1739 30.4922C24.1643 30.4148 24.1547 30.3368 24.1469 30.2582C24.1463 30.2504 24.1451 30.2426 24.1445 30.2348C24.1265 30.0776 24.1103 29.9186 24.0959 29.7596C24.0443 29.1728 24.0173 28.583 24.0161 28.0052L23.9693 2.80277L27.0809 2.79677C27.6617 2.79557 28.1315 2.32396 28.1303 1.74316C28.1291 1.16296 27.6587 0.693765 27.0785 0.693765H27.0767L22.9139 0.701565C22.3331 0.702765 21.8633 1.17436 21.8645 1.75516L21.8735 6.67997L12.4271 6.69797C11.8301 6.70037 11.2553 6.95296 10.8503 7.39156C10.4465 7.82836 10.2401 8.41937 10.2845 9.01217L10.3625 10.0646C10.3721 10.1978 10.6121 13.379 11.6471 17.6606C12.2081 19.9868 12.9059 22.2248 13.7213 24.3122C15.8051 29.6318 18.6143 33.8162 22.0691 36.7466C22.8461 37.4084 23.6711 38.0102 24.5219 38.5448C26.4821 42.2864 29.4275 45.4166 33.0623 47.609C33.2861 47.7434 33.5117 47.8736 33.7355 47.9966C34.9037 48.6464 36.1337 49.1984 37.3919 49.6358C37.4027 49.6394 37.4129 49.643 37.4237 49.646C37.5581 49.6922 37.6931 49.7378 37.8341 49.7846C38.3411 49.9502 38.8613 50.0966 39.3851 50.2262L39.4007 58.7342L36.2633 58.7414C35.6825 58.7426 35.2133 59.2142 35.2139 59.795L35.2199 63.563C35.2199 63.842 35.3315 64.109 35.5289 64.3064C35.7263 64.5032 35.9927 64.613 36.2711 64.613H36.2729L53.5355 64.5818C54.1163 64.5806 54.5861 64.109 54.5855 63.5282L54.5795 59.7602C54.5783 59.18 54.1079 58.7102 53.5277 58.7102H53.5259L50.4695 58.7144L50.4533 50.1854C50.5001 50.1734 50.5463 50.1632 50.5931 50.1506C50.8385 50.0858 51.0827 50.018 51.3269 49.9454C51.6857 49.8386 52.0175 49.7312 52.3373 49.6184C52.5389 49.5482 52.7393 49.4756 52.9367 49.4C53.3159 49.2554 53.6855 49.1036 54.0359 48.9494C54.1997 48.8774 54.3617 48.803 54.5225 48.7274C54.6041 48.689 54.6857 48.6494 54.7673 48.6098L54.7895 48.599C55.1189 48.4412 55.4525 48.269 55.7777 48.089C55.9397 48.0002 56.1005 47.9102 56.2643 47.816C57.2093 47.2676 58.1231 46.6472 58.9805 45.9716C58.9883 45.9662 58.9955 45.9602 59.0033 45.9542C59.1461 45.8414 59.2895 45.7256 59.4287 45.6092C59.9993 45.1358 60.5465 44.6366 61.0553 44.1254C61.9619 43.2146 62.7959 42.2234 63.5345 41.1806C64.1489 40.3166 64.7021 39.404 65.1875 38.4674C66.0329 37.9322 66.8555 37.3268 67.6331 36.6602C71.0783 33.7148 73.8713 29.5214 75.9347 24.1958C78.7493 16.9256 79.2353 10.0022 79.2401 9.93677L79.3361 8.55617C79.3715 8.04497 79.1909 7.53737 78.8411 7.16357ZM15.6791 23.5454C14.8985 21.5468 14.2295 19.4012 13.6901 17.1662C12.6953 13.0502 12.4679 10.0376 12.4583 9.90977L12.3797 8.85557C12.3797 8.84837 12.3779 8.83397 12.3929 8.81837C12.4091 8.80097 12.4271 8.80096 12.4319 8.80096L21.8759 8.78296L21.9119 28.0088C21.9131 28.6466 21.9425 29.2982 21.9995 29.9444C22.0145 30.1148 22.0319 30.2852 22.0511 30.4538L22.0523 30.4646C22.0625 30.56 22.0739 30.6536 22.0865 30.7568C22.1021 30.8774 22.1177 30.9962 22.1351 31.1156C22.1351 31.1204 22.1363 31.1252 22.1369 31.1306C22.3049 32.3456 22.5725 33.5402 22.9331 34.7066C19.9709 32.0252 17.5313 28.2752 15.6791 23.5466V23.5454ZM52.4771 60.815L52.4795 62.48L37.3205 62.5076L37.3175 60.8426L40.4555 60.8354C41.0363 60.8342 41.5061 60.3626 41.5049 59.7818L41.4881 50.6432C41.4953 50.6444 41.5019 50.6456 41.5085 50.6468C41.8247 50.6936 42.1457 50.7332 42.4595 50.7656C43.2413 50.8472 44.0399 50.888 44.8331 50.888H44.8757C46.0337 50.8856 47.2019 50.795 48.3509 50.6174L48.3677 59.7704C48.3689 60.3506 48.8393 60.8204 49.4195 60.8204H49.4213L52.4771 60.8162V60.815ZM77.1419 9.79397C77.1377 9.85997 76.6733 16.463 73.9739 23.4362C72.1397 28.1708 69.7145 31.9286 66.7601 34.6226C67.1813 33.2438 67.4741 31.8278 67.6271 30.3824C67.7135 29.579 67.7567 28.7516 67.7555 27.923L67.7195 8.69717L77.2193 8.67977L77.1419 9.79337V9.79397Z" fill="#ACC6E5"/>
<path d="M37.2216 25.7143C37.2348 25.7275 37.248 25.7401 37.2624 25.7521L38.1498 26.6281L37.1064 32.5303C37.0008 33.1141 37.233 33.6949 37.7118 34.0465C38.1912 34.3981 38.8158 34.4449 39.3372 34.1707L44.6598 31.4101L49.9554 34.2283C50.1846 34.3495 50.4336 34.4101 50.6808 34.4101C50.9976 34.4101 51.3126 34.3111 51.5826 34.1167C52.062 33.7711 52.299 33.1939 52.2012 32.6125L51.2184 26.6953L55.533 22.5343C55.959 22.1245 56.1132 21.5203 55.9344 20.9569C55.7556 20.3929 55.2804 19.9867 54.6924 19.8967L51.9282 19.4803C51.3552 19.3939 50.8182 19.7893 50.7318 20.3635C50.6454 20.9377 51.0408 21.4735 51.615 21.5599L53.2566 21.8071L49.545 25.3873C49.1784 25.7419 49.0104 26.2537 49.0956 26.7517L49.9404 31.8385L45.3936 29.4193C44.9376 29.1721 44.3934 29.1715 43.9518 29.4091L39.3738 31.7827L40.2708 26.7091C40.3626 26.1997 40.1964 25.6837 39.8364 25.3387L38.7006 24.2173C38.6874 24.2041 38.6736 24.1909 38.6592 24.1783L36.1626 21.7177L41.2776 21.0013C41.772 20.9287 42.2034 20.6203 42.4362 20.1655L44.7414 15.5503L45.882 17.8945C46.1364 18.4171 46.7652 18.6343 47.2878 18.3799C47.8098 18.1261 48.0276 17.4967 47.7732 16.9741L46.134 13.6051C45.873 13.0765 45.3438 12.7465 44.7534 12.7441H44.7474C44.16 12.7441 43.632 13.0693 43.3668 13.5961L40.6872 18.9601L34.7466 19.7917C34.161 19.8745 33.6816 20.2741 33.4956 20.8351C33.3102 21.3955 33.456 22.0021 33.8772 22.4185L37.2204 25.7143H37.2216Z" fill="#ACC6E5"/>
</svg>
