<svg width="400" height="271" viewBox="0 0 400 271" fill="none" xmlns="http://www.w3.org/2000/svg">
<path d="M253.29 263.539H353.768C368.472 250.051 377.686 230.723 377.686 209.25C377.686 168.484 344.484 135.436 303.529 135.436C262.574 135.436 229.373 168.484 229.373 209.25C229.373 230.723 238.587 250.051 253.29 263.539Z" fill="#ECF3FE"/>
<path d="M337.852 254.975L317.128 254.811L325.066 224.787L330.397 224.829L337.852 254.975Z" fill="#C4D7F2"/>
<path d="M338.917 257.687L316.018 257.504C315.271 257.498 314.67 256.891 314.677 256.148L314.686 254.87C314.693 254.127 315.303 253.529 316.049 253.535L338.949 253.718C339.695 253.724 340.297 254.331 340.29 255.074L340.28 256.351C340.274 257.095 339.664 257.693 338.917 257.687Z" fill="#C4D7F2"/>
<path d="M335.199 244.249C330.677 246.978 325.019 248.419 318.972 247.833L318.022 251.429C324.649 252.215 330.942 250.843 336.13 248.011L335.199 244.248V244.249Z" fill="white"/>
<path d="M334.214 240.262L333.297 236.553C329.749 238.441 325.594 239.562 321.148 239.603L320.175 243.284C325.248 243.414 330.048 242.295 334.214 240.262Z" fill="white"/>
<path d="M331.375 228.781C328.941 229.919 326.254 230.705 323.41 231.049L322.403 234.855C325.912 234.608 329.249 233.77 332.283 232.453L331.375 228.781Z" fill="white"/>
<path d="M289.03 168.651C289.03 205.076 275.332 238.311 252.783 263.54H38.3396C15.7898 238.311 2.08896 205.076 2.08896 168.651C2.08896 145.648 7.55347 123.911 17.2624 104.666C17.5364 104.117 17.8167 103.571 18.1015 103.027C26.9874 85.9635 39.2282 70.9118 53.9569 58.7382C54.6236 58.1837 55.2983 57.6381 55.9758 57.0997C80.5256 37.537 111.67 25.8418 145.559 25.8418C153.627 25.8418 161.539 26.5054 169.244 27.7807C169.793 27.8684 170.341 27.9641 170.89 28.0615C190.179 31.4806 208.131 38.739 223.927 49.0114C224.479 49.3664 225.027 49.7295 225.573 50.098C263.851 75.7422 289.029 119.269 289.029 168.651H289.03Z" fill="#ECF3FE"/>
<path d="M199.579 240.06H105.801V238.421H199.578C201.961 238.421 203.901 236.491 203.901 234.118V213.57H205.547V234.118C205.547 237.394 202.87 240.059 199.578 240.059L199.579 240.06Z" fill="white"/>
<path d="M118.206 57.0996H55.9766C55.2992 57.638 54.6244 58.1835 53.9578 58.738H118.207C120.585 58.738 122.519 60.6635 122.519 63.0335V98.7318C122.519 101.099 120.585 103.027 118.207 103.027H18.1015C17.8167 103.571 17.5364 104.117 17.2624 104.666H118.206C121.492 104.666 124.164 102.003 124.164 98.7318V63.0335C124.164 59.762 121.492 57.0996 118.206 57.0996Z" fill="white"/>
<path d="M364.124 166.044C364.21 166.163 364.308 166.273 364.416 166.379C365.054 166.992 366.029 167.311 367.269 167.358C371.522 167.517 378.863 164.469 386.146 159.196C395.907 152.128 401.871 143.732 399.467 140.446C397.066 137.16 387.205 140.224 377.447 147.295C374.88 149.155 372.576 151.105 370.617 153.029C368.907 154.71 367.461 156.371 366.336 157.935C363.843 161.392 362.904 164.376 364.124 166.045V166.044Z" fill="#33DA82"/>
<path d="M341.795 162.901C345.876 170.634 350.946 176.493 354.799 178.387C355.712 178.836 356.559 179.063 357.305 179.038C357.74 179.025 358.144 178.925 358.506 178.736C360.542 177.672 360.916 173.983 359.852 169.062V169.059C359.531 167.584 359.083 166.001 358.509 164.34V164.337C357.601 161.711 356.386 158.899 354.885 156.055C349.27 145.418 341.787 138.328 338.172 140.219C334.559 142.111 336.18 152.264 341.796 162.901H341.795Z" fill="#33DA82"/>
<path d="M357.787 194.082C358.102 194.578 358.578 194.953 359.197 195.21C359.977 195.54 360.979 195.684 362.161 195.651C366.531 195.541 373.34 193.051 380.228 188.744C390.448 182.354 396.972 174.384 394.802 170.941C392.63 167.5 382.582 169.89 372.361 176.281C369.305 178.191 366.581 180.24 364.319 182.27C362.89 183.554 361.648 184.827 360.623 186.05C357.843 189.369 356.673 192.319 357.787 194.083V194.082Z" fill="#33DA82"/>
<path d="M370.617 153.029C369.628 156.958 368.464 161.816 367.269 167.359C366.029 167.311 365.054 166.993 364.416 166.38C363.14 172.244 361.823 178.896 360.622 186.05C361.647 184.827 362.889 183.554 364.318 182.27C364.237 182.716 364.156 183.165 364.078 183.615C363.418 187.367 362.766 191.404 362.159 195.652C360.978 195.685 359.975 195.541 359.195 195.211C356.206 216.021 354.609 239.759 357.799 260.385H343.799C344.856 251.096 349.637 211.263 357.303 179.038C356.556 179.063 355.71 178.836 354.796 178.387C355.966 173.496 357.203 168.771 358.507 164.34C359.081 166.001 359.529 167.584 359.849 169.06C363.039 157.42 366.643 147.518 370.618 141.543C370.562 141.734 368.702 147.962 366.334 157.935C367.46 156.371 368.906 154.71 370.615 153.03L370.617 153.029Z" fill="#1DB562"/>
<path d="M364.417 166.38C363.141 172.245 361.824 178.897 360.623 186.05C360.124 189.026 359.642 192.084 359.197 195.212C356.208 216.021 354.611 239.76 357.801 260.386H343.801C344.858 251.097 349.639 211.264 357.305 179.039C358.12 175.612 358.968 172.271 359.851 169.063V169.06C363.04 157.42 366.645 147.518 370.62 141.543C370.564 141.734 368.704 147.962 366.336 157.935C365.723 160.511 365.074 163.342 364.417 166.381V166.38Z" fill="#33DA82"/>
<path d="M73.9677 113.976C73.69 110.219 73.549 108.32 73.2713 104.567L78.4636 99.1561C76.6631 95.5942 74.8595 92.0267 73.053 88.4536L65.5966 89.3864L62.8257 87.0083L58.416 83.2235L58.2462 75.7397C54.4439 74.4888 50.6349 73.237 46.8194 71.9844L42.2076 77.8924C39.8706 78.0632 38.2525 78.1821 36.4609 78.3163C36.4286 78.3198 36.3971 78.319 36.3648 78.3225C35.2884 78.403 34.1483 78.4871 32.7502 78.589L27.3154 73.4171C26.6604 73.7435 26.0863 74.0342 25.5732 74.2935C25.1114 74.5207 24.7008 74.7273 24.3244 74.9151C21.6577 76.2495 20.6981 76.7351 16.5678 78.8037L17.505 86.2258V86.2293L15.3486 88.7165L11.3127 93.3733L7.72868 93.4547L4.78258 93.52L3.79426 93.5423C2.5376 97.3272 1.28004 101.119 0.0215759 104.917L5.95689 109.507C6.23361 113.264 6.37557 115.163 6.6532 118.92L1.46093 124.331C3.26147 127.893 5.06411 131.459 6.86884 135.029L14.3289 134.097L21.5094 140.26L21.6784 147.744C25.4807 148.994 29.2896 150.246 33.1051 151.499L37.717 145.591C41.4915 145.315 43.3989 145.174 47.1698 144.898L52.6092 150.067C53.0755 149.833 53.5041 149.616 53.8976 149.423C58.0198 147.357 58.4564 147.138 63.3567 144.685L62.4205 137.259L68.6119 130.112L76.1303 129.943C76.5768 128.598 76.9137 127.574 77.1995 126.717C77.8607 124.731 78.2201 123.634 78.9039 121.58C79.1752 120.768 79.4924 119.8 79.903 118.569L73.9677 113.979V113.976ZM51.7341 121.853C46.1276 128.324 36.31 129.045 29.805 123.463C23.3046 117.879 22.5804 108.106 28.1905 101.635C33.797 95.1602 43.6155 94.4394 50.1159 100.024C56.6209 105.604 57.345 115.378 51.7341 121.853Z" fill="#C4D7F2"/>
<path d="M330.83 106.9C330.553 103.143 330.412 101.244 330.134 97.4906L335.326 92.0799C333.526 88.5181 331.722 84.9506 329.916 81.3774L322.459 82.3102L319.688 79.9322L315.279 76.1473L315.109 68.6635C311.306 67.4126 307.497 66.1609 303.682 64.9082L299.07 70.8162C296.733 70.987 295.115 71.1059 293.323 71.2401C293.291 71.2437 293.26 71.2428 293.227 71.2464C292.151 71.3269 291.011 71.4109 289.613 71.5129L284.178 66.3409C283.523 66.6674 282.95 66.958 282.436 67.2174C281.974 67.4445 281.563 67.6511 281.187 67.8389C278.52 69.1733 277.561 69.6589 273.43 71.7275L274.367 79.1496V79.1532L272.211 81.6403L268.175 86.2971L264.591 86.3785L261.645 86.4438L260.657 86.4662C259.4 90.251 258.143 94.0424 256.884 97.8403L262.819 102.431C263.096 106.188 263.238 108.087 263.516 111.844L258.323 117.255C260.124 120.816 261.927 124.382 263.731 127.953L271.191 127.021L278.372 133.184L278.541 140.667C282.343 141.918 286.152 143.17 289.968 144.423L294.58 138.515C298.354 138.238 300.261 138.098 304.032 137.822L309.472 142.991C309.938 142.757 310.367 142.54 310.76 142.347C314.882 140.281 315.319 140.062 320.219 137.609L319.283 130.183L325.474 123.036L332.993 122.867C333.439 121.521 333.776 120.497 334.062 119.641C334.723 117.654 335.083 116.558 335.766 114.504C336.038 113.692 336.355 112.724 336.766 111.493L330.83 106.903V106.9ZM308.597 114.776C302.99 121.248 293.173 121.969 286.668 116.387C280.167 110.803 279.443 101.03 285.053 94.559C290.659 88.084 300.478 87.3632 306.978 92.9474C313.483 98.5281 314.208 108.301 308.597 114.776Z" fill="#C4D7F2"/>
<path d="M196.44 270.426C300.908 270.426 385.597 266.69 385.597 262.081C385.597 257.473 300.908 253.736 196.44 253.736C91.9721 253.736 7.28394 257.473 7.28394 262.081C7.28394 266.69 91.9721 270.426 196.44 270.426Z" fill="#D7E4F9"/>
<g style="mix-blend-mode:multiply" opacity="0.18">
<path d="M322.484 203.984H145.748C142.607 203.984 139.732 201.449 139.326 198.323L126.084 96.42C125.677 93.2934 127.894 90.7598 131.035 90.7598H307.771C310.912 90.7598 313.787 93.2943 314.193 96.42L327.436 198.323C327.842 201.45 325.625 203.984 322.484 203.984Z" fill="#003889"/>
</g>
<path d="M275.639 212.918H220.463V256.377H275.639V212.918Z" fill="#1B63D4"/>
<path d="M289.031 253.949H208.677V258.804H289.031V253.949Z" fill="#1B63D4"/>
<path d="M275.638 212.918V236.659L220.463 228.441V212.918H275.638Z" fill="#004DA0"/>
<path d="M347.22 87.0664H149.094C146.217 87.0664 143.884 89.3884 143.884 92.2527V216.938C143.884 219.803 146.217 222.125 149.094 222.125H347.22C350.098 222.125 352.43 219.803 352.43 216.938V92.2527C352.43 89.3884 350.098 87.0664 347.22 87.0664Z" fill="#1B63D4"/>
<path d="M339.693 208.846H156.622C154.528 208.846 152.825 207.15 152.825 205.067V99.2873C152.825 97.2035 154.528 95.5078 156.622 95.5078H339.693C341.786 95.5078 343.49 97.2035 343.49 99.2873V205.067C343.49 207.15 341.786 208.846 339.693 208.846ZM156.622 96.6642C155.169 96.6642 153.987 97.8411 153.987 99.2873V205.067C153.987 206.513 155.169 207.69 156.622 207.69H339.693C341.146 207.69 342.328 206.513 342.328 205.067V99.2873C342.328 97.8411 341.146 96.6642 339.693 96.6642H156.622Z" fill="white"/>
<path d="M255.241 213.572H241.074C239.92 213.572 238.984 214.504 238.984 215.652V215.653C238.984 216.802 239.92 217.734 241.074 217.734H255.241C256.395 217.734 257.331 216.802 257.331 215.653V215.652C257.331 214.504 256.395 213.572 255.241 213.572Z" fill="white"/>
<g style="mix-blend-mode:multiply" opacity="0.18">
<path d="M327.871 204.144L151.205 199.166C148.066 199.077 145.592 196.472 145.681 193.347L148.578 91.4851C148.667 88.3603 151.284 85.8982 154.423 85.9867L331.089 90.9646C334.228 91.0531 336.702 93.6583 336.613 96.7831L333.716 198.645C333.627 201.77 331.01 204.232 327.871 204.144Z" fill="#003889"/>
</g>
<path d="M318.289 82.6152H141.553C138.412 82.6152 135.866 85.1494 135.866 88.2755V190.18C135.866 193.306 138.412 195.84 141.553 195.84H318.289C321.43 195.84 323.976 193.306 323.976 190.18V88.2755C323.976 85.1494 321.43 82.6152 318.289 82.6152Z" fill="white"/>
<path d="M253.904 129C253.329 126.376 253.037 125.05 252.462 122.429L255.58 118.09C253.95 115.756 252.317 113.418 250.68 111.077L245.511 112.481L243.315 111.079L239.82 108.849L238.945 103.584C236.135 103.081 233.32 102.579 230.5 102.076L227.842 106.708C226.209 107.062 225.079 107.308 223.828 107.582C223.806 107.587 223.783 107.59 223.761 107.596C223.009 107.761 222.213 107.934 221.237 108.146L216.879 105.039C216.449 105.335 216.074 105.597 215.737 105.832C215.434 106.039 215.164 106.226 214.918 106.397C213.171 107.606 212.543 108.044 209.836 109.917L211.247 115.062V115.065L209.977 117.036L207.598 120.727L205.077 121.143L203.005 121.483L202.309 121.598C201.804 124.395 201.299 127.197 200.794 130.004L205.447 132.65C206.022 135.274 206.314 136.6 206.89 139.225L203.771 143.564C205.401 145.898 207.034 148.234 208.668 150.573L213.839 149.169L219.53 152.801L220.405 158.066C223.216 158.569 226.031 159.071 228.85 159.574L231.509 154.942C234.145 154.37 235.477 154.079 238.111 153.507L242.472 156.611C242.777 156.399 243.058 156.203 243.316 156.028C246.017 154.158 246.304 153.959 249.515 151.737L248.104 146.589L251.753 140.924L257.042 140.053C257.222 139.06 257.357 138.303 257.472 137.669C257.739 136.2 257.881 135.391 258.156 133.872C258.266 133.272 258.392 132.558 258.557 131.647L253.904 129.001V129ZM239.005 136.784C235.702 141.912 228.844 143.403 223.689 140.114C218.536 136.823 217.039 129.996 220.346 124.868C223.65 119.737 230.508 118.246 235.659 121.538C240.815 124.826 242.313 131.653 239.005 136.784Z" fill="#ECF3FE"/>
<path d="M256.965 152.755C256.707 151.579 256.577 150.986 256.319 149.811L257.716 147.868C256.986 146.823 256.254 145.776 255.521 144.727L253.206 145.356L252.222 144.728L250.657 143.729L250.265 141.371C249.007 141.145 247.746 140.92 246.483 140.695L245.292 142.77C244.561 142.929 244.055 143.039 243.494 143.162C243.484 143.165 243.474 143.165 243.464 143.168C243.127 143.242 242.77 143.319 242.333 143.414L240.381 142.022C240.189 142.155 240.021 142.273 239.87 142.378C239.734 142.47 239.614 142.554 239.503 142.63C238.721 143.171 238.439 143.368 237.226 144.206L237.858 146.511L237.289 147.396L236.224 149.048L235.094 149.234L234.166 149.387L233.854 149.438C233.628 150.691 233.402 151.946 233.176 153.203L235.261 154.388C235.518 155.564 235.649 156.157 235.907 157.334L234.509 159.277C235.24 160.322 235.971 161.369 236.703 162.417L239.019 161.788L241.568 163.415L241.96 165.773C243.218 165.999 244.479 166.224 245.742 166.449L246.933 164.374C248.113 164.117 248.71 163.987 249.89 163.731L251.843 165.121C251.979 165.027 252.105 164.939 252.221 164.86C253.43 164.022 253.559 163.934 254.997 162.938L254.366 160.633L256 158.095L258.369 157.706C258.449 157.26 258.51 156.921 258.562 156.638C258.681 155.98 258.745 155.617 258.868 154.937C258.917 154.668 258.973 154.347 259.048 153.94L256.963 152.755H256.965ZM250.292 156.241C248.812 158.537 245.74 159.205 243.432 157.732C241.125 156.259 240.454 153.201 241.934 150.904C243.414 148.606 246.486 147.939 248.793 149.412C251.102 150.885 251.774 153.943 250.292 156.242V156.241Z" fill="#C4D7F2"/>
<path d="M284.837 180.27H175.005V184.941H284.837V180.27Z" fill="#ECF3FE"/>
<path d="M260.416 180.27H175.005V184.941H260.416V180.27Z" fill="#33DA82"/>
<path d="M30.3513 249.571C32.6379 249.735 34.354 251.715 34.1797 253.99L33.5768 261.972C37.1842 260.666 39.8554 257.362 40.168 253.314C40.3046 251.47 39.9272 249.706 39.1581 248.154C38.3801 246.601 37.221 245.263 35.7808 244.289L37.2794 224.312L39.1555 199.213L39.1716 199.008C42.3082 197.513 44.5714 194.449 44.8527 190.732C45.0413 188.192 44.2516 185.805 42.8059 183.938C42.3495 183.333 41.8284 182.78 41.2372 182.299C40.7484 181.885 40.1968 181.514 39.6307 181.199L39.0369 189.183C38.8688 191.469 36.8823 193.168 34.5948 193.003C32.31 192.83 30.5822 190.856 30.7601 188.573L31.354 180.588C27.7619 181.908 25.0872 185.19 24.7817 189.25C24.6891 190.496 24.8257 191.714 25.1761 192.851C25.3378 193.396 25.5436 193.922 25.7799 194.417C26.5607 195.962 27.7224 197.29 29.1698 198.276L27.7574 217.066L25.797 243.272L25.779 243.557C25.7574 243.562 25.7431 243.578 25.7224 243.581C22.611 245.093 20.3711 248.144 20.089 251.83C19.9434 253.852 20.407 255.78 21.3307 257.424C21.3354 257.432 21.3399 257.439 21.3441 257.447C21.3846 257.519 21.4259 257.589 21.469 257.652C22.398 259.206 23.7134 260.487 25.3109 261.364L25.9138 253.382C26.0791 251.105 28.0656 249.407 30.3531 249.572L30.3513 249.571Z" fill="white"/>
<path d="M27.9605 249.491C30.2417 249.726 31.8949 251.758 31.6496 254.026L30.7979 261.985C34.4448 260.791 37.2165 257.573 37.655 253.536C37.8491 251.696 37.5265 249.921 36.806 248.347C36.0773 246.77 34.9596 245.397 33.5499 244.378L35.6703 224.457L38.3271 199.428L38.3495 199.223C41.5319 197.827 43.8886 194.833 44.2857 191.127C44.5535 188.593 43.8383 186.182 42.4511 184.273C42.0135 183.654 41.5104 183.085 40.9335 182.585C40.4582 182.156 39.9183 181.769 39.3621 181.436L38.5202 189.398C38.2812 191.678 36.2426 193.315 33.9614 193.079C31.6838 192.835 30.0171 190.81 30.266 188.533L31.1078 180.57C27.4771 181.779 24.7008 184.978 24.2687 189.026C24.1375 190.268 24.2363 191.49 24.5508 192.638C24.6954 193.187 24.885 193.72 25.1051 194.221C25.8374 195.789 26.9569 197.153 28.3729 198.183L26.3756 216.921L23.6002 243.054L23.5732 243.338C23.5517 243.342 23.5373 243.357 23.5157 243.361C20.3585 244.776 18.0252 247.756 17.6281 251.431C17.4196 253.448 17.823 255.39 18.6954 257.061C18.6996 257.069 18.7038 257.077 18.708 257.085C18.7466 257.158 18.7853 257.23 18.8266 257.294C19.7062 258.877 20.9821 260.197 22.5517 261.122L23.4034 253.163C23.6397 250.892 25.6784 249.255 27.9596 249.491H27.9605Z" fill="#C4D7F2"/>
<g style="mix-blend-mode:multiply" opacity="0.18">
<path d="M195.405 258.584H193.994L191.385 253.78L189.662 250.605L187.836 247.24L186.137 244.11L184.26 240.653L183.093 238.505L180.767 234.221H175.435L175.104 239.526L174.904 242.749L174.653 246.771L174.459 249.889L174.219 253.744L174.03 256.79L173.918 258.584H172.507C171.76 258.584 171.277 259.094 171.428 259.723L171.687 260.802C171.838 261.431 172.566 261.94 173.314 261.94H196.213C196.96 261.94 197.443 261.43 197.292 260.802L197.032 259.723C196.881 259.094 196.154 258.584 195.406 258.584H195.405Z" fill="#003889"/>
</g>
<path d="M196.123 259.239H175.398L183.094 229.152H188.427L196.123 259.239Z" fill="#F4B545"/>
<path d="M174.31 257.971H197.21C197.957 257.971 198.562 258.573 198.562 259.317V260.594C198.562 261.337 197.957 261.94 197.21 261.94H174.311C173.564 261.94 172.959 261.337 172.959 260.594V259.317C172.959 258.573 173.564 257.971 174.311 257.971H174.31Z" fill="#E59D29"/>
<path d="M193.385 248.533C188.884 251.298 183.238 252.784 177.187 252.246L176.265 255.85C182.898 256.583 189.18 255.161 194.345 252.289L193.385 248.533Z" fill="white"/>
<path d="M192.367 244.552L191.42 240.85C187.888 242.766 183.741 243.921 179.297 243.997L178.353 247.684C183.427 247.774 188.217 246.617 192.367 244.551V244.552Z" fill="white"/>
<path d="M189.436 233.097C187.011 234.254 184.332 235.061 181.489 235.428L180.513 239.241C184.02 238.965 187.35 238.101 190.373 236.761L189.436 233.096V233.097Z" fill="white"/>
<g style="mix-blend-mode:multiply" opacity="0.18">
<path d="M321.726 259.746L317.217 256.348L314.477 254.284L311.058 251.708L308.409 249.711L305.132 247.242L302.544 245.291L301.019 244.142L301.81 242.934C302.228 242.294 302.048 241.583 301.407 241.343L300.306 240.931C299.666 240.691 298.807 241.015 298.388 241.654L285.559 261.25C285.14 261.889 285.321 262.601 285.961 262.841L287.062 263.253C287.703 263.493 288.562 263.169 288.98 262.53L289.771 261.321L295.483 261.911L299.258 262.3L303.258 262.712L306.979 263.096L311.09 263.52L314.018 263.822L318.738 264.309L321.725 259.746H321.726Z" fill="#003889"/>
</g>
<path d="M286.795 261.667L294.075 242.352L319.67 260.093L317.797 265.062L286.795 261.667Z" fill="#F4B545"/>
<path d="M283.871 261.729L291.915 240.388C292.177 239.692 292.957 239.339 293.656 239.6L294.857 240.049C295.556 240.31 295.911 241.086 295.649 241.782L287.605 263.123C287.342 263.819 286.562 264.173 285.863 263.911L284.662 263.462C283.963 263.201 283.608 262.425 283.872 261.729H283.871Z" fill="#E59D29"/>
<path d="M297.826 262.875C296.807 257.709 297.392 251.926 300.022 246.475L296.958 244.35C293.938 250.275 293.069 256.628 293.956 262.451L297.826 262.875Z" fill="white"/>
<path d="M301.926 263.324L305.742 263.742C305.18 259.777 305.551 255.507 307.04 251.338L303.903 249.164C302.036 253.86 301.441 258.732 301.927 263.325L301.926 263.324Z" fill="white"/>
<path d="M313.732 264.616C313.496 261.949 313.677 259.169 314.331 256.391L311.087 254.143C310.114 257.507 309.757 260.914 309.956 264.202L313.732 264.615V264.616Z" fill="white"/>
<path d="M122.689 238.171L99.7053 131.468C99.266 129.428 98.1734 127.691 96.6945 126.42H96.6918C94.5625 124.591 91.6271 123.738 88.6784 124.368L33.7529 136.09C29.9075 136.911 27.124 140.022 26.5337 143.678C26.4897 143.94 26.4591 144.205 26.4385 144.472C26.3774 145.322 26.4331 146.193 26.6209 147.066L49.6047 253.769C50.5678 258.242 54.6721 261.273 59.124 261.064C59.6227 261.041 60.1267 260.977 60.6316 260.869L115.557 249.147C120.554 248.08 123.761 243.146 122.69 238.172L122.689 238.171Z" fill="#1B63D4"/>
<path d="M116.95 136.643L129.294 245.078C129.87 250.134 126.191 254.73 121.112 255.303L65.2956 261.599C64.7826 261.657 64.2749 261.671 63.7763 261.645C59.3253 261.417 55.5409 258 55.0234 253.455L42.6793 145.02C42.5786 144.134 42.6092 143.262 42.7538 142.422C42.8005 142.158 42.8581 141.897 42.9272 141.641C43.876 138.061 46.9524 135.236 50.8607 134.795L106.677 128.499C109.674 128.16 112.511 129.296 114.449 131.326H114.452C115.798 132.734 116.714 134.57 116.95 136.642V136.643Z" fill="white"/>
<path d="M98.0584 141.333L62.1464 145.384C61.1752 145.493 60.2983 144.798 60.1887 143.831C60.0782 142.864 60.7772 141.991 61.7484 141.882L97.6604 137.832C98.6316 137.722 99.5085 138.418 99.6181 139.384C99.7287 140.351 99.0296 141.224 98.0584 141.333Z" fill="#1B63D4"/>
<path d="M105.798 184.047C105.048 181.851 104.668 180.74 103.918 178.546L106.172 174.52C104.544 172.675 102.914 170.826 101.28 168.974L96.9803 170.68L94.9587 169.69L91.7413 168.113L90.4753 163.678C88.0141 163.519 85.5487 163.36 83.0791 163.201L81.2498 167.434C79.8832 167.896 78.9371 168.217 77.8904 168.573C77.8715 168.58 77.8527 168.584 77.8338 168.591C77.2049 168.805 76.5382 169.031 75.7206 169.308L71.6757 167.063C71.3361 167.359 71.0396 167.62 70.7736 167.854C70.5337 168.061 70.3208 168.248 70.1258 168.418C68.744 169.624 68.248 170.062 66.1078 171.932L67.8212 176.212V176.215L66.9237 178.029L65.2426 181.428L63.1186 182.029L61.3729 182.522L60.7871 182.687C60.6272 185.137 60.4675 187.591 60.3082 190.049L64.5607 191.87C65.3109 194.067 65.6909 195.177 66.4403 197.374L64.1869 201.4C65.8143 203.245 67.4439 205.093 69.0755 206.943L73.3774 205.237L78.6173 207.803L79.8832 212.239C82.3444 212.398 84.8099 212.557 87.2795 212.715L89.1087 208.482C91.3154 207.736 92.4313 207.357 94.6361 206.611L98.6829 208.853C98.9245 208.641 99.1465 208.447 99.3504 208.271C101.486 206.404 101.713 206.206 104.252 203.988L102.537 199.706L105.116 194.49L109.571 193.23C109.628 192.36 109.67 191.697 109.707 191.142C109.792 189.856 109.836 189.147 109.924 187.817C109.959 187.291 109.997 186.665 110.05 185.868L105.798 184.047ZM93.77 192.17C91.4349 196.893 85.6945 198.836 80.9479 196.512C76.204 194.186 74.2507 188.472 76.5885 183.749C78.9228 179.025 84.664 177.081 89.4079 179.407C94.1546 181.731 96.1069 187.446 93.77 192.17Z" fill="#ECF3FE"/>
<path d="M110.747 204.141C110.411 203.157 110.241 202.66 109.905 201.677L110.914 199.874C110.185 199.047 109.455 198.22 108.723 197.39L106.798 198.154L105.892 197.71L104.451 197.005L103.884 195.018C102.781 194.947 101.677 194.876 100.571 194.805L99.752 196.701C99.1402 196.908 98.7161 197.051 98.2471 197.21C98.239 197.213 98.23 197.216 98.2219 197.218C97.9398 197.314 97.6415 197.415 97.2758 197.54L95.4645 196.534C95.3127 196.667 95.1797 196.784 95.0602 196.888C94.9524 196.981 94.8572 197.065 94.77 197.141C94.151 197.681 93.929 197.877 92.9704 198.715L93.7377 200.631L93.3351 201.445L92.5822 202.967L91.6307 203.236L90.8491 203.457L90.5867 203.532C90.5148 204.629 90.4433 205.728 90.372 206.829L92.2767 207.645C92.6128 208.628 92.7826 209.126 93.1186 210.109L92.1096 211.912C92.8386 212.739 93.5685 213.566 94.2992 214.395L96.2264 213.631L98.5732 214.781L99.1402 216.767C100.243 216.838 101.347 216.91 102.453 216.981L103.272 215.085C104.261 214.75 104.76 214.581 105.748 214.247L107.56 215.251C107.668 215.156 107.767 215.069 107.859 214.99C108.816 214.154 108.916 214.065 110.054 213.071L109.287 211.153L110.441 208.817L112.437 208.253C112.462 207.863 112.481 207.566 112.497 207.317C112.535 206.741 112.554 206.424 112.594 205.828C112.61 205.593 112.627 205.312 112.651 204.955L110.746 204.14L110.747 204.141ZM105.359 207.779C104.314 209.894 101.742 210.764 99.6164 209.723C97.4915 208.681 96.6173 206.122 97.664 204.007C98.7098 201.891 101.281 201.02 103.406 202.062C105.532 203.103 106.406 205.663 105.359 207.779Z" fill="#C4D7F2"/>
<path d="M118.354 227.803L61.756 234.182L62.284 238.823L118.882 232.444L118.354 227.803Z" fill="#ECF3FE"/>
<path d="M105.769 229.219L61.7551 234.18L62.283 238.821L106.296 233.861L105.769 229.219Z" fill="#33DA82"/>
<g style="mix-blend-mode:multiply" opacity="0.18">
<path d="M149.864 159.669C148.858 158.775 148.305 158.711 148.305 158.711C148.305 158.711 140 143.714 131.503 139.798C131.185 139.525 130.867 139.284 130.552 139.091C130.329 138.027 130.183 136.878 130.172 135.7C132.201 133.517 132.662 129.274 131.498 124.966C131.385 124.547 131.258 124.142 131.121 123.747C133.493 123.196 135.244 121.368 135.356 119.017C135.501 115.959 132.819 113.176 129.363 112.802C127.177 112.565 125.207 113.349 124.016 114.732C123.419 114.443 122.75 114.301 122.062 114.356C120.366 114.491 119.072 115.76 118.776 117.392C117.474 117.548 116.15 118.525 115.384 120.057C114.628 121.567 114.609 123.223 115.208 124.416C115.146 124.455 115.084 124.499 115.024 124.548C113.338 125.942 115.655 130.213 118.373 130.463C118.611 131.008 118.878 131.528 119.168 132.022L118.022 137.699L118.003 137.703L111.464 138.597L112.192 139.696C111.753 139.914 111.306 140.154 110.862 140.417C108.124 142.029 105.397 144.518 104.306 148.276C101.789 156.938 107.223 166.109 106.975 167.162C106.75 168.113 107.114 169.764 107.493 170.22C107.534 170.268 107.575 170.304 107.615 170.323C107.929 170.468 108.435 170.574 108.72 171.662C108.777 171.882 108.826 172.137 108.862 172.445C108.884 172.652 108.903 172.88 108.914 173.133C109.031 175.63 111.674 175.903 111.674 175.903L111.688 177.421L111.702 179.025L111.736 181.629C110.755 181.728 110.083 181.795 109.988 181.801L108.866 184.748L111.748 184.572L111.782 185.111L112.699 254.405C112.191 256.154 112.152 257.364 111.334 258.553C111.207 258.739 111.084 258.934 110.984 259.137C110.361 260.383 110.574 261.827 115.929 261.807C122.087 261.78 124.66 262.037 123.419 259.73C123.401 259.699 123.384 259.668 123.366 259.635C122.2 257.577 121.928 256.691 121.846 255.03L127.665 209.775L130.902 241.351L131.436 254.352C129.88 254.354 130.81 257.102 130.855 258.241C130.864 258.472 130.886 258.694 130.919 258.9C131.096 259.99 131.633 260.735 132.701 260.866C133.971 261.018 151.438 261.377 152.051 260.553C152.251 260.29 152.291 259.87 152.192 259.405C151.986 258.434 151.148 257.274 149.799 256.978C149.261 256.859 148.386 256.435 147.368 255.85C144.631 254.278 142.376 251.94 141.447 251.002C141.396 250.951 141.341 250.91 141.284 250.873C142.706 224.447 142.313 201.484 141.591 186.583L141.588 186.516C141.561 185.957 141.533 185.408 141.505 184.872L141.499 184.739L143.228 185.032L141.835 181.843L141.331 181.757C141.118 178.197 140.892 175.283 140.686 173.11C140.576 171.945 140.473 170.995 140.377 170.271C140.328 169.88 140.281 169.538 140.238 169.238L144.605 171.792C147.177 173.497 149.726 173.749 151.492 172.403C151.987 172.026 152.42 171.524 152.775 170.893C153.089 170.34 153.343 169.686 153.521 168.93C154.64 164.247 149.858 159.669 149.858 159.669H149.864Z" fill="#003889"/>
</g>
<path d="M125.827 137.699C125.827 137.699 128.837 152.963 135.573 152.02C142.31 151.076 142.12 148.203 142.12 148.203C142.12 148.203 139.226 143.355 138.664 141.077C138.259 139.446 137.96 137.439 138.119 135.355L129.876 131.383L127.766 130.365L125.827 137.699H125.827Z" fill="#FDC8AA"/>
<path d="M129.58 134.313C132.146 140.369 136.805 141.059 138.664 141.078C138.259 139.448 137.96 137.44 138.119 135.357L129.876 131.385C129.1 131.77 128.881 132.664 129.579 134.313H129.58Z" fill="#EFA37D"/>
<path d="M159.382 168.93C159.156 169.686 158.862 170.34 158.513 170.894C156.71 173.778 153.444 173.974 150.287 171.793L150.211 170.513L150.076 168.255L148.597 168.069L145.947 167.736C145.947 167.736 145.987 168.118 146.049 168.88C146.081 169.252 146.117 169.716 146.153 170.272C146.203 170.996 146.247 171.947 146.285 173.112C146.655 184.545 146.268 216.5 141.515 255.151L131.931 255.719L132.238 241.351L130.972 209.775L122.196 255.719H113.155L116.929 179.026L117.095 175.904C117.095 175.904 114.469 175.631 114.508 173.133C114.512 172.88 114.508 172.652 114.499 172.446C114.398 170.611 113.749 170.498 113.384 170.323C113.344 170.304 113.305 170.268 113.268 170.22C112.916 169.764 112.656 168.113 112.94 167.162C113.253 166.109 108.393 156.938 111.45 148.276C112.777 144.517 115.659 142.029 118.497 140.417C118.958 140.155 119.419 139.915 119.872 139.697C120.46 139.415 121.033 139.168 121.579 138.956C123.841 138.068 125.61 137.74 125.808 137.704L125.828 137.701V137.703C125.889 137.847 129.852 147.046 138.472 149.681C138.472 149.681 138.473 149.68 138.474 149.679V149.677C138.509 149.539 140.115 143.259 138.804 139.63C147.206 143.259 154.799 158.712 154.799 158.712C154.799 158.712 155.348 158.776 156.297 159.671C156.297 159.671 160.793 164.249 159.382 168.931V168.93Z" fill="#F4B545"/>
<path d="M145.56 167.238C145.56 167.238 126.235 180.366 116.928 179.024L117.096 175.902C117.096 175.902 120.214 175.948 121.291 175.49C122.37 175.031 143.156 166.02 143.156 166.02L145.561 167.237L145.56 167.238Z" fill="#E59D29"/>
<path d="M151.773 156.568C151.773 156.568 152.748 160.14 150.318 160.497C147.888 160.854 147.234 159.657 147.234 159.657L151.773 156.568Z" fill="#E59D29"/>
<path d="M124.728 160.552L123.342 156.572L129.353 161.567L124.728 160.552Z" fill="#E59D29"/>
<path d="M150.027 159.937L144.916 165.208L143.4 166.772C143.4 166.772 142.472 167.407 140.927 168.343C136.687 170.911 127.792 175.738 120.633 175.902C120.069 175.914 119.517 175.899 118.978 175.85C118.978 175.85 117.822 172.618 126.031 164.538C126.032 164.536 126.033 164.534 126.033 164.534L134.615 162.821L135.285 162.687L137.102 161.489L141.868 158.347L142.308 158.056C142.308 158.056 142.506 157.799 142.846 157.403C144.376 155.62 148.771 151.033 150.888 154.481C153.475 158.695 150.027 159.937 150.027 159.937Z" fill="#FDC8AA"/>
<path d="M121.098 165.996C121.098 165.996 115.722 169.467 114.498 172.445C114.399 170.609 113.75 170.497 113.385 170.321C113.345 170.303 113.306 170.267 113.269 170.219C113.273 170.214 113.275 170.211 113.275 170.211C113.275 170.211 118.049 167.969 120.609 165.777L121.099 165.995L121.098 165.996Z" fill="#E59D29"/>
<path d="M150.027 159.936L144.42 160.497L141.868 158.345L142.308 158.054C142.308 158.054 142.506 157.797 142.846 157.4L150.027 159.935V159.936Z" fill="#EFA37D"/>
<path d="M134.084 195.049L132.24 241.349L130.975 209.772C130.948 208.784 134.084 195.049 134.084 195.049H134.084Z" fill="#E59D29"/>
<path d="M126.004 128.298C127.19 134.004 131.462 137.948 135.544 137.108C139.627 136.267 141.285 130.671 140.098 124.965C138.911 119.258 135.33 115.602 131.247 116.442C127.164 117.283 124.817 122.592 126.004 128.298Z" fill="#FDC8AA"/>
<path d="M130.216 123.365C131.463 121.149 131.148 118.614 129.512 117.702C127.877 116.79 125.54 117.847 124.293 120.062C123.046 122.278 123.361 124.814 124.996 125.726C126.632 126.638 128.969 125.581 130.216 123.365Z" fill="#1F3A6F"/>
<path d="M144.316 119.005C144.653 115.946 142.143 113.164 138.711 112.79C135.279 112.415 132.224 114.591 131.887 117.65C131.551 120.708 134.06 123.491 137.492 123.865C140.925 124.239 143.98 122.063 144.316 119.005Z" fill="#1F3A6F"/>
<path d="M135.334 118.998C135.725 116.842 134.358 114.791 132.28 114.418C130.202 114.045 128.201 115.49 127.81 117.647C127.419 119.803 128.786 121.853 130.864 122.227C132.942 122.6 134.943 121.154 135.334 118.998Z" fill="#1F3A6F"/>
<path d="M127.831 126.162C127.831 126.162 125.508 123.087 123.651 124.548C121.793 126.007 124.129 130.627 127.017 130.474L127.831 126.162Z" fill="#FDC8AA"/>
<path d="M126.437 126.385C126.437 126.385 124.534 125.36 124.361 126.393C124.189 127.426 125.48 128.853 125.83 128.871C126.181 128.89 125.012 127.242 125.202 127.107C125.394 126.972 126.305 127.403 126.437 126.385V126.385Z" fill="#EFA37D"/>
<path d="M142.831 145.884L143.792 147.971L141.557 147.347L138.474 149.679L139.675 145.064L142.831 145.884Z" fill="#E59D29"/>
<path d="M146.051 168.877C145.99 168.115 145.95 167.733 145.95 167.733L145.666 167.021H143.784L140.929 168.341L146.288 173.109C146.25 171.945 146.206 170.994 146.155 170.27C146.12 169.714 146.084 169.25 146.052 168.877H146.051Z" fill="#E59D29"/>
<path d="M138.27 139.092C138.27 139.092 138.396 149.784 138.474 149.68C138.553 149.576 141.244 146.116 141.244 146.116C141.244 146.116 143.675 146.402 143.701 146.298C143.727 146.195 140.961 140.809 138.27 139.093L138.27 139.092Z" fill="white"/>
<path d="M144.917 165.207L143.401 166.771C143.401 166.771 142.473 167.406 140.928 168.342L134.616 162.821L135.286 162.687L137.103 161.488C139.04 162.374 142.568 164.059 144.917 165.208V165.207Z" fill="#EFA37D"/>
<path d="M156.09 167.63C155.471 169.672 154.208 170.716 153.02 171.249C151.602 171.885 150.288 171.793 150.288 171.793L142.787 167.238C142.756 167.22 142.739 167.211 142.739 167.211L135.287 162.687L131.826 163.379L126.035 164.533L124.729 160.553C124.729 160.553 124.8 160.478 124.933 160.349C125.884 159.429 130.068 155.727 135.049 156.548C140.723 157.484 152.43 160.552 152.43 160.552C152.43 160.552 157.448 163.154 156.09 167.629V167.63Z" fill="#FDC8AA"/>
<path d="M131.825 163.378L126.034 164.532L124.728 160.552C124.728 160.552 124.799 160.477 124.932 160.348L126.553 163.764L131.826 163.377L131.825 163.378Z" fill="#EFA37D"/>
<path d="M158.514 170.893C156.711 173.776 153.445 173.972 150.288 171.792L150.212 170.512C153.198 171.477 156.417 172.007 158.513 170.893H158.514Z" fill="#E59D29"/>
<path d="M120.633 175.901C120.069 175.913 119.517 175.898 118.978 175.849C118.978 175.849 117.822 172.617 126.03 164.537C125.855 164.732 119.947 171.361 120.633 175.901Z" fill="#EFA37D"/>
<path d="M153.02 171.247C151.602 171.883 150.288 171.791 150.288 171.791L142.787 167.236C143.332 167.544 148.399 170.357 153.021 171.247H153.02Z" fill="#EFA37D"/>
<path d="M138.472 149.681C135.095 150.937 129.159 147.252 129.159 147.252L124.916 150.294L119.872 139.697C120.46 139.415 121.033 139.168 121.579 138.956C123.841 138.068 125.61 137.74 125.808 137.704L125.828 137.701V137.703C125.889 137.847 129.852 147.046 138.472 149.681Z" fill="#E59D29"/>
<path d="M138.473 149.679C135.116 149.991 129.157 146.401 129.157 146.401L124.975 148.196L119.872 139.695L119.212 138.596L125.808 137.702L125.827 137.699L125.828 137.701C125.889 137.845 129.852 147.046 138.473 149.679Z" fill="white"/>
<path d="M115.042 181.801C115.46 181.776 127.098 180.572 127.098 180.572L125.973 184.003L113.736 184.748L115.042 181.801Z" fill="#F4B545"/>
<path d="M137.244 180.18L146.889 181.843L148.082 185.032L137.603 183.236L137.244 180.18Z" fill="#F4B545"/>
<path d="M127.098 180.572L125.973 184.003L116.63 184.572V185.92L127.542 185.648L127.098 180.572Z" fill="#E59D29"/>
<path d="M137.244 180.18L137.115 184.724L146.349 186.583L146.37 184.739L137.603 183.236L137.244 180.18Z" fill="#E59D29"/>
<path d="M131.137 258.24C131.131 258.471 131.139 258.693 131.159 258.898C131.269 259.988 131.758 260.733 132.818 260.865C134.079 261.017 151.524 261.376 152.188 260.552C152.403 260.289 152.471 259.869 152.401 259.404C152.255 258.432 151.49 257.272 150.159 256.976C149.63 256.857 148.78 256.433 147.8 255.849C145.16 254.277 143.052 251.939 142.181 251C141.267 250.013 138.952 251.566 138.11 253.208C137.852 253.706 137.597 254.179 137.336 254.537C136.215 256.079 133.73 254.997 133.73 254.997C129.946 252.787 131.171 256.799 131.137 258.239L131.137 258.24Z" fill="#1F3A6F"/>
<path d="M115.987 261.805C122.147 261.779 124.704 262.035 123.606 259.729C123.591 259.697 123.575 259.666 123.56 259.633C122.447 257.425 122.278 256.566 122.336 254.652C122.341 254.479 122.354 254.3 122.378 254.109C122.662 251.82 120.376 251.443 120.376 251.443C120.376 251.443 115.309 249.877 113.952 252.648C113.747 253.067 113.576 253.459 113.433 253.827C112.616 255.897 112.582 257.236 111.596 258.553C111.457 258.738 111.323 258.934 111.208 259.137C110.508 260.382 110.631 261.826 115.987 261.806V261.805Z" fill="#1F3A6F"/>
<path d="M116.63 62.7817C133.902 62.7817 147.903 48.8447 147.903 31.6526C147.903 14.4604 133.902 0.523438 116.63 0.523438C99.3581 0.523438 85.3567 14.4604 85.3567 31.6526C85.3567 48.8447 99.3581 62.7817 116.63 62.7817Z" fill="white"/>
<path d="M366.801 260.385L342.835 259.473L342.444 258.529L327.746 233.456C328.043 233.738 344.622 249.489 349.203 253.585C349.937 254.24 350.362 254.598 350.364 254.545C350.37 254.387 353.62 247.813 357.454 240.108C362.904 229.154 369.534 215.92 369.695 215.598C369.536 216.152 359.263 252.089 359.314 257.462C359.314 257.462 368.657 249.624 372.959 249.117C376.952 248.647 368.212 255.484 366.801 260.385H366.801Z" fill="#33DA82"/>
<path d="M223.927 49.0119V63.9786C223.927 65.3326 222.819 66.4362 221.458 66.4362H173.359C171.999 66.4362 170.89 65.3326 170.89 63.9786V28.0621C170.341 27.9637 169.793 27.868 169.244 27.7812V63.9795C169.244 66.2377 171.091 68.0756 173.359 68.0756H221.458C223.727 68.0756 225.573 66.2377 225.573 63.9795V50.0994C225.027 49.7309 224.479 49.3678 223.927 49.0128V49.0119Z" fill="white"/>
<path d="M170.068 52.5014C172.669 52.5014 174.777 50.4028 174.777 47.8142C174.777 45.2255 172.669 43.127 170.068 43.127C167.468 43.127 165.359 45.2255 165.359 47.8142C165.359 50.4028 167.468 52.5014 170.068 52.5014Z" fill="white"/>
<path d="M205.502 71.9408C208.103 71.9408 210.211 69.8423 210.211 67.2536C210.211 64.6649 208.103 62.5664 205.502 62.5664C202.902 62.5664 200.793 64.6649 200.793 67.2536C200.793 69.8423 202.902 71.9408 205.502 71.9408Z" fill="white"/>
<path d="M123.342 84.2299C125.943 84.2299 128.051 82.1314 128.051 79.5427C128.051 76.954 125.943 74.8555 123.342 74.8555C120.742 74.8555 118.633 76.954 118.633 79.5427C118.633 82.1314 120.742 84.2299 123.342 84.2299Z" fill="white"/>
<path d="M95.2192 108.533C97.8199 108.533 99.9281 106.434 99.9281 103.845C99.9281 101.257 97.8199 99.1582 95.2192 99.1582C92.6186 99.1582 90.5103 101.257 90.5103 103.845C90.5103 106.434 92.6186 108.533 95.2192 108.533Z" fill="white"/>
<path d="M162.443 239.889C162.794 237.733 161.324 235.702 159.158 235.352C156.992 235.002 154.951 236.466 154.599 238.622C154.248 240.778 155.719 242.809 157.884 243.159C160.05 243.509 162.091 242.045 162.443 239.889Z" fill="white"/>
</svg>
