<svg width="169" height="25" viewBox="0 0 169 25" fill="none" xmlns="http://www.w3.org/2000/svg">
<g opacity="0.3">
<path d="M0.576 16.8555L1.704 8.45547H2.676L4.884 12.6195L7.068 8.45547H8.052L9.168 16.8555H7.968L7.116 10.0035L7.416 10.0515L4.896 14.8635L2.328 10.0515L2.628 10.0035L1.776 16.8555H0.576ZM11.768 16.9755C11.404 16.9755 11.086 16.9015 10.814 16.7535C10.542 16.6055 10.33 16.4035 10.178 16.1475C10.03 15.8915 9.95597 15.5995 9.95597 15.2715C9.95597 14.9395 10.028 14.6555 10.172 14.4195C10.32 14.1795 10.516 13.9815 10.76 13.8255C11.008 13.6655 11.284 13.5395 11.588 13.4475C11.892 13.3515 12.206 13.2835 12.53 13.2435C12.858 13.1995 13.172 13.1755 13.472 13.1715C13.472 12.6115 13.362 12.2455 13.142 12.0735C12.922 11.9015 12.604 11.8155 12.188 11.8155C11.968 11.8155 11.732 11.8495 11.48 11.9175C11.232 11.9855 10.952 12.1275 10.64 12.3435L10.484 11.4675C10.72 11.2875 11.014 11.1415 11.366 11.0295C11.718 10.9135 12.088 10.8555 12.476 10.8555C12.972 10.8555 13.372 10.9435 13.676 11.1195C13.98 11.2915 14.202 11.5835 14.342 11.9955C14.482 12.4075 14.552 12.9675 14.552 13.6755V14.8755C14.552 15.1555 14.564 15.3875 14.588 15.5715C14.616 15.7515 14.676 15.8875 14.768 15.9795C14.864 16.0675 15.016 16.1115 15.224 16.1115H15.332L15.164 16.9755H15.08C14.732 16.9755 14.462 16.9415 14.27 16.8735C14.082 16.8055 13.938 16.7075 13.838 16.5795C13.738 16.4515 13.648 16.2955 13.568 16.1115C13.348 16.3675 13.088 16.5755 12.788 16.7355C12.488 16.8955 12.148 16.9755 11.768 16.9755ZM11.972 16.1115C12.26 16.1115 12.538 16.0395 12.806 15.8955C13.078 15.7515 13.3 15.5595 13.472 15.3195V13.9155C12.9 13.9355 12.436 13.9915 12.08 14.0835C11.728 14.1755 11.47 14.3135 11.306 14.4975C11.142 14.6815 11.06 14.9195 11.06 15.2115C11.06 15.5275 11.144 15.7575 11.312 15.9015C11.484 16.0415 11.704 16.1115 11.972 16.1115ZM18.4936 16.9755C17.9936 16.9755 17.5416 16.8395 17.1376 16.5675C16.7336 16.2955 16.4116 15.9295 16.1716 15.4695C15.9356 15.0095 15.8176 14.4955 15.8176 13.9275C15.8176 13.3875 15.9256 12.8835 16.1416 12.4155C16.3616 11.9475 16.6716 11.5715 17.0716 11.2875C17.4716 10.9995 17.9456 10.8555 18.4936 10.8555C18.8856 10.8555 19.2636 10.9415 19.6276 11.1135C19.9956 11.2815 20.2936 11.5635 20.5216 11.9595L20.2936 12.1155V7.85547H21.3736V16.8555H20.4136L20.2096 15.6075L20.4856 15.7995C20.3136 16.1875 20.0436 16.4815 19.6756 16.6815C19.3076 16.8775 18.9136 16.9755 18.4936 16.9755ZM18.6856 16.0155C18.9576 16.0155 19.2256 15.9455 19.4896 15.8055C19.7576 15.6655 19.9776 15.4435 20.1496 15.1395C20.3256 14.8315 20.4136 14.4275 20.4136 13.9275C20.4136 13.4635 20.3256 13.0755 20.1496 12.7635C19.9776 12.4475 19.7576 12.2115 19.4896 12.0555C19.2256 11.8955 18.9576 11.8155 18.6856 11.8155C18.3176 11.8155 18.0016 11.9075 17.7376 12.0915C17.4736 12.2755 17.2716 12.5275 17.1316 12.8475C16.9916 13.1635 16.9216 13.5235 16.9216 13.9275C16.9216 14.3075 16.9916 14.6555 17.1316 14.9715C17.2716 15.2875 17.4736 15.5415 17.7376 15.7335C18.0016 15.9215 18.3176 16.0155 18.6856 16.0155ZM25.6418 16.9755C24.9498 16.9755 24.3678 16.8335 23.8958 16.5495C23.4238 16.2655 23.0658 15.8895 22.8218 15.4215C22.5818 14.9495 22.4618 14.4315 22.4618 13.8675C22.4618 13.3195 22.5738 12.8175 22.7978 12.3615C23.0258 11.9055 23.3538 11.5415 23.7818 11.2695C24.2138 10.9935 24.7338 10.8555 25.3418 10.8555C25.8298 10.8555 26.2638 10.9535 26.6438 11.1495C27.0278 11.3415 27.3278 11.6235 27.5438 11.9955C27.7638 12.3635 27.8738 12.8115 27.8738 13.3395C27.8738 13.4235 27.8698 13.5155 27.8618 13.6155C27.8578 13.7115 27.8458 13.8115 27.8258 13.9155H23.5658C23.6178 14.4595 23.7478 14.8835 23.9558 15.1875C24.1638 15.4915 24.4258 15.7055 24.7418 15.8295C25.0578 15.9535 25.4018 16.0155 25.7738 16.0155C26.0458 16.0155 26.3298 15.9875 26.6258 15.9315C26.9218 15.8755 27.2018 15.7875 27.4658 15.6675L27.6098 16.5195C27.3818 16.6195 27.1038 16.7215 26.7758 16.8255C26.4478 16.9255 26.0698 16.9755 25.6418 16.9755ZM23.6618 13.1715H26.7578C26.7578 12.8955 26.7058 12.6555 26.6018 12.4515C26.4978 12.2475 26.3398 12.0915 26.1278 11.9835C25.9158 11.8715 25.6458 11.8155 25.3178 11.8155C24.8378 11.8155 24.4678 11.9355 24.2078 12.1755C23.9518 12.4115 23.7698 12.7435 23.6618 13.1715ZM32.8338 16.8555L31.0698 10.9755H32.3418L33.4698 15.6675L34.7178 11.1555H35.8338L37.0938 15.6675L38.2218 10.9755H39.4938L37.7178 16.8555H36.5058L35.2818 12.5115L34.0458 16.8555H32.8338ZM40.3531 16.8555V10.9755H41.4331V16.8555H40.3531ZM40.3531 9.65547V8.45547H41.4331V9.65547H40.3531ZM44.9241 16.9755C44.5521 16.9755 44.2541 16.9075 44.0301 16.7715C43.8061 16.6355 43.6421 16.4615 43.5381 16.2495C43.4381 16.0335 43.3881 15.8075 43.3881 15.5715V11.8155H42.3801L42.4761 10.9755H43.3881V9.52347L44.4681 9.41547V10.9755H46.0161V11.8155H44.4681V14.9115C44.4681 15.2875 44.4901 15.5595 44.5341 15.7275C44.5781 15.8955 44.6861 16.0015 44.8581 16.0455C45.0341 16.0895 45.3161 16.1115 45.7041 16.1115H45.9801L45.8961 16.9755H44.9241ZM46.927 16.8555V7.85547H48.019V11.9955L47.635 11.9715C47.911 11.6235 48.207 11.3515 48.523 11.1555C48.843 10.9555 49.251 10.8555 49.747 10.8555C50.255 10.8555 50.679 10.9695 51.019 11.1975C51.359 11.4255 51.613 11.7435 51.781 12.1515C51.953 12.5595 52.039 13.0355 52.039 13.5795V16.8555H50.959V13.7115C50.959 13.0635 50.839 12.5855 50.599 12.2775C50.363 11.9695 49.999 11.8155 49.507 11.8155C49.135 11.8155 48.805 11.9155 48.517 12.1155C48.233 12.3155 48.007 12.5835 47.839 12.9195L48.019 12.2595V16.8555H46.927Z" fill="#333333"/>
<path fill-rule="evenodd" clip-rule="evenodd" d="M75.1009 10.8559V9.29546V7.32227H73.7515V9.29546V10.8559H75.1009Z" fill="url(#paint0_linear_6271_12798)"/>
<path fill-rule="evenodd" clip-rule="evenodd" d="M62 4.55479V12.4547C62 16.7997 65.555 20.3547 69.9 20.3547C74.245 20.3547 77.8 16.7997 77.8 12.4547V4.55479H75.1011H74.4264H73.7517H72.4022H71.8822H71.0528V5.9043V7.2538V8.60331V9.95271V11.3022V12.455C71.0528 13.0757 70.5206 13.6077 69.9 13.6077C69.2793 13.6077 68.7473 13.0758 68.7473 12.455V11.3022V9.95271V11.6102V10.2607V10.1051H67.3978V10.2607V11.6102V9.95271V12.455C67.3978 13.8206 68.5345 14.9572 69.9 14.9572C71.2656 14.9572 72.4022 13.8206 72.4022 12.455V9.95271V8.60331V7.2538V5.9043H73.7517H75.1011H76.4506V7.2538V12.4548C76.4506 16.055 73.5002 19.0053 69.9002 19.0053C66.2999 19.0053 63.3496 16.055 63.3496 12.4548V5.9043H64.6991L64.699 7.2538H64.6991V10.9366H64.699V12.4548C64.699 15.3102 67.0448 17.6559 69.9002 17.6559C72.7554 17.6559 75.1011 15.3101 75.1011 12.4548V12.2617H73.7517V12.4548C73.7517 14.5653 72.0106 16.3065 69.9002 16.3065C67.7897 16.3065 66.0484 14.5653 66.0484 12.4548V10.9366L66.0485 8.6032V7.2537V5.90419V4.55469H64.6991H62.0001L62 4.55479Z" fill="url(#paint1_linear_6271_12798)"/>
<path fill-rule="evenodd" clip-rule="evenodd" d="M64.6992 7.25369V10.9366V11.2573H66.0485V10.9366L66.0486 8.6032V7.25369V5.9043H64.6992V7.25369Z" fill="url(#paint2_linear_6271_12798)"/>
<path fill-rule="evenodd" clip-rule="evenodd" d="M71.0522 7.25369V10.9366V11.2573H72.4016V10.9366V8.6032V7.25369V5.9043H71.0522V7.25369Z" fill="url(#paint3_linear_6271_12798)"/>
<path fill-rule="evenodd" clip-rule="evenodd" d="M68.7476 8.68781V7.725V6.50781H67.3982V7.725V8.68781H68.7476Z" fill="url(#paint4_linear_6271_12798)"/>
<path d="M81.74 19.9547V4.55469H85.326L93.818 14.8067H92.124V4.55469H96.392V19.9547H92.806L84.314 9.70269H86.008V19.9547H81.74Z" fill="black"/>
<path d="M99.4646 19.9547V4.55469H103.821V19.9547H99.4646Z" fill="black"/>
<path d="M106.92 19.9547V4.55469H110.506L116.886 15.0267H114.994L121.198 4.55469H124.784L124.828 19.9547H120.824L120.78 10.6487H121.462L116.82 18.4367H114.884L110.11 10.6487H110.946V19.9547H106.92Z" fill="black"/>
<path d="M127.91 19.9547V4.55469H132.266V19.9547H127.91Z" fill="black"/>
<path d="M135.365 19.9547V4.55469H138.951L147.443 14.8067H145.749V4.55469H150.017V19.9547H146.431L137.939 9.70269H139.633V19.9547H135.365Z" fill="black"/>
<path d="M153.09 19.9547V4.55469H160.372C162.073 4.55469 163.569 4.87002 164.86 5.50069C166.15 6.13136 167.155 7.01869 167.874 8.16269C168.607 9.30669 168.974 10.6707 168.974 12.2547C168.974 13.824 168.607 15.188 167.874 16.3467C167.155 17.4907 166.15 18.378 164.86 19.0087C163.569 19.6394 162.073 19.9547 160.372 19.9547H153.09ZM157.446 16.4787H160.196C161.076 16.4787 161.838 16.3174 162.484 15.9947C163.144 15.6574 163.657 15.1734 164.024 14.5427C164.39 13.8974 164.574 13.1347 164.574 12.2547C164.574 11.36 164.39 10.5974 164.024 9.96669C163.657 9.33602 163.144 8.85935 162.484 8.53669C161.838 8.19935 161.076 8.03069 160.196 8.03069H157.446V16.4787Z" fill="black"/>
</g>
<defs>
<linearGradient id="paint0_linear_6271_12798" x1="74.4262" y1="7.32227" x2="74.4262" y2="10.8559" gradientUnits="userSpaceOnUse">
<stop stop-color="#1B63D4"/>
<stop offset="1" stop-color="#0845A4"/>
</linearGradient>
<linearGradient id="paint1_linear_6271_12798" x1="69.9" y1="4.55469" x2="69.9" y2="20.3547" gradientUnits="userSpaceOnUse">
<stop stop-color="#1B63D4"/>
<stop offset="1" stop-color="#0845A4"/>
</linearGradient>
<linearGradient id="paint2_linear_6271_12798" x1="65.3739" y1="5.9043" x2="65.3739" y2="11.2573" gradientUnits="userSpaceOnUse">
<stop stop-color="#1B63D4"/>
<stop offset="1" stop-color="#0845A4"/>
</linearGradient>
<linearGradient id="paint3_linear_6271_12798" x1="71.7269" y1="5.9043" x2="71.7269" y2="11.2573" gradientUnits="userSpaceOnUse">
<stop stop-color="#1B63D4"/>
<stop offset="1" stop-color="#0845A4"/>
</linearGradient>
<linearGradient id="paint4_linear_6271_12798" x1="68.0729" y1="6.50781" x2="68.0729" y2="8.68781" gradientUnits="userSpaceOnUse">
<stop stop-color="#1B63D4"/>
<stop offset="1" stop-color="#0845A4"/>
</linearGradient>
</defs>
</svg>
