<svg width="121" height="36" viewBox="0 0 121 36" fill="none" xmlns="http://www.w3.org/2000/svg">
<g clip-path="url(#clip0_818_9448)">
<path d="M71.0282 31.9399V32.7065H71.8698V33.1493H71.0282V34.8877C71.0282 35.2873 71.147 35.514 71.4709 35.514C71.5834 35.518 71.696 35.507 71.8056 35.4816L71.8272 35.9243C71.6602 35.9797 71.4848 36.0053 71.309 36C71.1928 36.0068 71.0765 35.9881 70.9683 35.9452C70.86 35.9023 70.7626 35.8362 70.6826 35.7516C70.5211 35.5681 70.4559 35.2873 70.4559 34.9094V33.1601H69.9592V32.7174H70.4559V32.1126L71.0282 31.9399Z" fill="#454545"/>
<path d="M72.5184 33.7215C72.5184 33.3435 72.5075 33.0197 72.486 32.7173H73.0042L73.0258 33.3544H73.0474C73.1033 33.1577 73.2201 32.9838 73.3811 32.8577C73.542 32.7316 73.7388 32.6598 73.9432 32.6526C73.9972 32.6526 74.0511 32.6635 74.1047 32.6635V33.2142C74.0418 33.1951 73.9759 33.1878 73.9103 33.1926C73.5 33.1926 73.2085 33.5057 73.122 33.9375C73.1041 34.0263 73.0968 34.1169 73.1004 34.2075V35.9243H72.5184V33.7215Z" fill="#454545"/>
<path d="M77.3882 35.0498C77.3882 35.3845 77.3882 35.6762 77.4098 35.9352H76.892L76.8595 35.4065H76.8479C76.7393 35.5922 76.5827 35.7453 76.3947 35.8497C76.2067 35.9542 75.994 36.0062 75.779 36.0004C75.2823 36.0004 74.6669 35.7089 74.6669 34.5859V32.7175H75.25V34.4884C75.25 35.0932 75.4445 35.5142 75.9627 35.5142C76.1302 35.5128 76.2933 35.4603 76.4303 35.3639C76.5672 35.2674 76.6716 35.1316 76.7294 34.9744C76.7668 34.878 76.7852 34.7753 76.7835 34.672V32.7175H77.3666V35.0498H77.3882Z" fill="#454545"/>
<path d="M78.2736 35.3413C78.5098 35.4803 78.777 35.5582 79.051 35.5681C79.4722 35.5681 79.6664 35.3625 79.6664 35.093C79.6664 34.8122 79.5049 34.6718 79.0726 34.5099C78.4896 34.2938 78.2085 33.9808 78.2085 33.592C78.2085 33.0738 78.6404 32.6522 79.3206 32.6522C79.5959 32.6465 79.8678 32.7136 80.1089 32.8466L79.9685 33.2678C79.7706 33.1447 79.5429 33.0776 79.3099 33.0738C78.9643 33.0738 78.7701 33.2682 78.7701 33.5166C78.7701 33.7865 78.9645 33.9053 79.3748 34.0672C79.9255 34.2728 80.217 34.5532 80.217 35.0282C80.217 35.601 79.7742 36.0001 79.0184 36.0001C78.7012 36.0076 78.3879 35.9292 78.1116 35.7732L78.2736 35.3413Z" fill="#454545"/>
<path d="M81.6965 31.9399V32.7065H82.5387V33.1493H81.6965V34.8877C81.6965 35.2873 81.8044 35.514 82.1393 35.514C82.2518 35.518 82.3643 35.5071 82.4739 35.4816L82.4955 35.9243C82.3286 35.9797 82.1531 36.0053 81.9773 36C81.8611 36.0078 81.7446 35.9896 81.6363 35.9466C81.5281 35.9036 81.4308 35.837 81.3515 35.7516C81.19 35.5681 81.1248 35.2873 81.1248 34.9094V33.1601H80.6276V32.7174H81.1242V32.1126L81.6965 31.9399Z" fill="#454545"/>
<path d="M83.4781 34.4234C83.489 35.2117 83.9857 35.5464 84.5795 35.5464C84.8873 35.5569 85.1935 35.4979 85.4753 35.3737L85.5833 35.7949C85.2426 35.9413 84.8741 36.0114 84.5035 36.0005C83.5209 36.0005 82.927 35.3419 82.927 34.3704C82.927 33.399 83.5002 32.6418 84.4284 32.6418C85.4866 32.6418 85.7565 33.5597 85.7565 34.1428C85.7631 34.2334 85.7558 34.3244 85.735 34.4127H83.4781V34.4234ZM85.195 34.0131C85.2058 33.646 85.0439 33.0733 84.3851 33.0733C83.7912 33.0733 83.532 33.6131 83.4893 34.0131H85.195Z" fill="#454545"/>
<path d="M89.255 31.2166V35.1037C89.255 35.3952 89.2658 35.7192 89.2765 35.9352H88.7583L88.7367 35.3738H88.7151C88.6132 35.5699 88.4575 35.733 88.2663 35.8439C88.0751 35.9548 87.8562 36.009 87.6353 36.0001C86.8582 36 86.2532 35.3416 86.2532 34.3695C86.2532 33.3005 86.9118 32.6526 87.7001 32.6526C87.8903 32.6424 88.0799 32.6819 88.2503 32.7671C88.4207 32.8524 88.5659 32.9805 88.6718 33.1388H88.6938V31.2166H89.255ZM88.6718 34.0241C88.6717 33.9403 88.6607 33.8568 88.6394 33.7757C88.5957 33.5852 88.4886 33.4151 88.3356 33.2934C88.1825 33.1718 87.9927 33.1058 87.7972 33.1062C87.1924 33.1062 86.8362 33.6461 86.8362 34.348C86.8362 34.9959 87.1601 35.5466 87.7864 35.5466C87.9886 35.5447 88.1841 35.4742 88.3409 35.3467C88.4978 35.2192 88.6067 35.0422 88.6498 34.8447C88.6719 34.7638 88.6828 34.6802 88.6822 34.5964V34.0236L88.6718 34.0241Z" fill="#454545"/>
<path d="M93.9304 35.8164C93.6374 35.9427 93.3209 36.0053 93.0018 35.9999C92.03 35.9999 91.4038 35.3413 91.4038 34.3587C91.4038 33.3653 92.084 32.6419 93.1315 32.6419C93.4112 32.636 93.6884 32.6951 93.9414 32.8146L93.8119 33.2573C93.6014 33.1506 93.3675 33.0986 93.1317 33.1062C92.3974 33.1062 91.9978 33.6569 91.9978 34.3264C91.9978 35.0715 92.4838 35.5357 93.1099 35.5357C93.3601 35.5369 93.6074 35.4817 93.8333 35.3742L93.9304 35.8164Z" fill="#454545"/>
<path d="M97.4829 34.2939C97.4829 35.4817 96.6514 36 95.8848 36C95.0206 36.0003 94.3407 35.3629 94.3407 34.348C94.3407 33.279 95.0534 32.6418 95.9387 32.6418C96.8563 32.6418 97.4829 33.3221 97.4829 34.2939ZM94.9346 34.3262C94.9346 35.028 95.3342 35.5571 95.9064 35.5571C96.4571 35.5571 96.8783 35.0389 96.8783 34.3046C96.8783 33.754 96.6084 33.0737 95.9173 33.0737C95.2369 33.0846 94.9346 33.7216 94.9346 34.3262Z" fill="#454545"/>
<path d="M98.2173 33.5812C98.2173 33.2465 98.2173 32.9765 98.1957 32.7174H98.7139L98.7464 33.2461H98.7572C98.8657 33.0602 99.0221 32.907 99.2102 32.8025C99.3983 32.698 99.6111 32.6461 99.8262 32.6522C100.269 32.6522 100.96 32.9221 100.96 34.0235V35.946H100.377V34.0887C100.377 33.5705 100.182 33.1384 99.6317 33.1384C99.4549 33.143 99.2838 33.2027 99.1425 33.3092C99.0012 33.4156 98.8966 33.5636 98.8434 33.7323C98.8207 33.8204 98.8098 33.9112 98.811 34.0022V35.9352H98.2173V33.5812Z" fill="#454545"/>
<path d="M101.91 33.5812C101.91 33.2465 101.899 32.9765 101.889 32.7174H102.407L102.439 33.2461H102.461C102.567 33.0605 102.721 32.9072 102.908 32.8026C103.094 32.698 103.305 32.6461 103.519 32.6522C103.962 32.6522 104.653 32.9221 104.653 34.0235V35.946H104.07V34.0887C104.07 33.5705 103.875 33.1385 103.325 33.1385C103.148 33.143 102.977 33.2027 102.835 33.3092C102.694 33.4157 102.59 33.5636 102.536 33.7323C102.505 33.8186 102.49 33.9103 102.493 34.0022V35.9352H101.91V33.5812Z" fill="#454545"/>
<path d="M105.927 34.4235C105.938 35.2118 106.434 35.5465 107.028 35.5465C107.336 35.557 107.642 35.498 107.924 35.3738L108.032 35.795C107.695 35.9404 107.33 36.0106 106.963 36.0006C105.97 36.0006 105.376 35.342 105.376 34.3705C105.376 33.3991 105.948 32.6428 106.887 32.6428C107.946 32.6428 108.216 33.5606 108.216 34.1438C108.217 34.2342 108.209 34.3246 108.194 34.4137H105.927V34.4235ZM107.644 34.0132C107.655 33.6461 107.493 33.0734 106.834 33.0734C106.24 33.0734 105.981 33.6132 105.938 34.0132H107.644Z" fill="#454545"/>
<path d="M111.229 35.8164C110.936 35.9427 110.619 36.0053 110.3 35.9999C109.328 35.9999 108.702 35.3413 108.702 34.3587C108.702 33.3653 109.382 32.6419 110.43 32.6419C110.71 32.636 110.987 32.6951 111.24 32.8146L111.11 33.2573C110.9 33.1506 110.666 33.0986 110.43 33.1062C109.696 33.1062 109.296 33.6569 109.296 34.3264C109.296 35.0715 109.782 35.5357 110.408 35.5357C110.658 35.5369 110.906 35.4817 111.132 35.3742L111.229 35.8164Z" fill="#454545"/>
<path d="M112.698 31.9399V32.7065H113.54V33.1493H112.698V34.8877C112.698 35.2873 112.817 35.514 113.14 35.514C113.257 35.5172 113.373 35.5063 113.486 35.4816L113.508 35.9243C113.341 35.9797 113.165 36.0053 112.989 36C112.873 36.0068 112.757 35.9881 112.649 35.9452C112.54 35.9023 112.443 35.8362 112.363 35.7516C112.202 35.5681 112.136 35.2873 112.136 34.9094V33.1601H111.639V32.7174H112.136V32.1126L112.698 31.9399Z" fill="#454545"/>
<path d="M114.479 34.4235C114.49 35.2118 114.986 35.5465 115.58 35.5465C115.885 35.5586 116.188 35.4995 116.466 35.3738L116.573 35.795C116.236 35.9404 115.872 36.0106 115.505 36.0006C114.511 36.0006 113.917 35.342 113.917 34.3705C113.917 33.3991 114.49 32.6428 115.429 32.6428C116.487 32.6428 116.757 33.5606 116.757 34.1438C116.758 34.2342 116.751 34.3246 116.735 34.4137H114.479V34.4235ZM116.196 34.0132C116.207 33.6461 116.045 33.0734 115.386 33.0734C114.792 33.0734 114.533 33.6132 114.49 34.0132H116.196Z" fill="#454545"/>
<path d="M120.256 31.2166V35.1037C120.256 35.3952 120.278 35.7192 120.289 35.9352H119.771L119.738 35.3738H119.716C119.613 35.5712 119.456 35.7351 119.263 35.846C119.069 35.957 118.849 36.0104 118.626 36.0001C117.849 36.0001 117.244 35.3415 117.244 34.3701C117.233 33.3011 117.902 32.6532 118.691 32.6532C118.881 32.6431 119.07 32.6825 119.24 32.7677C119.411 32.8528 119.556 32.9807 119.662 33.1388H119.683V31.2166H120.256ZM119.684 34.0241C119.687 33.9407 119.68 33.8572 119.662 33.7757C119.618 33.5852 119.511 33.4151 119.358 33.2934C119.205 33.1718 119.015 33.1057 118.82 33.1062C118.215 33.1062 117.848 33.6461 117.848 34.348C117.848 34.9959 118.172 35.5466 118.798 35.5466C118.999 35.5444 119.193 35.4736 119.348 35.346C119.504 35.2184 119.61 35.0415 119.651 34.8448C119.67 34.7634 119.677 34.6799 119.673 34.5965V34.0238L119.684 34.0241Z" fill="#454545"/>
<path fill-rule="evenodd" clip-rule="evenodd" d="M4.70793 14.6419C4.70793 14.6419 5.35569 13.0222 5.55012 12.5147V12.5153H5.81974C6.05817 13.9396 6.40472 15.3436 6.85637 16.7153C8.02296 20.2462 9.70706 23.1183 11.8558 25.2779C13.7994 27.2108 16.0561 28.1718 18.5828 28.1934C21.6278 28.2257 23.1826 27.7942 23.8737 27.5886H24.0673C21.5733 29.3761 18.5166 30.4283 15.2141 30.4283C11.787 30.4283 8.62452 29.2951 6.08094 27.383C4.4796 26.1771 3.13187 24.6656 2.11643 22.9347C2.08208 22.8229 2.06747 22.706 2.07326 22.5892C2.09348 22.136 2.16597 21.6867 2.28928 21.2502C2.54832 20.2783 3.35821 18.054 4.70793 14.6419ZM0.0237755 14.3563C0.00778757 14.6415 -0.000159615 14.9275 2.42862e-06 15.2139C2.42862e-06 15.5592 0.0215714 15.8938 0.0431496 16.2285L0.0431769 16.2289C0.321754 15.5504 0.619154 14.8058 0.941711 13.9981C1.10682 13.5847 1.27852 13.1548 1.45765 12.7089L2.03038 11.2728C3.28258 8.08757 4.18954 5.72281 4.71865 4.21112C3.22674 5.62898 2.03902 7.33565 1.2278 9.22722C0.52945 10.8556 0.122699 12.5917 0.0237755 14.3563ZM30.3715 13.8906C30.4091 14.3268 30.4283 14.7682 30.4283 15.2141C30.4283 19.5307 28.6307 23.4274 25.7432 26.1964L26.7351 23.5934C27.383 21.9736 27.8797 20.829 28.2252 20.1704C28.4698 19.6683 28.7985 19.2118 29.1971 18.8207L30.007 18.0973H24.6513L24.9212 18.6804C24.9532 18.7816 24.9678 18.8875 24.9644 18.9935C24.9551 19.2784 24.9116 19.5612 24.8349 19.8357C24.5797 20.7878 24.2623 21.722 23.8846 22.6324C23.8846 22.6324 22.9127 25.0294 22.686 25.591C22.3836 25.6449 22.0056 25.6989 21.7573 25.7205L20.6991 25.7746C18.464 25.7746 16.9521 25.1591 16.2072 23.9605C15.4518 22.7512 15.5274 20.9911 16.4128 18.7343C17.3306 16.4236 18.6803 14.5664 20.408 13.2167L20.4083 13.2159C22.1247 11.8882 24.0355 11.2079 26.0768 11.2187C27.0918 11.2187 27.9449 11.3914 28.6035 11.737C29.2369 12.0606 29.7456 12.5845 30.0504 13.2271L30.3715 13.8906ZM15.2233 0C15.2251 1.08761e-06 15.227 2.50955e-06 15.2288 4.26215e-06C16.1698 0.00183606 17.1085 0.0922028 18.0325 0.269911C18.0217 0.410155 18.0001 0.766564 18.0001 0.788151C17.9734 0.847413 17.9517 0.908818 17.9353 0.971716L17.8706 1.12283C17.7513 1.41447 17.363 1.98676 16.1213 3.07728C15.0846 3.9951 13.0654 5.59329 10.1284 7.80679C9.21557 8.51635 8.25996 9.16907 7.26697 9.76124C7.01396 9.90357 6.75042 10.0263 6.47867 10.1284C6.59747 9.826 6.72699 9.50205 6.72699 9.50205C8.07686 6.10081 9.01671 3.88717 9.53451 2.91545C10.0312 1.98676 10.4846 1.34971 10.9058 1.02576L11.6725 0.421169C12.8357 0.143223 14.0273 0.00187877 15.2233 0ZM9.62086 10.8731C12.9142 8.32518 15.7864 6.17644 18.1728 4.47031L18.1726 4.47002C19.8895 3.23911 21.2392 2.32128 22.2002 1.71655C25.3232 3.33929 27.7907 5.98978 29.1864 9.22068C28.6141 9.18822 28.0634 9.16664 27.5667 9.16664C24.1655 9.16664 21.0881 10.0411 18.4318 11.7689C15.8027 13.464 13.777 15.9471 12.6442 18.863C12.4282 19.4098 12.2444 19.9688 12.0935 20.5371L12.0911 20.5316C11.9192 20.1447 11.7473 19.7577 11.5969 19.3493C10.787 17.2438 10.1284 14.3828 9.62086 10.8731Z" fill="#454545"/>
<path d="M56.6132 17.1579V27.6534H52.4993V17.1794C52.503 16.7783 52.422 16.381 52.2617 16.0133C52.107 15.6615 51.8913 15.3397 51.6246 15.063C51.3593 14.7899 51.0443 14.57 50.6965 14.4151C50.3368 14.2526 49.9467 14.1679 49.552 14.1668C49.1571 14.1668 48.7668 14.2515 48.4074 14.4151C48.0595 14.57 47.7443 14.7899 47.4789 15.063C47.2155 15.3402 47.0034 15.662 46.8525 16.0133C46.6922 16.381 46.6113 16.7783 46.6149 17.1794V27.6534H42.5004V17.1794C42.5041 16.7783 42.4231 16.381 42.2628 16.0133C42.1119 15.662 41.8999 15.3402 41.6365 15.063C41.3711 14.7899 41.0559 14.57 40.708 14.4151C40.3482 14.2526 39.9582 14.1679 39.5634 14.1668C39.1685 14.1668 38.7782 14.2515 38.4188 14.4151C38.0678 14.5699 37.7492 14.7897 37.4799 15.063C37.2165 15.3402 37.0044 15.662 36.8535 16.0133C36.6932 16.381 36.6123 16.7783 36.6159 17.1794V27.6534H32.5016V8.87585H33.7002C35.9353 8.87585 36.6048 10.6683 36.6048 10.6683C37.524 10.2247 38.5319 9.99579 39.5525 9.99883C40.5068 9.98973 41.4524 10.181 42.328 10.5604C43.1649 10.9284 43.9264 11.4483 44.574 12.0937C45.2118 11.4416 45.9711 10.9208 46.8091 10.5604C47.6669 10.1936 48.5896 10.0026 49.5225 9.99892C50.4555 9.99521 51.3797 10.1788 52.2404 10.5388C53.0632 10.8804 53.8114 11.3792 54.4432 12.0073C55.7585 13.2997 56.531 15.0454 56.6028 16.8879L56.6132 17.1579Z" fill="#454545"/>
<path d="M94.8917 3.82239V18.6045C94.9002 19.8331 94.6539 21.05 94.1683 22.1786C93.703 23.2656 93.0362 24.2548 92.2032 25.094C91.3615 25.9264 90.3681 26.5898 89.2769 27.0485C88.1439 27.526 86.9268 27.772 85.6973 27.772C84.4679 27.772 83.2508 27.526 82.1178 27.0485C79.9231 26.1204 78.1764 24.3735 77.2485 22.1787C76.7617 21.0505 76.5151 19.8332 76.5246 18.6045C76.5226 17.3731 76.7688 16.1539 77.2485 15.0197C78.1754 12.8189 79.9218 11.0648 82.1184 10.1282C84.0721 9.30644 86.2487 9.18067 88.284 9.77194C89.0998 10.0153 89.8775 10.3715 90.5947 10.8302V3.82239H94.8917ZM85.7028 23.4745C86.3587 23.4776 87.0086 23.349 87.614 23.0965C88.1933 22.8526 88.7209 22.5008 89.1689 22.0599C89.6164 21.6129 89.9754 21.0853 90.2271 20.5051C90.6095 19.6077 90.7131 18.616 90.5244 17.6589C90.3356 16.7019 89.8633 15.8238 89.1688 15.1388C88.7178 14.696 88.1912 14.3376 87.6139 14.0806C87.0088 13.8271 86.3587 13.6985 85.7026 13.7026C85.0504 13.7017 84.4045 13.8302 83.8022 14.0806C83.2198 14.3284 82.6915 14.6879 82.2474 15.1388C81.8077 15.5877 81.4561 16.1151 81.2107 16.6937C80.7068 17.9143 80.7068 19.2847 81.2107 20.5053C81.4547 21.0846 81.8065 21.6122 82.2474 22.0602C82.6925 22.5046 83.2209 22.8568 83.8022 23.0968C84.4045 23.3472 85.0505 23.4756 85.7028 23.4745Z" fill="#454545"/>
<path d="M96.3926 27.7937V10.7546H100.679V27.7937H96.3926Z" fill="#454545"/>
<path d="M120.159 18.6047V27.772H119.231C118.601 27.7787 117.977 27.6555 117.398 27.4103C116.818 27.1651 116.295 26.803 115.862 26.3467C115.142 26.801 114.365 27.1569 113.551 27.4049C111.516 27.9962 109.339 27.8704 107.385 27.0486C106.293 26.5861 105.297 25.9232 104.448 25.0942C103.609 24.2535 102.938 23.2603 102.472 22.1679C101.986 21.0356 101.74 19.8151 101.748 18.5831C101.74 17.351 101.986 16.1305 102.472 14.9981C103.406 12.7826 105.169 11.0198 107.385 10.0856C108.52 9.60814 109.738 9.36218 110.97 9.36218C112.201 9.36218 113.42 9.60814 114.554 10.0856C115.647 10.552 116.64 11.2227 117.481 12.0617C118.313 12.9097 118.979 13.9058 119.446 14.9987C119.931 16.1311 120.178 17.3516 120.169 18.5837V18.6052L120.159 18.6047ZM110.97 23.4746C111.622 23.4754 112.268 23.347 112.871 23.0966C113.458 22.8529 113.991 22.493 114.436 22.0383C114.885 21.5919 115.244 21.0639 115.494 20.4827C115.747 19.8776 115.876 19.2275 115.872 18.5715C115.876 17.9121 115.747 17.2586 115.494 16.6499C115.248 16.0635 114.888 15.5314 114.436 15.0842C113.989 14.6367 113.461 14.2777 112.881 14.026C111.982 13.6424 110.988 13.5383 110.029 13.727C109.07 13.9157 108.19 14.3886 107.504 15.0842C107.058 15.5371 106.7 16.0678 106.445 16.6499C105.941 17.8742 105.941 19.248 106.445 20.4723C106.693 21.0581 107.052 21.5899 107.504 22.038C107.953 22.4832 108.48 22.8419 109.058 23.0963C109.664 23.3498 110.314 23.4784 110.97 23.4744L110.97 23.4746Z" fill="#454545"/>
<path d="M75.7038 16.8338L75.6714 16.6723C75.4685 15.6327 75.0808 14.6379 74.5268 13.7352C73.9918 12.8483 73.3131 12.0564 72.5185 11.392C71.7189 10.7249 70.809 10.2022 69.8299 9.8476C68.809 9.47725 67.7305 9.2908 66.6445 9.29691C65.4087 9.28516 64.184 9.53154 63.0489 10.0203C60.8426 10.9595 59.0857 12.7164 58.1465 14.9227C57.6578 16.0576 57.4115 17.2821 57.4231 18.5177V18.5718C57.4114 19.8076 57.6578 21.0323 58.1465 22.1674C58.6156 23.2583 59.286 24.251 60.1226 25.0936C60.9633 25.9326 61.9564 26.6033 63.0487 27.0697C64.1839 27.5584 65.4086 27.8048 66.6444 27.793C67.7304 27.7992 68.8089 27.6127 69.8298 27.2424C70.8089 26.888 71.7188 26.3657 72.5185 25.6988C73.3131 25.0344 73.9918 24.2426 74.5268 23.3556C74.8442 22.8182 75.1151 22.2546 75.3367 21.6711C73.3284 21.6927 72.1513 21.6602 70.4668 21.6602C70.1618 22.0295 69.8054 22.3531 69.4086 22.6212C68.6012 23.2031 67.6281 23.5097 66.6331 23.4959C65.9852 23.5021 65.3427 23.3782 64.7436 23.1315C64.1445 22.8848 63.601 22.5204 63.1454 22.0598C62.7376 21.629 62.4054 21.1326 62.1628 20.5913C62.0888 20.4368 62.0238 20.2782 61.9683 20.1162H75.7248C75.7248 20.1162 76.0175 18.3887 75.7038 16.8338ZM62.1418 16.5206C62.3897 15.9807 63.1352 15.0306 63.1352 15.0306C63.5882 14.5852 64.1188 14.2266 64.701 13.9724C65.3101 13.7199 65.9635 13.5914 66.623 13.5944C67.6161 13.5819 68.5878 13.8843 69.3985 14.4582C70.1441 14.9804 70.7367 15.6924 71.1147 16.5206H62.1418Z" fill="#454545"/>
<path d="M101.024 6.25186C101.024 5.79057 100.887 5.33965 100.631 4.9561C100.375 4.57256 100.011 4.27362 99.5845 4.09709C99.1583 3.92057 98.6893 3.87438 98.2369 3.96437C97.7845 4.05436 97.3689 4.27649 97.0427 4.60267C96.7166 4.92885 96.4944 5.34443 96.4044 5.79685C96.3144 6.24927 96.3606 6.71822 96.5372 7.14439C96.7137 7.57056 97.0126 7.93482 97.3962 8.1911C97.7797 8.44737 98.2306 8.58416 98.6919 8.58416C98.9983 8.58453 99.3018 8.52445 99.5849 8.40737C99.868 8.29029 100.125 8.11851 100.342 7.90186C100.559 7.68522 100.73 7.42796 100.847 7.14483C100.965 6.86169 101.025 6.55824 101.024 6.25186Z" fill="#454545"/>
</g>
<defs>
<clipPath id="clip0_818_9448">
<rect width="120.288" height="36" fill="white"/>
</clipPath>
</defs>
</svg>
