<svg width="24" height="24" viewBox="0 0 24 24" fill="none" xmlns="http://www.w3.org/2000/svg">
<path fill-rule="evenodd" clip-rule="evenodd" d="M0.0503845 0.0504544V11.9999C0.0503845 18.572 5.42767 23.9493 12 23.9493C18.5721 23.9493 23.9494 18.572 23.9494 11.9999V0.0504544H19.8671H18.8465H17.826H15.7847H14.9982H13.7436V2.09171V4.13297V6.17423V8.21533V10.2566V12.0002C13.7436 12.9391 12.9387 13.7439 12 13.7439C11.0611 13.7439 10.2564 12.9393 10.2564 12.0002V10.2566V8.21533V10.7224V8.68114V8.44581H8.2151V8.68114V10.7224V8.21533V12.0002C8.2151 14.0658 9.93452 15.7851 12 15.7851C14.0655 15.7851 15.7847 14.0658 15.7847 12.0002V8.21533V6.17423V4.13297V2.09171H17.826H19.8671H21.9083V4.13297V12.0001C21.9083 17.4456 17.4455 21.9082 12.0001 21.9082C6.55443 21.9082 2.0918 17.4456 2.0918 12.0001V2.09171H4.13306L4.1329 4.13297H4.13306V9.70362H4.1329V12.0001C4.1329 16.319 7.68118 19.8671 12.0001 19.8671C16.319 19.8671 19.8671 16.3189 19.8671 12.0001V11.7079H17.826V12.0001C17.826 15.1923 15.1924 17.826 12.0001 17.826C8.80793 17.826 6.174 15.1923 6.174 12.0001V9.70362L6.17416 6.17407V4.13281V2.09155V0.050293H4.13306H0.0505459L0.0503845 0.0504544Z" fill="url(#paint0_linear_6972_35959)"/>
<defs>
<linearGradient id="paint0_linear_6972_35959" x1="11.9999" y1="0.050293" x2="11.9999" y2="23.9493" gradientUnits="userSpaceOnUse">
<stop stop-color="#1B63D4"/>
<stop offset="1" stop-color="#0845A4"/>
</linearGradient>
</defs>
</svg>
