<svg width="143" height="36" viewBox="0 0 143 36" fill="none" xmlns="http://www.w3.org/2000/svg">
<path d="M27.605 13.6533C27.605 14.2982 27.8013 14.9154 28.1939 15.505C28.5866 16.0946 29.1008 16.5737 29.7365 16.9422C30.3909 17.3107 31.1014 17.495 31.868 17.495C32.7093 17.495 33.4572 17.3107 34.1116 16.9422C34.766 16.5737 35.2802 16.0946 35.6541 15.505C36.0468 14.9154 36.2431 14.2982 36.2431 13.6533V0.829145H40.2537V13.7362C40.2537 15.2286 39.8797 16.5553 39.1318 17.7161C38.3839 18.8585 37.3743 19.7613 36.1029 20.4246C34.8315 21.0695 33.4198 21.392 31.868 21.392C30.3348 21.392 28.9325 21.0695 27.6611 20.4246C26.4084 19.7613 25.4081 18.8585 24.6602 17.7161C23.9123 16.5553 23.5383 15.2286 23.5383 13.7362V0.829145H27.605V13.6533Z" fill="black"/>
<path d="M61.3963 22L45.7467 8.07035L46.9527 8.73367L47.0368 21.1709H42.9141V0.0276378H43.0824L58.3954 13.902L57.4979 13.5151L57.4138 0.829145H61.5085V22H61.3963Z" fill="black"/>
<path d="M64.5806 0.829145H68.6473V21.1709H64.5806V0.829145Z" fill="black"/>
<path d="M71.7312 21.1709V0H71.7593L83.23 16.0302L81.4912 15.6432L92.9339 0H92.99V21.1709H88.9233V9.03769L89.1758 11.1106L82.1923 20.8945H82.1362L74.9565 11.1106L75.6576 9.20352V21.1709H71.7312Z" fill="black"/>
<path d="M96.0818 0.829145H100.148V21.1709H96.0818V0.829145Z" fill="black"/>
<path d="M121.715 22L106.065 8.07035L107.271 8.73367L107.355 21.1709H103.232V0.0276378H103.401L118.714 13.902L117.816 13.5151L117.732 0.829145H121.827V22H121.715Z" fill="black"/>
<path d="M124.899 21.1709V0.829145H131.069C133.144 0.829145 134.911 1.13317 136.37 1.74121C137.828 2.34925 138.997 3.15997 139.875 4.17337C140.773 5.18677 141.427 6.31993 141.839 7.57286C142.25 8.8258 142.456 10.0879 142.456 11.3593C142.456 12.8702 142.175 14.2337 141.614 15.4497C141.072 16.6474 140.324 17.6792 139.371 18.5452C138.417 19.3928 137.314 20.0469 136.061 20.5075C134.809 20.9497 133.481 21.1709 132.079 21.1709H124.899ZM128.966 17.3015H131.378C132.406 17.3015 133.341 17.1725 134.182 16.9146C135.024 16.6382 135.743 16.242 136.342 15.7261C136.959 15.2102 137.426 14.5653 137.744 13.7915C138.081 12.9992 138.249 12.0963 138.249 11.0829C138.249 9.75628 138.024 8.67839 137.576 7.84925C137.146 7.00168 136.603 6.34757 135.949 5.88693C135.313 5.4263 134.659 5.11307 133.986 4.94724C133.313 4.76298 132.742 4.67086 132.275 4.67086H128.966V17.3015Z" fill="black"/>
<path d="M9.84066 5.16973C9.84066 7.84765 7.63775 10.0185 4.92033 10.0185C2.20291 10.0185 0 7.84765 0 5.16973C0 2.49181 2.20291 0.320927 4.92033 0.320927C7.63775 0.320927 9.84066 2.49181 9.84066 5.16973Z" fill="url(#paint0_radial_2198_22282)"/>
<path d="M9.97799 15.8372C9.97799 18.5151 7.77508 20.686 5.05766 20.686C2.34023 20.686 0.137329 18.5151 0.137329 15.8372C0.137329 13.1593 2.34023 10.9884 5.05766 10.9884C7.77508 10.9884 9.97799 13.1593 9.97799 15.8372Z" fill="url(#paint1_radial_2198_22282)"/>
<path d="M19.3266 10.5035C19.3266 13.1814 17.1237 15.3523 14.4063 15.3523C11.6889 15.3523 9.48596 13.1814 9.48596 10.5035C9.48596 7.82558 11.6889 5.6547 14.4063 5.6547C17.1237 5.6547 19.3266 7.82558 19.3266 10.5035Z" fill="url(#paint2_radial_2198_22282)"/>
<g opacity="0.6" clip-path="url(#clip0_2198_22282)">
<path d="M83.0954 34.985V35.1766H83.3245V35.2873H83.0954V35.7219C83.0954 35.8218 83.1278 35.8785 83.2159 35.8785C83.2465 35.8795 83.2772 35.8768 83.307 35.8704L83.3129 35.9811C83.2674 35.9949 83.2197 36.0013 83.1718 36C83.1402 36.0017 83.1086 35.997 83.0791 35.9863C83.0497 35.9756 83.0232 35.9591 83.0014 35.9379C82.9575 35.892 82.9397 35.8218 82.9397 35.7274V35.29H82.8046V35.1794H82.9397V35.0282L83.0954 34.985Z" fill="#454545"/>
<path d="M83.501 35.4304C83.501 35.3359 83.498 35.2549 83.4921 35.1794H83.6331L83.639 35.3386H83.6449C83.6601 35.2894 83.6919 35.246 83.7357 35.2144C83.7795 35.1829 83.8331 35.165 83.8887 35.1632C83.9034 35.1632 83.918 35.1659 83.9326 35.1659V35.3036C83.9155 35.2988 83.8976 35.297 83.8797 35.2982C83.7681 35.2982 83.6887 35.3764 83.6652 35.4844C83.6603 35.5066 83.6584 35.5293 83.6593 35.5519V35.9811H83.501V35.4304Z" fill="#454545"/>
<path d="M84.8261 35.7625C84.8261 35.8461 84.8261 35.919 84.832 35.9838H84.6911L84.6822 35.8516H84.6791C84.6495 35.8981 84.6069 35.9363 84.5557 35.9624C84.5046 35.9886 84.4467 36.0016 84.3882 36.0001C84.253 36.0001 84.0856 35.9272 84.0856 35.6465V35.1794H84.2443V35.6221C84.2443 35.7733 84.2972 35.8786 84.4382 35.8786C84.4838 35.8782 84.5282 35.8651 84.5654 35.841C84.6027 35.8169 84.6311 35.7829 84.6468 35.7436C84.657 35.7195 84.662 35.6938 84.6615 35.668V35.1794H84.8202V35.7625H84.8261Z" fill="#454545"/>
<path d="M85.067 35.8353C85.1313 35.8701 85.204 35.8896 85.2786 35.892C85.3932 35.892 85.4461 35.8406 85.4461 35.7733C85.4461 35.7031 85.4021 35.668 85.2845 35.6275C85.1258 35.5735 85.0493 35.4952 85.0493 35.398C85.0493 35.2685 85.1668 35.1631 85.3519 35.1631C85.4269 35.1616 85.5009 35.1784 85.5665 35.2117L85.5283 35.317C85.4744 35.2862 85.4125 35.2694 85.349 35.2685C85.255 35.2685 85.2021 35.3171 85.2021 35.3791C85.2021 35.4466 85.255 35.4763 85.3667 35.5168C85.5165 35.5682 85.5959 35.6383 85.5959 35.7571C85.5959 35.9003 85.4754 36 85.2697 36C85.1834 36.0019 85.0981 35.9823 85.0229 35.9433L85.067 35.8353Z" fill="#454545"/>
<path d="M85.9985 34.985V35.1766H86.2277V35.2873H85.9985V35.7219C85.9985 35.8218 86.0279 35.8785 86.119 35.8785C86.1496 35.8795 86.1802 35.8768 86.2101 35.8704L86.2159 35.9811C86.1705 35.9949 86.1228 36.0013 86.0749 36C86.0433 36.002 86.0116 35.9974 85.9821 35.9867C85.9527 35.9759 85.9262 35.9593 85.9046 35.9379C85.8607 35.892 85.8429 35.8218 85.8429 35.7274V35.29H85.7076V35.1794H85.8428V35.0282L85.9985 34.985Z" fill="#454545"/>
<path d="M86.4833 35.6059C86.4862 35.803 86.6214 35.8866 86.783 35.8866C86.8667 35.8893 86.9501 35.8745 87.0268 35.8435L87.0561 35.9487C86.9634 35.9853 86.8631 36.0029 86.7623 36.0001C86.4949 36.0001 86.3333 35.8355 86.3333 35.5926C86.3333 35.3498 86.4893 35.1605 86.7419 35.1605C87.0298 35.1605 87.1033 35.3899 87.1033 35.5357C87.1051 35.5584 87.1031 35.5811 87.0974 35.6032H86.4833V35.6059ZM86.9505 35.5033C86.9534 35.4115 86.9094 35.2683 86.7301 35.2683C86.5685 35.2683 86.498 35.4033 86.4863 35.5033H86.9505Z" fill="#454545"/>
<path d="M88.0553 34.8041V35.7759C88.0553 35.8488 88.0583 35.9298 88.0612 35.9838H87.9202L87.9143 35.8435H87.9084C87.8807 35.8925 87.8383 35.9333 87.7863 35.961C87.7342 35.9887 87.6747 36.0023 87.6146 36C87.4031 36 87.2385 35.8354 87.2385 35.5924C87.2385 35.3251 87.4177 35.1632 87.6322 35.1632C87.684 35.1606 87.7356 35.1705 87.7819 35.1918C87.8283 35.2131 87.8678 35.2451 87.8966 35.2847H87.9026V34.8041H88.0553ZM87.8966 35.506C87.8966 35.4851 87.8936 35.4642 87.8878 35.4439C87.8759 35.3963 87.8468 35.3538 87.8051 35.3234C87.7635 35.2929 87.7118 35.2764 87.6586 35.2766C87.4941 35.2766 87.3971 35.4115 87.3971 35.587C87.3971 35.749 87.4853 35.8867 87.6557 35.8867C87.7107 35.8862 87.7639 35.8686 87.8066 35.8367C87.8493 35.8048 87.8789 35.7606 87.8906 35.7112C87.8966 35.691 87.8996 35.6701 87.8995 35.6491V35.5059L87.8966 35.506Z" fill="#454545"/>
<path d="M89.3275 35.9541C89.2478 35.9857 89.1617 36.0013 89.0749 36C88.8104 36 88.64 35.8353 88.64 35.5897C88.64 35.3413 88.8251 35.1605 89.1102 35.1605C89.1863 35.159 89.2617 35.1738 89.3305 35.2037L89.2953 35.3143C89.238 35.2877 89.1744 35.2747 89.1102 35.2766C88.9104 35.2766 88.8017 35.4142 88.8017 35.5816C88.8017 35.7679 88.9339 35.8839 89.1043 35.8839C89.1724 35.8842 89.2396 35.8704 89.3011 35.8436L89.3275 35.9541Z" fill="#454545"/>
<path d="M90.2943 35.5735C90.2943 35.8704 90.068 36 89.8594 36C89.6242 36.0001 89.4392 35.8407 89.4392 35.587C89.4392 35.3198 89.6331 35.1605 89.8741 35.1605C90.1237 35.1605 90.2943 35.3305 90.2943 35.5735ZM89.6008 35.5816C89.6008 35.757 89.7095 35.8893 89.8653 35.8893C90.0151 35.8893 90.1297 35.7598 90.1297 35.5762C90.1297 35.4385 90.0563 35.2685 89.8682 35.2685C89.6831 35.2712 89.6008 35.4304 89.6008 35.5816Z" fill="#454545"/>
<path d="M90.494 35.3953C90.494 35.3116 90.494 35.2441 90.4882 35.1794H90.6292L90.638 35.3115H90.641C90.6705 35.2651 90.7131 35.2268 90.7642 35.2006C90.8154 35.1745 90.8733 35.1615 90.9318 35.1631C91.0523 35.1631 91.2404 35.2305 91.2404 35.5059V35.9865H91.0817V35.5222C91.0817 35.3926 91.0288 35.2846 90.8789 35.2846C90.8308 35.2858 90.7843 35.3007 90.7458 35.3273C90.7074 35.3539 90.6789 35.3909 90.6644 35.4331C90.6582 35.4551 90.6553 35.4778 90.6556 35.5006V35.9838H90.494V35.3953Z" fill="#454545"/>
<path d="M91.499 35.3953C91.499 35.3116 91.496 35.2441 91.4931 35.1794H91.6341L91.643 35.3115H91.6488C91.6777 35.2651 91.7197 35.2268 91.7704 35.2007C91.8212 35.1745 91.8787 35.1615 91.9368 35.1631C92.0573 35.1631 92.2453 35.2305 92.2453 35.5059V35.9865H92.0866V35.5222C92.0866 35.3926 92.0337 35.2846 91.8839 35.2846C91.8358 35.2858 91.7892 35.3007 91.7508 35.3273C91.7123 35.3539 91.6839 35.3909 91.6694 35.4331C91.6607 35.4547 91.6567 35.4776 91.6576 35.5006V35.9838H91.499V35.3953Z" fill="#454545"/>
<path d="M92.592 35.6059C92.5949 35.803 92.7301 35.8866 92.8917 35.8866C92.9755 35.8893 93.0588 35.8745 93.1355 35.8435L93.1648 35.9488C93.0731 35.9851 92.9738 36.0026 92.874 36.0001C92.6036 36.0001 92.442 35.8355 92.442 35.5926C92.442 35.3498 92.5979 35.1607 92.8534 35.1607C93.1413 35.1607 93.2148 35.3902 93.2148 35.5359C93.2151 35.5586 93.2131 35.5811 93.2089 35.6034H92.592V35.6059ZM93.0592 35.5033C93.0621 35.4115 93.0181 35.2683 92.8388 35.2683C92.6772 35.2683 92.6067 35.4033 92.595 35.5033H93.0592Z" fill="#454545"/>
<path d="M94.0347 35.9541C93.955 35.9857 93.8688 36.0013 93.782 36C93.5176 36 93.3472 35.8353 93.3472 35.5897C93.3472 35.3413 93.5323 35.1605 93.8173 35.1605C93.8934 35.159 93.9689 35.1738 94.0377 35.2037L94.0024 35.3143C93.9452 35.2877 93.8815 35.2747 93.8173 35.2766C93.6175 35.2766 93.5088 35.4142 93.5088 35.5816C93.5088 35.7679 93.641 35.8839 93.8114 35.8839C93.8795 35.8842 93.9468 35.8704 94.0083 35.8436L94.0347 35.9541Z" fill="#454545"/>
<path d="M94.4344 34.985V35.1766H94.6636V35.2873H94.4344V35.7219C94.4344 35.8218 94.4668 35.8785 94.5549 35.8785C94.5865 35.8793 94.6181 35.8766 94.6489 35.8704L94.6548 35.9811C94.6094 35.9949 94.5616 36.0013 94.5138 36C94.4822 36.0017 94.4505 35.997 94.4211 35.9863C94.3916 35.9756 94.3651 35.9591 94.3434 35.9379C94.2994 35.892 94.2817 35.8218 94.2817 35.7274V35.29H94.1463V35.1794H94.2815V35.0282L94.4344 34.985Z" fill="#454545"/>
<path d="M94.9191 35.6059C94.9221 35.803 95.0572 35.8866 95.2188 35.8866C95.3017 35.8896 95.3842 35.8749 95.4597 35.8435L95.4891 35.9488C95.3974 35.9851 95.2981 36.0026 95.1982 36.0001C94.9279 36.0001 94.7663 35.8355 94.7663 35.5926C94.7663 35.3498 94.9221 35.1607 95.1777 35.1607C95.4656 35.1607 95.5391 35.3902 95.5391 35.5359C95.5393 35.5586 95.5374 35.5811 95.5332 35.6034H94.9191V35.6059ZM95.3863 35.5033C95.3892 35.4115 95.3452 35.2683 95.1659 35.2683C95.0043 35.2683 94.9338 35.4033 94.9221 35.5033H95.3863Z" fill="#454545"/>
<path d="M96.4913 34.8041V35.7759C96.4913 35.8488 96.4972 35.9298 96.5001 35.9838H96.3591L96.3503 35.8435H96.3444C96.3163 35.8928 96.2735 35.9338 96.2209 35.9615C96.1683 35.9893 96.1082 36.0026 96.0477 36C95.8361 36 95.6715 35.8354 95.6715 35.5925C95.6686 35.3253 95.8508 35.1633 96.0653 35.1633C96.117 35.1608 96.1685 35.1706 96.2149 35.1919C96.2612 35.2132 96.3007 35.2452 96.3295 35.2847H96.3354V34.8041H96.4913ZM96.3355 35.506C96.3364 35.4852 96.3344 35.4643 96.3296 35.4439C96.3177 35.3963 96.2886 35.3538 96.2469 35.3234C96.2053 35.2929 96.1536 35.2764 96.1004 35.2766C95.9358 35.2766 95.8359 35.4115 95.8359 35.587C95.8359 35.749 95.9241 35.8867 96.0945 35.8867C96.1492 35.8861 96.202 35.8684 96.2442 35.8365C96.2865 35.8046 96.3155 35.7604 96.3267 35.7112C96.3317 35.6909 96.3336 35.67 96.3325 35.6491V35.506L96.3355 35.506Z" fill="#454545"/>
<path fill-rule="evenodd" clip-rule="evenodd" d="M65.0486 30.6605C65.0486 30.6605 65.2248 30.2556 65.2777 30.1287V30.1288H65.3511C65.416 30.4849 65.5103 30.8359 65.6332 31.1788C65.9506 32.0615 66.4089 32.7796 66.9936 33.3195C67.5225 33.8027 68.1366 34.0429 68.8242 34.0483C69.6527 34.0564 70.0759 33.9486 70.2639 33.8972H70.3199C69.8528 34.2052 69.321 34.4203 68.7583 34.5288C68.5298 34.5729 68.2983 34.599 68.0662 34.6071H67.7519C67.5172 34.5989 67.2831 34.5723 67.0521 34.5273C66.4897 34.4178 65.9583 34.2018 65.4919 33.8929C65.0255 33.5841 64.6343 33.1893 64.3434 32.7337C64.334 32.7057 64.3301 32.6765 64.3316 32.6473C64.3371 32.534 64.3569 32.4217 64.3904 32.3126C64.4609 32.0696 64.6813 31.5135 65.0486 30.6605ZM63.7675 30.8035C63.7675 30.8899 63.7733 30.9735 63.7792 31.0571L63.7792 31.0572C63.855 30.8876 63.9359 30.7014 64.0237 30.4995C64.0686 30.3962 64.1154 30.2887 64.1641 30.1772L64.32 29.8182C64.6607 29.0219 64.9075 28.4307 65.0515 28.0528C64.6455 28.4072 64.3223 28.8339 64.1016 29.3068C63.8869 29.7666 63.7735 30.2607 63.7677 30.7606C63.7675 30.7749 63.7674 30.7892 63.7675 30.8035C63.7675 30.8035 63.7675 30.8035 63.7675 30.8035ZM72.036 30.505C72.0436 30.6035 72.0475 30.703 72.0475 30.8035C72.0475 30.9858 72.0347 31.165 72.0099 31.3405C71.9592 31.6708 71.8611 31.9943 71.7175 32.3025C71.4973 32.7754 71.1747 33.2022 70.7694 33.5569L71.0426 32.8983C71.2189 32.4934 71.354 32.2073 71.448 32.0426C71.5146 31.9171 71.604 31.803 71.7125 31.7052L71.9329 31.5243H70.4755L70.549 31.6701C70.5577 31.6954 70.5616 31.7219 70.5607 31.7484C70.5582 31.8196 70.5463 31.8903 70.5255 31.9589C70.456 32.1969 70.3696 32.4305 70.2669 32.6581C70.2669 32.6581 70.0024 33.2574 69.9407 33.3977C69.8584 33.4112 69.7556 33.4247 69.688 33.4301L69.4 33.4436C68.7918 33.4436 68.3804 33.2898 68.1777 32.9901C67.9721 32.6878 67.9927 32.2478 68.2337 31.6836C68.4834 31.1059 68.8507 30.6416 69.3208 30.3042L69.3209 30.304C69.788 29.9721 70.3079 29.802 70.8634 29.8047C71.1396 29.8047 71.3717 29.8479 71.551 29.9342C71.7233 30.0152 71.8617 30.1461 71.9447 30.3068L72.0329 30.4741C72.034 30.4844 72.035 30.4947 72.036 30.505ZM67.9105 27C67.5849 27.0004 67.2604 27.0358 66.9438 27.1053L66.7351 27.2564C66.6205 27.3374 66.4971 27.4967 66.362 27.7289C66.2211 27.9718 65.9653 28.5252 65.598 29.3755C65.598 29.3755 65.5627 29.4565 65.5304 29.5321C65.6044 29.5066 65.6761 29.4759 65.7449 29.4403C66.0151 29.2923 66.2752 29.1291 66.5236 28.9517C67.3228 28.3983 67.8722 27.9988 68.1543 27.7693C68.4922 27.4967 68.5979 27.3536 68.6303 27.2807L68.648 27.2429C68.6524 27.2272 68.6583 27.2119 68.6656 27.197C68.6656 27.1916 68.6715 27.1025 68.6744 27.0675C68.4226 27.023 68.1668 27.0004 67.9105 27ZM66.3855 29.7183C67.2816 29.0813 68.0632 28.5441 68.7126 28.1176L68.7125 28.1175C69.1797 27.8098 69.547 27.5803 69.8085 27.4291C70.6583 27.8348 71.3298 28.4974 71.7096 29.3052C71.5539 29.2971 71.404 29.2917 71.2688 29.2917C70.3433 29.2917 69.5059 29.5103 68.7831 29.9422C68.0677 30.366 67.5164 30.9868 67.2082 31.7157C67.1494 31.8525 67.0994 31.9922 67.0583 32.1343L67.0577 32.1329C67.0109 32.0362 66.9641 31.9394 66.9232 31.8373C66.7028 31.3109 66.5236 30.5957 66.3855 29.7183Z" fill="#454545"/>
<path d="M79.1729 31.2895V33.9133H78.0534V31.2949C78.0544 31.1946 78.0324 31.0952 77.9888 31.0033C77.9467 30.9154 77.888 30.8349 77.8154 30.7658C77.7432 30.6975 77.6575 30.6425 77.5629 30.6038C77.465 30.5631 77.3588 30.542 77.2514 30.5417C77.1439 30.5417 77.0377 30.5629 76.9399 30.6038C76.8453 30.6425 76.7595 30.6975 76.6873 30.7658C76.6156 30.8351 76.5579 30.9155 76.5168 31.0033C76.4732 31.0952 76.4512 31.1946 76.4522 31.2949V33.9133H75.3326V31.2949C75.3336 31.1946 75.3115 31.0952 75.2679 31.0033C75.2268 30.9155 75.1691 30.8351 75.0975 30.7658C75.0252 30.6975 74.9395 30.6425 74.8448 30.6038C74.7469 30.5631 74.6408 30.542 74.5333 30.5417C74.4259 30.5417 74.3197 30.5629 74.2219 30.6038C74.1263 30.6425 74.0397 30.6974 73.9664 30.7658C73.8947 30.8351 73.837 30.9155 73.7959 31.0033C73.7523 31.0952 73.7303 31.1946 73.7313 31.2949V33.9133H72.6117V29.219H72.9379C73.5461 29.219 73.7282 29.6671 73.7282 29.6671C73.9784 29.5562 74.2527 29.499 74.5304 29.4997C74.7901 29.4974 75.0474 29.5453 75.2856 29.6401C75.5134 29.7321 75.7206 29.8621 75.8968 30.0234C76.0704 29.8604 76.277 29.7302 76.505 29.6401C76.7384 29.5484 76.9895 29.5007 77.2434 29.4997C77.4973 29.4988 77.7488 29.5447 77.983 29.6347C78.2069 29.7201 78.4105 29.8448 78.5824 30.0018C78.9403 30.3249 79.1505 30.7613 79.17 31.222L79.1729 31.2895Z" fill="#454545"/>
<path d="M89.5892 27.9556V31.6511C89.5915 31.9583 89.5245 32.2625 89.3923 32.5446C89.2657 32.8164 89.0843 33.0637 88.8576 33.2735C88.6285 33.4816 88.3582 33.6475 88.0613 33.7621C87.753 33.8815 87.4218 33.943 87.0872 33.943C86.7527 33.943 86.4215 33.8815 86.1132 33.7621C85.5159 33.5301 85.0406 33.0934 84.7881 32.5447C84.6557 32.2626 84.5886 31.9583 84.5911 31.6511C84.5906 31.3433 84.6576 31.0385 84.7881 30.7549C85.0404 30.2047 85.5156 29.7662 86.1133 29.5321C86.6449 29.3266 87.2372 29.2952 87.7911 29.443C88.0131 29.5038 88.2247 29.5929 88.4199 29.7075V27.9556H89.5892ZM87.0887 32.8686C87.2672 32.8694 87.444 32.8373 87.6088 32.7741C87.7664 32.7131 87.91 32.6252 88.0319 32.515C88.1537 32.4032 88.2514 32.2713 88.3198 32.1263C88.4239 31.9019 88.4521 31.654 88.4007 31.4147C88.3494 31.1755 88.2208 30.956 88.0318 30.7847C87.9091 30.674 87.7658 30.5844 87.6087 30.5201C87.4441 30.4568 87.2672 30.4246 87.0887 30.4256C86.9112 30.4254 86.7354 30.4575 86.5715 30.5201C86.413 30.5821 86.2693 30.672 86.1484 30.7847C86.0288 30.8969 85.9331 31.0288 85.8663 31.1734C85.7292 31.4786 85.7292 31.8212 85.8663 32.1263C85.9327 32.2712 86.0284 32.4031 86.1484 32.5151C86.2695 32.6261 86.4133 32.7142 86.5715 32.7742C86.7354 32.8368 86.9112 32.8689 87.0887 32.8686Z" fill="#454545"/>
<path d="M89.9976 33.9484V29.6887H91.1641V33.9484H89.9976Z" fill="#454545"/>
<path d="M96.4649 31.6512V33.943H96.2122C96.0409 33.9447 95.8711 33.9139 95.7134 33.8526C95.5557 33.7913 95.4134 33.7007 95.2954 33.5867C95.0996 33.7003 94.8882 33.7892 94.6667 33.8512C94.1128 33.999 93.5205 33.9676 92.9889 33.7622C92.6916 33.6465 92.4206 33.4808 92.1897 33.2735C91.9613 33.0634 91.7788 32.8151 91.6518 32.542C91.5197 32.2589 91.4526 31.9538 91.455 31.6458C91.4526 31.3377 91.5197 31.0326 91.6518 30.7495C91.9061 30.1957 92.3858 29.755 92.9887 29.5214C93.2975 29.402 93.6292 29.3405 93.9642 29.3405C94.2993 29.3405 94.6309 29.402 94.9397 29.5214C95.237 29.638 95.5072 29.8057 95.736 30.0154C95.9625 30.2274 96.1439 30.4764 96.2708 30.7497C96.4029 31.0328 96.4699 31.3379 96.4676 31.6459V31.6513L96.4649 31.6512ZM93.9644 32.8686C94.1419 32.8689 94.3176 32.8367 94.4815 32.7741C94.6415 32.7132 94.7864 32.6232 94.9076 32.5096C95.0296 32.398 95.1273 32.266 95.1954 32.1207C95.2644 31.9694 95.2993 31.8069 95.2982 31.6429C95.2993 31.478 95.2643 31.3147 95.1954 31.1625C95.1284 31.0159 95.0305 30.8829 94.9074 30.771C94.7858 30.6592 94.6422 30.5694 94.4843 30.5065C94.2397 30.4106 93.9693 30.3846 93.7083 30.4317C93.4474 30.4789 93.2079 30.5972 93.0211 30.771C92.8999 30.8843 92.8023 31.0169 92.7331 31.1625C92.596 31.4686 92.596 31.812 92.7331 32.1181C92.8005 32.2645 92.8983 32.3975 93.0211 32.5095C93.1432 32.6208 93.2867 32.7105 93.4442 32.7741C93.6088 32.8375 93.7857 32.8696 93.9643 32.8686L93.9644 32.8686Z" fill="#454545"/>
<path d="M84.3678 31.2084L84.359 31.1681C84.3038 30.9082 84.1983 30.6595 84.0475 30.4338C83.9019 30.2121 83.7172 30.0141 83.501 29.848C83.2834 29.6812 83.0358 29.5506 82.7694 29.4619C82.4916 29.3693 82.1981 29.3227 81.9026 29.3242C81.5663 29.3213 81.2331 29.3829 80.9242 29.5051C80.3238 29.7399 79.8457 30.1791 79.5901 30.7307C79.4572 31.0144 79.3901 31.3205 79.3933 31.6294V31.6429C79.3901 31.9519 79.4571 32.2581 79.5901 32.5419C79.7178 32.8146 79.9002 33.0627 80.1279 33.2734C80.3566 33.4831 80.6269 33.6508 80.9241 33.7674C81.233 33.8896 81.5663 33.9512 81.9026 33.9483C82.1981 33.9498 82.4916 33.9032 82.7694 33.8106C83.0358 33.722 83.2834 33.5914 83.501 33.4247C83.7172 33.2586 83.9019 33.0606 84.0475 32.8389C84.1339 32.7045 84.2076 32.5636 84.2679 32.4178C83.7214 32.4232 83.4011 32.4151 82.9427 32.4151C82.8597 32.5074 82.7627 32.5883 82.6548 32.6553C82.4351 32.8008 82.1703 32.8774 81.8995 32.874C81.7232 32.8755 81.5484 32.8445 81.3853 32.7829C81.2223 32.7212 81.0744 32.6301 80.9504 32.5149C80.8395 32.4073 80.7491 32.2831 80.683 32.1478C80.6629 32.1092 80.6452 32.0696 80.6301 32.0291H84.3735C84.3735 32.0291 84.4532 31.5972 84.3678 31.2084ZM80.6773 31.1301C80.7448 30.9952 80.9477 30.7576 80.9477 30.7576C81.0709 30.6463 81.2153 30.5566 81.3737 30.4931C81.5395 30.43 81.7173 30.3978 81.8967 30.3986C82.167 30.3955 82.4314 30.4711 82.652 30.6145C82.8549 30.7451 83.0161 30.9231 83.119 31.1301H80.6773Z" fill="#454545"/>
<path d="M91.2579 28.563C91.2579 28.4477 91.2207 28.3349 91.1509 28.239C91.0812 28.1432 90.9821 28.0684 90.8661 28.0243C90.7502 27.9802 90.6225 27.9686 90.4994 27.9911C90.3763 28.0136 90.2632 28.0691 90.1745 28.1507C90.0857 28.2322 90.0253 28.3361 90.0008 28.4492C89.9763 28.5623 89.9889 28.6796 90.0369 28.7861C90.0849 28.8927 90.1663 28.9837 90.2706 29.0478C90.375 29.1119 90.4977 29.1461 90.6232 29.1461C90.7066 29.1461 90.7892 29.1311 90.8662 29.1019C90.9433 29.0726 91.0133 29.0296 91.0722 28.9755C91.1312 28.9213 91.1779 28.857 91.2098 28.7862C91.2417 28.7154 91.258 28.6396 91.2579 28.563Z" fill="#454545"/>
</g>
<path d="M46.8194 33.4286H46.1337V29.4241C46.1337 29.1629 46.1856 28.9431 46.2894 28.7645C46.3956 28.5837 46.5476 28.4475 46.7453 28.356C46.9429 28.2623 47.1776 28.2154 47.4494 28.2154C47.5285 28.2154 47.6076 28.2199 47.6866 28.2288C47.7681 28.2377 47.8472 28.2511 47.9238 28.269L47.8867 28.7746C47.8349 28.7634 47.7756 28.7556 47.7089 28.7511C47.6446 28.7467 47.5804 28.7444 47.5161 28.7444C47.3704 28.7444 47.2444 28.7712 47.1381 28.8248C47.0343 28.8761 46.9553 28.952 46.9009 29.0525C46.8466 29.1529 46.8194 29.2768 46.8194 29.4241V33.4286ZM47.6718 29.8058V30.2812H45.5V29.8058H47.6718Z" fill="#454545" fill-opacity="0.6"/>
<path d="M49.1209 30.375V33.4286H48.4353V29.8058H49.1024L49.1209 30.375ZM50.3736 29.7857L50.3698 30.3616C50.313 30.3504 50.2587 30.3437 50.2068 30.3415C50.1574 30.3371 50.1005 30.3348 50.0363 30.3348C49.8782 30.3348 49.7386 30.3571 49.6175 30.4018C49.4964 30.4464 49.3939 30.5089 49.3099 30.5893C49.2259 30.6696 49.1592 30.7656 49.1098 30.8772C49.0628 30.9866 49.0319 31.1071 49.0171 31.2388L48.8244 31.3393C48.8244 31.1205 48.8479 30.9152 48.8948 30.7232C48.9442 30.5312 49.0196 30.3616 49.1209 30.2143C49.2222 30.0647 49.3507 29.9487 49.5063 29.8661C49.6645 29.7812 49.8522 29.7388 50.0697 29.7388C50.1191 29.7388 50.1759 29.7444 50.2401 29.7556C50.3044 29.7645 50.3488 29.7746 50.3736 29.7857Z" fill="#454545" fill-opacity="0.6"/>
<path d="M50.7516 31.6574V31.5804C50.7516 31.3192 50.7936 31.077 50.8776 30.8538C50.9616 30.6283 51.0827 30.433 51.2408 30.2679C51.3989 30.1004 51.5904 29.971 51.8152 29.8795C52.0401 29.7857 52.2921 29.7388 52.5713 29.7388C52.853 29.7388 53.1062 29.7857 53.331 29.8795C53.5584 29.971 53.7511 30.1004 53.9092 30.2679C54.0698 30.433 54.1921 30.6283 54.2761 30.8538C54.3601 31.077 54.4021 31.3192 54.4021 31.5804V31.6574C54.4021 31.9185 54.3601 32.1607 54.2761 32.3839C54.1921 32.6071 54.0698 32.8025 53.9092 32.9699C53.7511 33.135 53.5596 33.2645 53.3348 33.3583C53.1124 33.4498 52.8604 33.4955 52.5787 33.4955C52.297 33.4955 52.0438 33.4498 51.8189 33.3583C51.5941 33.2645 51.4014 33.135 51.2408 32.9699C51.0827 32.8025 50.9616 32.6071 50.8776 32.3839C50.7936 32.1607 50.7516 31.9185 50.7516 31.6574ZM51.4372 31.5804V31.6574C51.4372 31.8382 51.4607 32.0089 51.5076 32.1696C51.5546 32.3281 51.625 32.4687 51.7189 32.5915C51.8152 32.7143 51.9351 32.8114 52.0784 32.8828C52.2217 32.952 52.3885 32.9866 52.5787 32.9866C52.7665 32.9866 52.9308 32.952 53.0716 32.8828C53.2149 32.8114 53.3335 32.7143 53.4274 32.5915C53.5213 32.4687 53.5917 32.3281 53.6387 32.1696C53.6881 32.0089 53.7128 31.8382 53.7128 31.6574V31.5804C53.7128 31.4018 53.6881 31.2333 53.6387 31.0748C53.5917 30.9141 53.5201 30.7723 53.4237 30.6496C53.3298 30.5246 53.2112 30.4263 53.0679 30.3549C52.9271 30.2835 52.7615 30.2478 52.5713 30.2478C52.3835 30.2478 52.218 30.2835 52.0747 30.3549C51.9338 30.4263 51.8152 30.5246 51.7189 30.6496C51.625 30.7723 51.5546 30.9141 51.5076 31.0748C51.4607 31.2333 51.4372 31.4018 51.4372 31.5804Z" fill="#454545" fill-opacity="0.6"/>
<path d="M55.9439 30.5257V33.4286H55.2545V29.8058H55.9068L55.9439 30.5257ZM55.803 31.4799L55.4843 31.4699C55.4868 31.2221 55.5226 30.9933 55.5918 30.7835C55.661 30.5714 55.7635 30.3873 55.8994 30.231C56.0353 30.0748 56.2045 29.9542 56.4071 29.8694C56.6097 29.7824 56.8445 29.7388 57.1113 29.7388C57.2991 29.7388 57.472 29.7634 57.6302 29.8125C57.7883 29.8594 57.9254 29.9342 58.0415 30.0368C58.1577 30.1395 58.2478 30.2712 58.3121 30.4319C58.3763 30.5926 58.4084 30.7868 58.4084 31.0145V33.4286H57.7228V31.0446C57.7228 30.8549 57.687 30.7031 57.6153 30.5893C57.5461 30.4754 57.4473 30.3929 57.3188 30.3415C57.1904 30.2879 57.0396 30.2612 56.8667 30.2612C56.6641 30.2612 56.4948 30.2935 56.3589 30.3583C56.2231 30.423 56.1143 30.5123 56.0328 30.6261C55.9513 30.74 55.892 30.8705 55.8549 31.0179C55.8203 31.1629 55.803 31.317 55.803 31.4799ZM58.401 31.1384L57.9415 31.2656C57.9439 31.067 57.9798 30.8761 58.0489 30.6931C58.1206 30.51 58.2231 30.3471 58.3566 30.2042C58.4924 30.0614 58.6592 29.9487 58.8569 29.8661C59.0545 29.7812 59.2806 29.7388 59.5351 29.7388C59.7501 29.7388 59.9403 29.7645 60.1058 29.8158C60.2739 29.8672 60.4147 29.9464 60.5283 30.0536C60.6445 30.1585 60.7322 30.2935 60.7915 30.4587C60.8508 30.6239 60.8804 30.8203 60.8804 31.048V33.4286H60.1911V31.0413C60.1911 30.8382 60.1553 30.6808 60.0836 30.5692C60.0144 30.4554 59.9156 30.3761 59.7871 30.3315C59.6611 30.2846 59.5104 30.2612 59.335 30.2612C59.1843 30.2612 59.0508 30.2846 58.9347 30.3315C58.8186 30.3783 58.721 30.4431 58.6419 30.5257C58.5629 30.606 58.5023 30.6987 58.4603 30.8036C58.4208 30.9085 58.401 31.0201 58.401 31.1384Z" fill="#454545" fill-opacity="0.6"/>
<defs>
<radialGradient id="paint0_radial_2198_22282" cx="0" cy="0" r="1" gradientUnits="userSpaceOnUse" gradientTransform="translate(4.92033 5.16973) rotate(90) scale(4.8488 4.92033)">
<stop offset="0.309022" stop-color="#1B63D4"/>
<stop offset="1" stop-color="#094AAF"/>
</radialGradient>
<radialGradient id="paint1_radial_2198_22282" cx="0" cy="0" r="1" gradientUnits="userSpaceOnUse" gradientTransform="translate(5.05766 15.8372) rotate(90) scale(4.8488 4.92033)">
<stop offset="0.309022" stop-color="#1B63D4"/>
<stop offset="1" stop-color="#094AAF"/>
</radialGradient>
<radialGradient id="paint2_radial_2198_22282" cx="0" cy="0" r="1" gradientUnits="userSpaceOnUse" gradientTransform="translate(14.4063 10.5035) rotate(90) scale(4.8488 4.92033)">
<stop offset="0.309022" stop-color="#1B63D4"/>
<stop offset="1" stop-color="#094AAF"/>
</radialGradient>
<clipPath id="clip0_2198_22282">
<rect width="32.7325" height="9" fill="white" transform="translate(63.7675 27)"/>
</clipPath>
</defs>
</svg>
