<?xml version="1.0" encoding="UTF-8" standalone="no"?>
<svg
   version="1.1"
   id="Layer_1"
   x="0px"
   y="0px"
   width="100%"
   viewBox="0 0 788 283"
   enable-background="new 0 0 788 283"
   xml:space="preserve"
   sodipodi:docname="logo_ngage.svg"
   inkscape:version="1.4.2 (f4327f4, 2025-05-13)"
   xmlns:inkscape="http://www.inkscape.org/namespaces/inkscape"
   xmlns:sodipodi="http://sodipodi.sourceforge.net/DTD/sodipodi-0.dtd"
   xmlns="http://www.w3.org/2000/svg"
   xmlns:svg="http://www.w3.org/2000/svg"><defs
   id="defs9" /><sodipodi:namedview
   id="namedview9"
   pagecolor="#505050"
   bordercolor="#eeeeee"
   borderopacity="1"
   inkscape:showpageshadow="0"
   inkscape:pageopacity="0"
   inkscape:pagecheckerboard="0"
   inkscape:deskcolor="#505050"
   inkscape:zoom="2.2538071"
   inkscape:cx="394"
   inkscape:cy="141.31644"
   inkscape:window-width="1920"
   inkscape:window-height="1009"
   inkscape:window-x="-8"
   inkscape:window-y="-8"
   inkscape:window-maximized="1"
   inkscape:current-layer="Layer_1" />
<path
   fill="#FEFEFE"
   opacity="1.000000"
   stroke="none"
   d=" M606.000000,284.000000   C404.046997,284.000000 202.593994,284.000000 1.070495,284.000000   C1.070495,189.735718 1.070495,95.471352 1.070495,1.103497   C263.666656,1.103497 526.333313,1.103497 788.978455,1.103497   C788.978455,95.406067 788.978455,189.703033 788.978455,284.000000   C728.137939,284.000000 667.318970,284.000000 606.000000,284.000000  M179.837219,135.035172   C183.168533,134.699707 186.499863,134.364227 189.983856,134.772491   C195.996017,154.408630 207.563019,170.001572 225.346725,180.183777   C252.417480,195.683350 279.838348,194.280746 307.166809,179.153122   C307.940857,198.139420 301.381836,212.828262 285.153137,221.609940   C267.489685,231.167999 250.778290,227.823853 235.445251,214.911011   C225.959503,222.153152 216.493744,229.380051 206.804504,236.777557   C208.243561,238.423477 209.252563,239.721619 210.405884,240.875519   C236.658203,267.140656 280.354218,270.619202 310.348450,248.625992   C331.916626,232.811172 343.071472,211.477142 343.205261,184.586853   C343.247040,176.186203 343.211761,167.785156 343.211761,158.797363   C373.786591,193.655472 409.062439,199.886475 449.573486,179.349335   C450.945465,184.891006 453.126923,190.297470 459.697052,190.698456   C468.104919,191.211594 476.567810,190.823013 485.747375,190.823013   C485.747375,182.287903 485.747375,174.172043 485.747375,165.318192   C510.684021,191.641968 550.059204,200.055161 585.722961,179.505493   C588.207336,194.032761 581.374939,210.435303 568.093018,219.181900   C549.395325,231.494919 531.338013,228.858154 514.374878,214.977112   C504.790802,222.298141 495.430450,229.448303 485.800629,236.804291   C486.601379,237.716904 487.098694,238.333649 487.646881,238.901276   C508.772644,260.775360 534.642212,267.712677 563.533264,260.416779   C593.217590,252.920578 612.728333,233.350540 619.739319,203.461365   C622.690125,190.881470 621.676880,177.369385 622.430298,164.279022   C622.537720,162.412476 622.445068,160.534439 622.445068,158.661713   C624.465210,159.620605 625.334412,160.749451 626.212585,161.871277   C638.867126,178.036102 655.124695,188.265274 675.538391,191.359955   C689.325867,193.450104 702.933594,192.716446 715.307434,185.603607   C730.919434,176.629333 731.994629,154.173767 717.560486,144.713852   C689.032837,168.982666 652.911682,150.104187 648.836731,125.997559   C650.682922,125.997559 652.460754,125.997597 654.238586,125.997559   C687.232910,125.996918 720.227295,126.015778 753.221619,125.982162   C761.659485,125.973572 766.884216,120.852348 766.447876,112.629036   C766.149231,107.001091 765.763611,101.247620 764.345520,95.830727   C756.235474,64.851990 736.569946,44.717964 705.323425,37.964977   C673.362488,31.057602 646.487488,41.177559 625.979370,66.932701   C622.342651,71.499870 619.547668,76.737328 616.330322,81.717384   C602.302124,53.487850 580.468140,36.462856 548.475403,34.627777   C516.518494,32.794754 492.829224,47.226612 475.655396,73.617477   C443.710571,19.515348 364.943695,21.765656 336.296509,79.350784   C335.519379,78.100929 334.775452,77.031921 334.158661,75.894012   C317.471954,45.108955 285.069244,29.927052 250.490158,35.558155   C223.027008,40.030460 191.604172,65.253220 186.475357,103.265572   C183.737244,103.211197 180.999146,103.156822 178.141251,102.242989   C174.464676,74.164764 159.288681,53.908813 134.213501,41.994450   C81.944534,17.159071 22.886276,54.991692 22.222422,112.126930   C21.932077,137.115875 22.170284,162.110992 22.183769,187.103302   C22.184380,188.233047 22.336468,189.362717 22.414282,190.440903   C38.023136,192.283081 55.968418,178.339188 57.849686,161.577011   C59.309792,148.567337 58.615108,135.316452 58.891506,122.173058   C59.010471,116.515808 58.508308,110.751900 59.415184,105.221222   C63.083855,82.847359 82.358910,68.697647 105.791077,70.720245   C125.775742,72.445274 142.446213,90.943161 142.690125,111.907043   C142.849060,125.567665 142.632629,139.232559 142.778000,152.893478   C142.818390,156.690018 143.131866,160.582092 144.036392,164.253876   C147.883698,179.871292 164.153305,192.136398 178.948425,190.409393   C178.948425,172.015381 178.948425,153.558075 179.837219,135.035172  z"
   id="path1"
   style="fill:#fafbfc;fill-opacity:1" />
<path
   fill="#020203"
   opacity="1.000000"
   stroke="none"
   d=" M187.197174,102.940369   C191.604172,65.253220 223.027008,40.030460 250.490158,35.558155   C285.069244,29.927052 317.471954,45.108955 334.158661,75.894012   C334.775452,77.031921 335.519379,78.100929 336.296509,79.350784   C364.943695,21.765656 443.710571,19.515348 475.655396,73.617477   C492.829224,47.226612 516.518494,32.794754 548.475403,34.627777   C580.468140,36.462856 602.302124,53.487850 616.330322,81.717384   C619.547668,76.737328 622.342651,71.499870 625.979370,66.932701   C646.487488,41.177559 673.362488,31.057602 705.323425,37.964977   C736.569946,44.717964 756.235474,64.851990 764.345520,95.830727   C765.763611,101.247620 766.149231,107.001091 766.447876,112.629036   C766.884216,120.852348 761.659485,125.973572 753.221619,125.982162   C720.227295,126.015778 687.232910,125.996918 654.238586,125.997559   C652.460754,125.997597 650.682922,125.997559 648.836731,125.997559   C652.911682,150.104187 689.032837,168.982666 717.560486,144.713852   C731.994629,154.173767 730.919434,176.629333 715.307434,185.603607   C702.933594,192.716446 689.325867,193.450104 675.538391,191.359955   C655.124695,188.265274 638.867126,178.036102 626.212585,161.871277   C625.334412,160.749451 624.465210,159.620605 622.445068,158.661713   C622.445068,160.534439 622.537720,162.412476 622.430298,164.279022   C621.676880,177.369385 622.690125,190.881470 619.739319,203.461365   C612.728333,233.350540 593.217590,252.920578 563.533264,260.416779   C534.642212,267.712677 508.772644,260.775360 487.646881,238.901276   C487.098694,238.333649 486.601379,237.716904 485.800629,236.804291   C495.430450,229.448303 504.790802,222.298141 514.374878,214.977112   C531.338013,228.858154 549.395325,231.494919 568.093018,219.181900   C581.374939,210.435303 588.207336,194.032761 585.722961,179.505493   C550.059204,200.055161 510.684021,191.641968 485.747375,165.318192   C485.747375,174.172043 485.747375,182.287903 485.747375,190.823013   C476.567810,190.823013 468.104919,191.211594 459.697052,190.698456   C453.126923,190.297470 450.945465,184.891006 449.573486,179.349335   C409.062439,199.886475 373.786591,193.655472 343.211761,158.797363   C343.211761,167.785156 343.247040,176.186203 343.205261,184.586853   C343.071472,211.477142 331.916626,232.811172 310.348450,248.625992   C280.354218,270.619202 236.658203,267.140656 210.405884,240.875519   C209.252563,239.721619 208.243561,238.423477 206.804504,236.777557   C216.493744,229.380051 225.959503,222.153152 235.445251,214.911011   C250.778290,227.823853 267.489685,231.167999 285.153137,221.609940   C301.381836,212.828262 307.940857,198.139420 307.166809,179.153122   C279.838348,194.280746 252.417480,195.683350 225.346725,180.183777   C207.563019,170.001572 195.996017,154.408630 190.140686,134.149994   C202.335724,124.793915 201.665070,111.551521 188.812637,104.073326   C188.246201,103.743736 187.734421,103.320168 187.197174,102.940369  M432.683868,69.737045   C421.190338,61.960846 408.674530,59.414181 395.115509,62.550049   C376.626770,66.826035 362.061554,83.420738 360.099182,102.323746   C357.993530,122.606934 368.541077,141.227142 386.689178,149.583740   C388.682892,150.501801 390.792938,151.954651 391.961792,153.740234   C396.992737,161.425537 404.319336,165.291229 413.016144,166.645050   C419.152649,167.600311 424.924744,166.102524 430.402344,162.561081   C425.853027,159.244736 421.994843,156.432220 417.650177,153.265060   C423.533905,150.080627 428.420013,147.953323 432.746155,145.004517   C450.755585,132.728882 449.551544,112.322159 430.447144,101.995888   C429.144897,101.291985 427.986572,99.792000 427.396606,98.394127   C425.145172,93.059616 421.344971,89.326675 416.297150,86.701202   C407.532013,82.142288 396.952820,83.839180 389.570953,91.011009   C382.501923,97.878876 380.730774,109.360657 385.366974,118.264893   C389.919434,127.008423 399.517822,132.226685 409.055542,130.141052   C413.593445,129.148743 417.706116,126.280930 422.082855,124.431839   C423.110901,123.997513 424.428162,124.247726 425.612335,124.183022   C425.446320,125.363274 425.597687,126.735291 425.030914,127.673409   C424.377655,128.754639 423.140778,129.521667 422.070404,130.306549   C410.544006,138.758545 393.308624,136.461868 384.265930,125.291237   C374.760498,113.548958 376.453552,96.081673 387.822388,86.120300   C399.229370,76.125511 422.310791,76.608650 431.381195,95.628235   C434.479370,102.124840 439.443848,103.939629 444.703217,101.174416   C449.418396,98.695320 451.132416,92.828163 447.451935,87.317230   C443.348969,81.173775 438.062866,75.820450 432.683868,69.737045  M531.973877,152.810898   C551.075989,157.634460 569.492920,151.003006 579.376282,135.742477   C593.092834,114.563324 585.729553,86.716507 563.283081,74.880127   C542.339783,63.836384 515.040649,73.598701 505.681274,95.478859   C495.750244,118.695320 507.304108,144.493362 531.973877,152.810898  M307.061829,107.816116   C303.776215,85.113724 286.673431,70.435028 263.716400,70.614319   C241.889587,70.784790 224.622025,87.876549 223.190292,110.727791   C221.876526,131.696335 237.908798,151.297485 258.632050,154.059097   C286.308319,157.747284 307.993835,137.487427 307.061829,107.816116  M676.954346,73.184952   C661.668579,78.326981 649.240784,91.088707 649.074219,101.780647   C675.306641,101.780647 701.538330,101.780647 727.827026,101.780647   C723.976074,81.340233 700.483887,67.988831 676.954346,73.184952  z"
   id="path2" />
<path
   fill="#030303"
   opacity="1.000000"
   stroke="none"
   d=" M178.948425,135.100769   C178.948425,153.558075 178.948425,172.015381 178.948425,190.409393   C164.153305,192.136398 147.883698,179.871292 144.036392,164.253876   C143.131866,160.582092 142.818390,156.690018 142.778000,152.893478   C142.632629,139.232559 142.849060,125.567665 142.690125,111.907043   C142.446213,90.943161 125.775742,72.445274 105.791077,70.720245   C82.358910,68.697647 63.083855,82.847359 59.415184,105.221222   C58.508308,110.751900 59.010471,116.515808 58.891506,122.173058   C58.615108,135.316452 59.309792,148.567337 57.849686,161.577011   C55.968418,178.339188 38.023136,192.283081 22.414282,190.440903   C22.336468,189.362717 22.184380,188.233047 22.183769,187.103302   C22.170284,162.110992 21.932077,137.115875 22.222422,112.126930   C22.886276,54.991692 81.944534,17.159071 134.213501,41.994450   C159.288681,53.908813 174.464676,74.164764 177.941040,102.894348   C170.863144,106.778679 166.440506,111.765518 166.752304,119.771469   C167.063736,127.768089 171.822174,132.424667 178.948425,135.100769  z"
   id="path3" />
<path
   fill="#1174B9"
   opacity="1.000000"
   stroke="none"
   d=" M179.392822,135.067963   C171.822174,132.424667 167.063736,127.768089 166.752304,119.771469   C166.440506,111.765518 170.863144,106.778679 178.000931,103.324066   C180.999146,103.156822 183.737244,103.211197 186.836273,103.102966   C187.734421,103.320168 188.246201,103.743736 188.812637,104.073326   C201.665070,111.551521 202.335724,124.793915 190.064362,133.778122   C186.499863,134.364227 183.168533,134.699707 179.392822,135.067963  z"
   id="path4" />
<path
   fill="#0F73B8"
   opacity="1.000000"
   stroke="none"
   d=" M432.987793,69.930115   C438.062866,75.820450 443.348969,81.173775 447.451935,87.317230   C451.132416,92.828163 449.418396,98.695320 444.703217,101.174416   C439.443848,103.939629 434.479370,102.124840 431.381195,95.628235   C422.310791,76.608650 399.229370,76.125511 387.822388,86.120300   C376.453552,96.081673 374.760498,113.548958 384.265930,125.291237   C393.308624,136.461868 410.544006,138.758545 422.070404,130.306549   C423.140778,129.521667 424.377655,128.754639 425.030914,127.673409   C425.597687,126.735291 425.446320,125.363274 425.612366,124.183022   C424.428162,124.247726 423.110901,123.997513 422.082855,124.431839   C417.706116,126.280930 413.593445,129.148743 409.055542,130.141052   C399.517822,132.226685 389.919434,127.008423 385.366974,118.264893   C380.730774,109.360657 382.501923,97.878876 389.570953,91.011009   C396.952820,83.839180 407.532013,82.142288 416.297150,86.701202   C421.344971,89.326675 425.145172,93.059616 427.396606,98.394127   C427.986572,99.792000 429.144897,101.291985 430.447144,101.995888   C449.551544,112.322159 450.755585,132.728882 432.746155,145.004517   C428.420013,147.953323 423.533905,150.080627 417.650177,153.265060   C421.994843,156.432220 425.853027,159.244736 430.402344,162.561081   C424.924744,166.102524 419.152649,167.600311 413.016144,166.645050   C404.319336,165.291229 396.992737,161.425537 391.961792,153.740234   C390.792938,151.954651 388.682892,150.501801 386.689178,149.583740   C368.541077,141.227142 357.993530,122.606934 360.099182,102.323746   C362.061554,83.420738 376.626770,66.826035 395.115509,62.550049   C408.674530,59.414181 421.190338,61.960846 432.987793,69.930115  M400.038116,109.919365   C402.127319,113.660385 405.109558,115.203445 409.091309,113.040550   C412.122681,111.393906 413.417572,108.121796 411.719482,105.449326   C410.415070,103.396400 407.088196,101.329285 404.810425,101.483238   C400.901367,101.747467 399.060791,104.962425 400.038116,109.919365  z"
   id="path5" />
<path
   fill="#FDFDFD"
   opacity="1.000000"
   stroke="none"
   d=" M531.595581,152.654007   C507.304108,144.493362 495.750244,118.695320 505.681274,95.478859   C515.040649,73.598701 542.339783,63.836384 563.283081,74.880127   C585.729553,86.716507 593.092834,114.563324 579.376282,135.742477   C569.492920,151.003006 551.075989,157.634460 531.595581,152.654007  z"
   id="path6" />
<path
   fill="#FDFDFD"
   opacity="1.000000"
   stroke="none"
   d=" M307.102051,108.277077   C307.993835,137.487427 286.308319,157.747284 258.632050,154.059097   C237.908798,151.297485 221.876526,131.696335 223.190292,110.727791   C224.622025,87.876549 241.889587,70.784790 263.716400,70.614319   C286.673431,70.435028 303.776215,85.113724 307.102051,108.277077  z"
   id="path7" />
<path
   fill="#FBFBFB"
   opacity="1.000000"
   stroke="none"
   d=" M677.364929,73.118103   C700.483887,67.988831 723.976074,81.340233 727.827026,101.780647   C701.538330,101.780647 675.306641,101.780647 649.074219,101.780647   C649.240784,91.088707 661.668579,78.326981 677.364929,73.118103  z"
   id="path8" />
<path
   fill="#010609"
   opacity="1.000000"
   stroke="none"
   d=" M399.937683,109.519920   C399.060791,104.962425 400.901367,101.747467 404.810425,101.483238   C407.088196,101.329285 410.415070,103.396400 411.719482,105.449326   C413.417572,108.121796 412.122681,111.393906 409.091309,113.040550   C405.109558,115.203445 402.127319,113.660385 399.937683,109.519920  z"
   id="path9" />
</svg>
