<svg width="200" height="180" viewBox="0 0 200 180" fill="none" xmlns="http://www.w3.org/2000/svg">
<path d="M52.2419 177.136H127.945C158.763 162.838 180.135 131.622 180.135 95.4132C180.135 45.6841 139.822 5.37109 90.0934 5.37109C40.3643 5.37109 0.0512695 45.6847 0.0512695 95.4132C0.0512695 131.622 21.4241 162.838 52.2419 177.136Z" fill="#ECF3FE"/>
<path d="M151.126 37.8182L151.131 37.8376L133.111 46.883C132.971 46.9539 132.899 47.114 132.94 47.2658L133.619 49.7744L134.308 52.319L139.444 71.3019C137.862 70.9855 135.766 71.688 134.041 73.2747C131.646 75.4786 130.879 78.544 132.33 80.1207C133.78 81.6974 136.898 81.1888 139.294 78.985C141.294 77.1451 142.264 74.6719 141.791 72.9678L136.04 51.7124C136.004 51.5783 136.067 51.4376 136.191 51.3755L152.254 43.3279C152.419 43.2453 152.618 43.3345 152.666 43.5124L157.463 61.2415C155.881 60.9251 153.785 61.6276 152.06 63.2143C149.664 65.4182 148.898 68.4836 150.349 70.0598C151.799 71.6365 154.917 71.1279 157.313 68.924C159.313 67.0841 160.171 64.6481 159.559 62.975L159.573 62.9711L152.681 37.4991C152.627 37.298 152.403 37.1966 152.216 37.2875L151.125 37.8182H151.126Z" fill="white"/>
<path d="M47.1953 90.3511C45.8241 91.0165 44.8313 92.1273 44.2496 93.4154L33.8374 91.2293C34.0978 89.9345 33.9748 88.5534 33.3543 87.273C32.7305 85.9877 31.7156 85.0337 30.5311 84.4381L35.2419 74.9063C36.6225 75.2564 38.1217 75.1678 39.5034 74.4974C42.6136 72.9883 43.9117 69.2442 42.4025 66.134C40.8934 63.0237 37.1494 61.7257 34.0391 63.2348C30.9289 64.7439 29.6308 68.488 31.1399 71.5982C31.5549 72.4536 32.1494 73.1561 32.843 73.7162L27.8712 83.7744C26.9045 83.75 25.9205 83.9229 24.9909 84.3739C21.8807 85.883 20.5826 89.627 22.0917 92.7373C23.6009 95.8475 27.3449 97.1456 30.4552 95.6365C31.3909 95.1822 32.1388 94.5113 32.7194 93.7306L43.6873 96.0337C43.694 96.9356 43.8757 97.8487 44.2956 98.714C45.8048 101.824 49.5488 103.122 52.6591 101.613C55.7693 100.104 57.0674 96.36 55.5582 93.2498C54.0491 90.1395 50.305 88.8415 47.1948 90.3506L47.1953 90.3511Z" fill="#C4D7F2"/>
<path d="M131.326 164.022C131.326 164.022 160.846 76.3654 184.816 61.3842C186.523 60.3172 188.781 61.2075 189.291 63.1554C190.598 68.1482 188.997 80.7371 167.189 111.137C134.691 156.44 131.326 164.022 131.326 164.022V164.022Z" fill="#C4D7F2"/>
<path d="M130.644 167.716C130.644 167.716 174.213 100.825 197.07 94.2737C198.413 93.8887 199.784 94.8078 199.921 96.1983C200.317 100.234 197.194 110.239 171.498 131.709C135.035 162.175 130.644 167.716 130.644 167.716H130.644Z" fill="#C4D7F2"/>
<path d="M132.389 167.002C132.389 167.002 127.919 98.5174 140.276 82.2343C141.002 81.2775 142.42 81.2038 143.23 82.0908C145.581 84.6648 148.585 93.1595 141.959 121.173C132.556 160.927 132.389 167.002 132.389 167.002Z" fill="#C4D7F2"/>
<path d="M93.488 179.234C138.178 179.234 174.407 176.849 174.407 173.907C174.407 170.965 138.178 168.58 93.488 168.58C48.7976 168.58 12.5688 170.965 12.5688 173.907C12.5688 176.849 48.7976 179.234 93.488 179.234Z" fill="#D7E4F9"/>
<path d="M134.616 158.834L134.784 38.5196C134.789 34.8409 131.811 31.8542 128.133 31.8492L62.7714 31.7578C59.0927 31.7528 56.106 34.7307 56.101 38.4093L55.9326 158.724C55.9276 162.403 58.9055 165.389 62.5842 165.394L127.945 165.486C131.624 165.491 134.611 162.513 134.616 158.834Z" fill="#1B63D4"/>
<path d="M124.389 170.093L59.0845 172.824C55.4091 172.978 52.3044 170.123 52.151 166.448L47.1222 46.2377C46.9681 42.5624 49.8235 39.4577 53.4989 39.3042L118.803 36.5724C122.478 36.4183 125.583 39.2737 125.737 42.9491L130.765 163.159C130.919 166.834 128.064 169.939 124.389 170.093Z" fill="white"/>
<path d="M88.1189 127.401C104.013 127.401 116.898 114.516 116.898 98.6213C116.898 82.7268 104.013 69.8418 88.1189 69.8418C72.2244 69.8418 59.3394 82.7268 59.3394 98.6213C59.3394 114.516 72.2244 127.401 88.1189 127.401Z" fill="#ECF3FE"/>
<path d="M102.854 113.358C110.992 105.22 110.992 92.0259 102.854 83.8878C94.7161 75.7498 81.5217 75.7498 73.3837 83.8878C65.2456 92.0259 65.2456 105.22 73.3837 113.358C81.5217 121.496 94.7161 121.496 102.854 113.358Z" fill="#1B63D4"/>
<path d="M111.98 49.0412L61.3399 51.1598C60.4247 51.198 59.6452 50.4806 59.6069 49.5659C59.5687 48.6506 60.2862 47.8711 61.2008 47.8329L111.841 45.7144C112.756 45.6761 113.535 46.3936 113.574 47.3083C113.612 48.2235 112.894 49.003 111.98 49.0412Z" fill="#36588E"/>
<g style="mix-blend-mode:multiply" opacity="0.2">
<path d="M95.6273 85.2602L97.1558 64.0896C97.1724 63.8574 96.989 63.6779 96.7458 63.6879L86.6793 64.1089C86.4361 64.1189 86.2256 64.3156 86.209 64.5472L84.6804 85.7178C84.6638 85.9499 84.4527 86.1461 84.2101 86.156L78.6671 86.3882C78.3281 86.4026 78.091 86.761 78.2405 87.0342L88.3297 105.488C88.4788 105.762 88.9026 105.744 89.0921 105.456L101.916 86.0436C102.105 85.7566 101.919 85.4153 101.58 85.4297L96.0372 85.6619C95.794 85.6718 95.6106 85.4923 95.6273 85.2602Z" fill="#003889"/>
</g>
<path d="M93.0472 85.3681L92.1658 64.2983C92.1564 64.0673 91.9514 63.8884 91.7082 63.8989L81.6417 64.3199C81.3985 64.3299 81.2096 64.5255 81.219 64.7565L82.1004 85.8263C82.1098 86.0573 81.9209 86.2523 81.6777 86.2629L76.1348 86.495C75.7957 86.5094 75.5985 86.8662 75.7797 87.1382L88.0245 105.502C88.2057 105.774 88.629 105.756 88.7869 105.47L99.455 86.1476C99.6129 85.8618 99.3863 85.5221 99.0478 85.5366L93.5049 85.7687C93.2617 85.7787 93.0567 85.5997 93.0472 85.3692V85.3681Z" fill="white"/>
<path d="M120.553 138.153C120.603 139.337 120.168 140.429 119.425 141.236C118.681 142.045 117.63 142.569 116.448 142.619L64.703 144.783C62.3362 144.882 60.3373 143.043 60.2382 140.676C60.1889 139.492 60.6238 138.401 61.3661 137.593C62.1102 136.785 63.1617 136.261 64.3445 136.211L116.089 134.047C118.456 133.948 120.455 135.786 120.553 138.153Z" fill="#ECF3FE"/>
<path d="M102.212 134.629L102.571 143.201L64.702 144.785C62.3352 144.884 60.3364 143.045 60.2372 140.677C60.1879 139.493 60.6228 138.403 61.3652 137.594C62.1092 136.787 63.1607 136.262 64.3436 136.213L102.212 134.629Z" fill="#7BBC49"/>
<path d="M95.6628 152.356L62.5204 153.742C61.5631 153.782 60.7548 153.039 60.7149 152.082C60.675 151.125 61.4185 150.316 62.3753 150.276L95.5177 148.89C96.475 148.85 97.2833 149.594 97.3232 150.551C97.3631 151.508 96.6196 152.316 95.6628 152.356Z" fill="#C4D7F2"/>
<path d="M109.828 158.983L62.8222 160.949C61.8649 160.989 61.0566 160.246 61.0167 159.289C60.9768 158.332 61.7203 157.523 62.6771 157.483L109.683 155.517C110.64 155.477 111.449 156.221 111.489 157.178C111.529 158.135 110.785 158.943 109.828 158.983Z" fill="#C4D7F2"/>
<g style="mix-blend-mode:multiply" opacity="0.2">
<path d="M63.8705 142.414L58.0095 142.333C57.553 142.327 57.1486 142.183 56.876 141.929L42.6694 128.718C42.2749 128.352 41.5109 128.37 40.963 128.76L14.6289 147.522L41.5236 173.92L64.7552 157.774L69.9408 154.079L72.8721 151.99C73.42 151.6 73.5441 150.986 73.1497 150.619L64.6095 142.677C64.4317 142.512 64.1685 142.418 63.871 142.414L63.8705 142.414Z" fill="#003889"/>
</g>
<path d="M60.8296 141.541L54.9748 141.82C54.5188 141.842 54.1061 141.723 53.8185 141.487L38.8285 129.172C38.4119 128.83 37.6507 128.896 37.1277 129.319L11.9941 149.66L41.5238 173.919L62.6551 156.818L67.6047 152.812L70.4025 150.548C70.9254 150.124 71.0119 149.504 70.5952 149.162L61.5836 141.759C61.3964 141.605 61.1277 141.527 60.8307 141.542L60.8296 141.541Z" fill="#1A71D8"/>
<path d="M62.6992 154.629L40.1076 163.338C39.0173 163.758 37.7929 163.215 37.3724 162.125L25.4616 131.227C25.0411 130.137 25.5846 128.913 26.6749 128.492L49.2666 119.783C50.3569 119.362 51.5812 119.906 52.0017 120.996L63.9125 151.894C64.333 152.984 63.7896 154.208 62.6992 154.629Z" fill="white"/>
<path d="M50.1019 127.397L31.1662 134.696C30.7219 134.868 30.2233 134.647 30.0521 134.202C29.8809 133.758 30.1019 133.259 30.5463 133.088L49.482 125.788C49.9263 125.617 50.4249 125.838 50.5961 126.283C50.7673 126.727 50.5463 127.226 50.1019 127.397Z" fill="#DFE8F7"/>
<path d="M51.8495 131.93L32.9138 139.23C32.4694 139.401 31.9708 139.18 31.7996 138.735C31.6284 138.291 31.8495 137.793 32.2938 137.621L51.2295 130.322C51.6739 130.15 52.1725 130.371 52.3437 130.816C52.5149 131.26 52.2938 131.759 51.8495 131.93Z" fill="#DFE8F7"/>
<path d="M53.5966 136.463L34.6608 143.763C34.2165 143.934 33.7179 143.713 33.5467 143.269C33.3755 142.824 33.5966 142.326 34.0409 142.155L52.9766 134.855C53.4209 134.684 53.9195 134.905 54.0907 135.349C54.2619 135.793 54.0409 136.292 53.5966 136.463Z" fill="#DFE8F7"/>
<path d="M55.3441 140.996L36.4084 148.296C35.9641 148.467 35.4654 148.246 35.2943 147.802C35.1231 147.358 35.3441 146.859 35.7884 146.688L54.7242 139.388C55.1685 139.217 55.6671 139.438 55.8383 139.882C56.0095 140.327 55.7884 140.825 55.3441 140.996Z" fill="#DFE8F7"/>
<path d="M57.0917 145.53L38.1559 152.829C37.7116 153 37.213 152.779 37.0418 152.335C36.8706 151.891 37.0917 151.392 37.536 151.221L56.4717 143.921C56.9161 143.75 57.4147 143.971 57.5859 144.415C57.7571 144.86 57.536 145.358 57.0917 145.53Z" fill="#DFE8F7"/>
<path d="M58.8387 150.063L39.903 157.362C39.4587 157.534 38.9601 157.313 38.7889 156.868C38.6177 156.424 38.8387 155.925 39.2831 155.754L58.2188 148.454C58.6631 148.283 59.1617 148.504 59.3329 148.949C59.5041 149.393 59.2831 149.892 58.8387 150.063Z" fill="#DFE8F7"/>
<g style="mix-blend-mode:multiply" opacity="0.2">
<path d="M72.2342 140.862L62.9533 109.076C62.6259 107.954 61.4514 107.311 60.3295 107.638L37.0879 114.424C35.9666 114.752 35.3228 115.926 35.6503 117.048L44.9312 148.834C45.2586 149.956 46.4331 150.599 47.555 150.272L70.7965 143.486C71.9179 143.158 72.5616 141.984 72.2342 140.862Z" fill="#003889"/>
</g>
<path d="M72.456 141.306L49.4776 148.937C48.3684 149.305 47.1712 148.705 46.8028 147.596L36.3668 116.17C35.9983 115.06 36.5989 113.863 37.708 113.495L60.6864 105.864C61.7956 105.496 62.9928 106.096 63.3612 107.206L73.7972 138.632C74.1656 139.741 73.5651 140.938 72.456 141.306Z" fill="white"/>
<path d="M60.587 120.862L47.2701 118.121C46.2302 117.907 45.3488 118.899 45.6834 119.906L49.9682 132.809C50.3028 133.816 51.6025 134.084 52.3078 133.291L61.3399 123.128C62.0452 122.335 61.6269 121.076 60.587 120.862Z" fill="#DFE8F7"/>
<path d="M68.1749 133.884L49.1378 140.206C48.7699 140.328 48.3682 140.127 48.2463 139.759C48.1239 139.391 48.325 138.989 48.6934 138.868L67.7306 132.546C68.0984 132.423 68.5001 132.624 68.622 132.993C68.7444 133.361 68.5433 133.762 68.1749 133.884Z" fill="#DFE8F7"/>
<path d="M69.4835 137.826L50.4463 144.147C50.0785 144.27 49.6768 144.069 49.5549 143.7C49.4325 143.332 49.6336 142.931 50.002 142.809L69.0391 136.487C69.407 136.365 69.8087 136.566 69.9306 136.934C70.053 137.302 69.8519 137.704 69.4835 137.826Z" fill="#DFE8F7"/>
<g style="mix-blend-mode:multiply" opacity="0.2">
<path d="M44.9665 171.134L41.5227 173.921L14.3765 151.302L31.1648 132.055L39.8369 139.179C40.1283 139.418 40.4662 139.514 40.7859 139.449L41.392 139.323L44.8839 138.604C45.0923 138.562 45.3128 138.624 45.5022 138.779L54.6219 146.271C55.0429 146.618 55.2031 147.322 54.9809 147.844L44.9659 171.134H44.9665Z" fill="#003889"/>
</g>
<path d="M41.5228 173.92L11.6396 149.37L22.4275 124.107C22.5981 123.707 23.1056 123.583 23.4419 123.86L38.6973 136.401C38.9887 136.641 39.3266 136.737 39.6463 136.671L43.7444 135.826C43.9532 135.784 44.1732 135.846 44.3626 136.002L53.4823 143.494C53.9034 143.84 54.064 144.544 53.8413 145.067L52.648 147.862L50.5366 152.806L41.5222 173.919L41.5228 173.92Z" fill="#1B63D4"/>
<g style="mix-blend-mode:multiply" opacity="0.2">
<path d="M78.4092 69.1111C72.0668 68.2624 65.7239 67.4142 59.381 66.5654C58.6463 66.4674 57.9865 65.7815 57.9316 65.0336C57.5339 58.5062 58.3821 52.1676 60.4818 45.9748C60.7316 45.2674 61.5488 44.7793 62.2829 44.8779C68.6253 45.7266 74.9682 46.5748 81.3111 47.4236C82.0458 47.5217 82.4197 48.1693 82.1699 48.8768C80.0701 55.0696 79.2219 61.4081 79.6197 67.9355C79.6751 68.6834 79.1438 69.2098 78.4092 69.1117V69.1111Z" fill="#003889"/>
</g>
<path d="M76.5231 66.9963C70.1408 66.5343 63.758 66.0722 57.3757 65.6107C56.6367 65.557 55.9364 64.9132 55.8356 64.1697C55.0422 57.6789 55.5037 51.3005 57.2234 44.9913C57.43 44.27 58.2156 43.7332 58.9547 43.7869C65.3369 44.249 71.7198 44.7105 78.102 45.1725C78.8411 45.2262 79.2538 45.8495 79.0472 46.5708C77.3275 52.88 76.866 59.2578 77.6594 65.7492C77.7597 66.4927 77.2616 67.0501 76.5225 66.9969L76.5231 66.9963Z" fill="#FBAB18"/>
<path d="M72.0356 55.1257C69.2046 53.1739 66.3985 51.1883 63.6168 49.1667C63.229 48.8836 62.6146 49.1578 62.5198 49.6609C61.896 53.201 61.6412 56.7179 61.7492 60.3107C61.7708 60.8226 62.3392 61.1816 62.7636 60.9578C65.8074 59.3584 68.87 57.7972 71.9531 56.2731C72.4068 56.0498 72.4534 55.4121 72.0362 55.1257H72.0356Z" fill="white"/>
<g style="mix-blend-mode:multiply" opacity="0.2">
<path d="M94.8786 173.908H78.1257C76.2426 173.908 74.9833 172.416 75.3285 170.593L76.9983 161.761C77.3429 159.937 79.1661 158.445 81.0492 158.445H97.8022C99.6853 158.445 100.945 159.937 100.599 161.761L98.9296 170.593C98.585 172.416 96.7617 173.908 94.8786 173.908Z" fill="#003889"/>
</g>
<path d="M93.4878 157.938H76.7349C74.8437 157.938 73.3105 159.471 73.3105 161.362V170.484C73.3105 172.375 74.8437 173.908 76.7349 173.908H93.4878C95.3791 173.908 96.9122 172.375 96.9122 170.484V161.362C96.9122 159.471 95.3791 157.938 93.4878 157.938Z" fill="#36588E"/>
<path d="M88.9639 157.938H72.211C70.3198 157.938 68.7866 159.471 68.7866 161.362V170.484C68.7866 172.375 70.3198 173.908 72.211 173.908H88.9639C90.8551 173.908 92.3883 172.375 92.3883 170.484V161.362C92.3883 159.471 90.8551 157.938 88.9639 157.938Z" fill="#FBAB18"/>
<path d="M81.0956 161.307H77.1361V163.578C76.7372 164.258 76.5078 165.05 76.5078 165.895C76.5078 166.74 76.7377 167.532 77.1361 168.212V170.483H81.0956C83.6297 170.483 85.684 168.429 85.684 165.895C85.684 163.361 83.6297 161.307 81.0956 161.307Z" fill="#36588E"/>
<path d="M77.1357 170.483C79.6698 170.483 81.7241 168.429 81.7241 165.895C81.7241 163.361 79.6698 161.307 77.1357 161.307C74.6016 161.307 72.5474 163.361 72.5474 165.895C72.5474 168.429 74.6016 170.483 77.1357 170.483Z" fill="white"/>
<path d="M79.0679 163.617C78.5549 163.244 77.9228 163.023 77.2402 163.023C75.5211 163.023 74.1278 164.417 74.1278 166.135C74.1278 166.925 74.4219 167.646 74.9073 168.195C74.1289 167.63 73.623 166.712 73.623 165.676C73.623 163.957 75.0164 162.564 76.7355 162.564C77.664 162.564 78.4978 162.972 79.0679 163.617Z" fill="#36588E"/>
<path d="M89.5747 159.596H87.5464C87.185 159.596 86.8921 159.889 86.8921 160.25V160.816C86.8921 161.178 87.185 161.471 87.5464 161.471H89.5747C89.936 161.471 90.229 161.178 90.229 160.816V160.25C90.229 159.889 89.936 159.596 89.5747 159.596Z" fill="white"/>
<g style="mix-blend-mode:multiply" opacity="0.2">
<path d="M100.315 47.3172C94.0547 45.9881 87.7954 44.659 81.5356 43.33C80.8109 43.1759 80.2048 42.4424 80.207 41.6923C80.3073 35.1538 81.6359 28.8978 84.2009 22.8829C84.504 22.1964 85.3555 21.7721 86.0807 21.9261C92.3406 23.2552 98.5998 24.5843 104.86 25.9133C105.584 26.0674 105.908 26.741 105.605 27.4275C103.04 33.4424 101.711 39.6984 101.611 46.2369C101.609 46.987 101.04 47.4712 100.315 47.3172Z" fill="#003889"/>
</g>
<g style="mix-blend-mode:multiply" opacity="0.2">
<path d="M70.2169 27.3407C63.957 26.0116 57.6977 24.6825 51.4379 23.3534C50.7133 23.1994 50.1072 22.4659 50.1094 21.7157C50.2097 15.1772 51.5382 8.92126 54.1033 2.90631C54.4063 2.21988 55.2579 1.7955 55.9831 1.94952C62.2429 3.2786 68.5022 4.60769 74.762 5.93678C75.4867 6.09079 75.8102 6.76448 75.5072 7.4509C72.9421 13.4659 71.6135 19.7218 71.5133 26.2603C71.511 27.0105 70.9421 27.4947 70.2169 27.3407Z" fill="#003889"/>
</g>
<path d="M98.8137 44.4701C92.4774 43.5737 86.1417 42.6773 79.8054 41.7815C79.0719 41.6779 78.417 40.987 78.3672 40.2386C78.0187 33.7084 78.914 27.3765 81.0602 21.1992C81.3156 20.494 82.1361 20.012 82.8696 20.1156C89.2059 21.012 95.5417 21.9084 101.878 22.8042C102.611 22.9078 102.981 23.5582 102.726 24.2635C100.579 30.4402 99.6835 36.7726 100.033 43.3028C100.082 44.0513 99.5472 44.5737 98.8137 44.4696V44.4701Z" fill="white"/>
<path d="M92.4296 35.9309C91.8856 35.9569 91.3986 36.2206 91.0562 36.5902C89.9194 35.8506 88.7842 35.1082 87.6513 34.3625C87.8978 33.947 88.028 33.4478 87.9814 32.9154C87.9349 32.3807 87.7172 31.9076 87.3942 31.5353C88.4047 30.6439 89.4263 29.768 90.4607 28.9043C90.8701 29.2157 91.4064 29.4051 91.9698 29.3553C93.1637 29.2489 94.3111 28.1409 94.3947 26.9048C94.4784 25.6716 93.3432 24.7464 92.1742 24.7802C90.874 24.8179 89.7199 25.9735 89.6446 27.2068C89.6241 27.5453 89.7116 27.8771 89.8501 28.1647C88.7399 29.065 87.6501 29.9907 86.5759 30.9342C86.2479 30.7907 85.8778 30.7215 85.5006 30.7397C84.2313 30.8007 83.2435 32.0794 83.3704 33.2411C83.4967 34.3957 84.6823 35.5425 85.9571 35.4289C86.3294 35.3957 86.6734 35.2716 86.9659 35.0799C88.1698 35.8677 89.3759 36.6511 90.5859 37.4295C90.4983 37.747 90.4684 38.1032 90.5449 38.4566C90.7986 39.6256 91.9925 40.7951 93.2928 40.6544C94.4895 40.5248 95.2784 39.2843 95.0695 38.1237C94.8512 36.9109 93.6479 35.8733 92.4291 35.9314L92.4296 35.9309Z" fill="#1B63D4"/>
<path d="M68.9613 25.2594C62.63 24.3315 56.2982 23.4035 49.9669 22.4755C49.2339 22.368 48.5824 21.6744 48.5364 20.9254C48.2201 14.3935 49.1475 8.06609 51.3248 1.89988C51.5835 1.19573 52.4062 0.718167 53.1397 0.825646C59.471 1.75362 65.8029 2.6816 72.1342 3.60958C72.8672 3.71706 73.2334 4.36913 72.9746 5.07329C70.7979 11.2395 69.8705 17.5669 70.1863 24.0988C70.2323 24.8478 69.6943 25.3669 68.9613 25.2594Z" fill="#FBAB18"/>
<path d="M61.9946 10.6886C62.1808 10.4399 62.2749 10.3152 62.465 10.0676C63.106 10.328 63.4267 10.4582 64.0689 10.7191C63.1054 12.051 62.1858 13.4039 61.3038 14.7917C61.1436 15.0515 61.0495 15.2277 61.0173 15.3197C60.9841 15.4155 60.9824 15.5003 61.0118 15.5734C61.0412 15.6465 61.0894 15.697 61.1558 15.7235C61.3813 15.8133 61.7215 15.7823 62.1791 15.6299C62.6362 15.4781 63.0855 15.2011 63.5342 14.8011C63.983 14.4006 64.3237 13.9014 64.5653 13.3053C64.7664 12.8083 64.8711 12.3036 64.8783 11.7922C64.8855 11.2803 64.793 10.7945 64.5968 10.3335C64.4007 9.87257 64.0954 9.44931 63.6772 9.0626C63.2583 8.6759 62.7309 8.35235 62.0905 8.0903C61.4378 7.82382 60.7946 7.66537 60.1603 7.61551C59.5259 7.56565 58.9171 7.61773 58.3381 7.7723C57.7592 7.92687 57.209 8.18836 56.6977 8.55014C56.25 8.86703 55.8384 9.25263 55.4749 9.70914C55.1115 10.1656 54.8168 10.6604 54.593 11.1939C54.2943 11.9047 54.1797 12.6144 54.2439 13.3208C54.3087 14.0271 54.552 14.692 54.9664 15.3125C55.3808 15.933 55.963 16.4814 56.686 16.9612C57.491 17.4953 58.4096 17.8432 59.3043 18.1108C60.0833 18.3435 60.8251 18.4122 61.4412 18.3668C62.0572 18.3208 62.6196 18.1374 63.1337 17.8166C63.6722 18.0299 63.9414 18.1363 64.481 18.3496C64.1315 18.7114 63.7348 18.9994 63.2866 19.2127C62.8384 19.426 62.3464 19.5601 61.809 19.615C61.2711 19.6698 60.691 19.6438 60.0672 19.538C59.4434 19.4321 58.7614 19.2504 58.0844 18.9679C57.1403 18.574 56.1902 18.0875 55.3741 17.4526C54.7248 16.9474 54.0268 16.1917 53.6301 15.4548C53.2378 14.7252 53.0179 13.9385 52.983 13.1319C52.9486 12.3374 53.1719 11.3596 53.481 10.6443C53.8195 9.86094 54.4234 8.96676 55.0378 8.36787C55.6317 7.78837 56.4999 7.21939 57.2705 6.90859C58.0506 6.5939 59.0838 6.40775 59.9226 6.41219C60.8096 6.41717 61.8894 6.6349 62.7121 6.98393C63.455 7.29861 64.1004 7.68975 64.6157 8.17341C65.1304 8.65706 65.5076 9.20388 65.7542 9.81329C66.0007 10.4233 66.111 11.0704 66.0916 11.7551C66.0722 12.4399 65.9187 13.1385 65.6367 13.8521C65.4168 14.4078 65.1132 14.9141 64.722 15.3695C64.3309 15.8249 63.881 16.1934 63.3664 16.4726C62.8511 16.7524 62.3038 16.9158 61.7182 16.9634C61.1326 17.0111 60.5459 16.918 59.9581 16.6848C59.6179 16.5496 59.3713 16.3873 59.2201 16.1972C59.0683 16.0072 59.0024 15.7745 59.024 15.4986C58.5398 15.713 58.0484 15.7734 57.5448 15.6792C57.0412 15.585 56.5968 15.359 56.2157 15.0011C55.8345 14.6432 55.583 14.1945 55.4683 13.6571C55.3536 13.1197 55.4195 12.5374 55.6738 11.9119C55.9381 11.2615 56.352 10.6798 56.9087 10.1662C57.4655 9.65263 58.0977 9.30083 58.7924 9.10859C59.4866 8.91634 60.152 8.94958 60.7852 9.2072C61.511 9.50249 61.9076 9.99501 61.9952 10.6881L61.9946 10.6886ZM57.2694 12.5407C57.0716 13.0382 57.0312 13.4621 57.1403 13.8116C57.2495 14.1612 57.4749 14.4033 57.8118 14.5379C58.2024 14.6942 58.6013 14.6753 59.0101 14.4814C59.419 14.2875 59.788 13.9834 60.1231 13.569C60.4583 13.1546 60.7176 12.7263 60.9021 12.2837C60.993 12.0648 61.0517 11.8571 61.0761 11.6609C61.1004 11.4648 61.0927 11.2809 61.0511 11.1086C61.0101 10.9368 60.9348 10.7884 60.8256 10.6637C60.7159 10.5391 60.5725 10.4404 60.3941 10.3679C60.0367 10.2227 59.65 10.2332 59.2356 10.3983C58.8212 10.5634 58.4356 10.8404 58.0855 11.2294C57.7353 11.6183 57.4622 12.0554 57.2694 12.5407Z" fill="white"/>
<g style="mix-blend-mode:multiply" opacity="0.2">
<path d="M118.337 40.9438C112.258 38.9465 106.178 36.9488 100.099 34.9515C99.3944 34.72 98.8714 33.9255 98.9545 33.1798C99.7606 26.69 101.757 20.6147 104.957 14.9116C105.332 14.2623 106.225 13.9321 106.928 14.1637C113.008 16.161 119.087 18.1587 125.167 20.156C125.871 20.3875 126.12 21.0923 125.744 21.7416C122.544 27.4446 120.548 33.52 119.742 40.0097C119.659 40.7554 119.04 41.1754 118.336 40.9438H118.337Z" fill="#003889"/>
</g>
<path d="M117.428 37.8315C111.23 36.2387 105.033 34.6453 98.8348 33.0525C98.1173 32.8681 97.5428 32.1091 97.5766 31.36C97.9539 24.8315 99.5456 18.6376 102.363 12.7368C102.695 12.0642 103.564 11.6758 104.282 11.8603C110.48 13.4531 116.677 15.0464 122.875 16.6392C123.593 16.8237 123.887 17.5107 123.556 18.1833C120.738 24.0841 119.146 30.278 118.769 36.8066C118.735 37.5561 118.146 38.0154 117.428 37.8315Z" fill="white"/>
<path d="M109.185 26.1606C109.204 26.1656 109.213 26.1678 109.232 26.1728C110.464 26.4354 111.84 25.7108 112.135 24.4249C112.515 23.0526 112.947 21.6925 113.451 20.3601C113.974 19.1662 113.222 17.8664 112.037 17.5163C112.018 17.5113 112.008 17.5091 111.989 17.5041C110.69 17.1301 109.27 17.9678 108.756 19.1506C108.252 20.4831 107.82 21.8432 107.439 23.2155C107.162 24.4465 107.881 25.8775 109.185 26.1606Z" fill="#1B63D4"/>
<path d="M111.974 27.4517C112.877 26.8578 113.563 25.9238 113.852 24.8672C113.918 24.6285 113.78 24.3858 113.542 24.3243C113.304 24.2628 113.05 24.4096 112.99 24.6451C112.8 25.3969 112.146 26.2695 111.498 26.6739C110.859 27.0728 109.799 27.2695 109.051 27.0423C109.032 27.0373 109.023 27.0351 109.004 27.0301C108.217 26.8567 107.359 26.162 106.955 25.5033C106.553 24.8479 106.363 23.7503 106.585 22.9947C106.654 22.7614 106.513 22.5132 106.275 22.4517C106.036 22.3902 105.788 22.5337 105.723 22.7725C105.427 23.8551 105.648 25.0229 106.212 25.9664C106.665 26.7249 107.577 27.5021 108.432 27.7852C108.261 28.798 108.114 29.8035 107.987 30.8224C107.22 30.6251 106.836 30.526 106.07 30.3287C105.831 30.2672 105.615 30.4174 105.59 30.6645C105.564 30.9116 105.739 31.162 105.977 31.2229L110.673 32.4323C110.911 32.4938 111.123 32.3431 111.148 32.0961C111.174 31.849 111.004 31.5991 110.766 31.5382C109.999 31.3409 109.615 31.2418 108.849 31.0445C108.976 30.0257 109.123 29.0202 109.294 28.0074C110.139 28.1692 111.268 27.9149 111.974 27.4506V27.4517Z" fill="#1B63D4"/>
<g style="mix-blend-mode:multiply" opacity="0.2">
<path d="M177.568 74.081C170.635 73.1031 163.703 72.1258 156.77 71.148C156.175 71.0643 155.512 71.4549 155.302 72.025C152.928 78.8261 151.964 85.6594 152.365 92.8494C152.409 93.4555 152.939 94.0145 153.533 94.0981C160.466 95.076 167.399 96.0538 174.332 97.0311C174.926 97.1147 175.359 96.692 175.315 96.0859C174.914 88.8965 175.878 82.0621 178.251 75.2616C178.462 74.6915 178.162 74.1652 177.568 74.0815V74.081Z" fill="#003889"/>
</g>
<path d="M171.467 94.6964L150.779 91.0709C150.188 90.9673 149.677 90.3911 149.652 89.7839C149.492 82.5844 150.683 75.7872 153.283 69.0692C153.512 68.5063 154.189 68.1385 154.78 68.2421C161.676 69.4509 168.572 70.6592 175.468 71.8676C176.06 71.9712 176.341 72.5074 176.112 73.0698C173.512 79.7872 172.321 86.5856 172.481 93.7845C172.506 94.3917 172.059 94.8 171.467 94.6964Z" fill="white"/>
<path d="M171.594 82.9515C171.107 86.0501 170.863 89.0989 170.853 92.2335C170.859 92.6379 170.549 92.911 170.15 92.8412C164.081 91.7775 158.012 90.7144 151.944 89.6506C151.548 89.5814 151.214 89.1919 151.208 88.7853C151.199 88.1448 151.2 87.8246 151.211 87.1847C153.276 85.6063 155.37 84.0795 157.501 82.5908C158.257 82.0689 159.304 82.2562 159.886 83.0174C160.152 83.3659 160.287 83.5404 160.558 83.8894C160.937 84.3775 161.63 84.4374 162.038 84.0169C163.47 82.5675 164.932 81.1598 166.431 79.7797C167.194 79.09 168.361 79.1432 168.989 79.895C169.845 80.9232 170.714 81.9426 171.594 82.9509V82.9515Z" fill="#1B63D4"/>
<path d="M163.446 77.3153C163.102 78.5884 161.839 79.471 160.524 79.2532C159.229 79.0388 158.366 77.7574 158.718 76.487C159.077 75.1923 160.437 74.3618 161.754 74.5768C163.047 74.7873 163.792 76.0349 163.446 77.3158V77.3153Z" fill="#1B63D4"/>
<path d="M20.2621 110.451C21.8629 108.85 21.8629 106.255 20.2621 104.654C18.6612 103.053 16.0658 103.053 14.465 104.654C12.8641 106.255 12.8641 108.85 14.465 110.451C16.0658 112.052 18.6612 112.052 20.2621 110.451Z" fill="white"/>
<path d="M146.031 26.6572C148.703 23.9848 148.703 19.6519 146.031 16.9795C143.358 14.307 139.025 14.307 136.353 16.9795C133.681 19.6519 133.681 23.9848 136.353 26.6572C139.025 29.3297 143.358 29.3297 146.031 26.6572Z" fill="#C4D7F2"/>
<path d="M140.403 163.544C141.631 161.291 146.348 156.004 155.169 154.364C156.612 154.096 159.817 153.5 160.979 154.293C163.287 155.869 152.985 162.014 154.321 162.832C155.743 163.703 167.875 157.227 169.935 158.278C170.903 158.773 161.568 162.79 161.826 168.241C161.884 169.472 162.411 170.496 162.915 171.229H137.718C137.718 171.229 137.377 169.095 140.402 163.544H140.403Z" fill="#7BBC49"/>
<g style="mix-blend-mode:multiply" opacity="0.22">
<path d="M148.007 96.1434C148.207 92.6082 146.894 90.9783 145.416 90.2481C145.388 90.2343 145.36 90.2204 145.331 90.2066C145.323 90.2032 145.316 90.1999 145.31 90.1966C145.058 90.0791 144.758 89.9661 144.403 89.8603C143.589 89.6176 142.672 89.611 141.756 89.7689C141.725 89.7739 141.707 89.7772 141.707 89.7772C138.142 90.4138 134.611 93.5218 137.2 94.924C136.925 95.4392 136.705 96.0071 136.557 96.6143C136.44 97.0913 136.377 97.5611 136.361 98.0149C136.301 99.7013 136.899 101.168 137.943 101.932C137.948 101.936 137.953 101.939 137.958 101.943C137.826 102.632 137.711 103.326 137.615 104.019C136.149 104.029 135.056 104.285 134.248 104.577C133.351 104.9 123.585 111.73 123.585 111.73L114.658 104.188L114.076 104.738C113.875 104.53 113.759 104.41 113.759 104.41C113.759 104.41 113.72 99.6514 112.896 100.461C112.071 101.271 112.323 103.021 111.604 101.677C110.885 100.334 109.031 97.8198 108.462 100.103C107.894 102.387 109.074 104.218 111.463 106.054C111.648 106.195 111.857 106.385 112.09 106.615L111.677 107.004C111.677 107.004 120.652 118.075 122.364 118.593C123.014 118.789 124.457 118.104 125.998 117.179C128.486 115.685 131.229 113.562 131.295 113.512L131.296 113.511C131.339 115.226 132.805 116.942 132.805 116.942C132.643 127.448 130.169 134.048 130.044 134.376C126.437 135.333 122.676 136.716 122.613 138.331C122.492 141.447 123.75 168.325 123.75 168.325L124.087 168.323L124.099 169.553L123.864 169.528C123.519 170.157 122.753 171.177 121.289 171.555C119.111 172.118 117.95 172.47 117.714 173.712C117.607 174.274 119.713 174.335 122.049 174.233C123.538 174.741 129.302 174.204 131.314 173.997C131.428 173.985 131.532 173.943 131.623 173.884H133.389L136.942 150.995V150.993L137.236 149.098H147.323L147.726 173.884H151.133L149.67 145.921H148.799C148.962 145.819 149.114 145.696 149.247 145.551C150.141 144.574 151.463 142.404 151.509 138.086C151.516 137.356 151.487 136.562 151.413 135.704L151.718 135.594C152.087 135.463 152.312 135.076 152.234 134.707L151.147 129.617L150.017 124.322C150.017 124.322 151.258 125.778 153.073 125.293C154.887 124.808 155.521 123.125 155.469 122.023C155.446 121.555 155.122 118.964 154.756 116.141C165.357 112.165 147.624 102.937 148.008 96.1417L148.007 96.1434Z" fill="#003889"/>
</g>
<path d="M129.949 173.885H133.356L135.317 150.996V150.994L135.479 149.099H145.567L147.692 173.885H151.099L147.692 145.922H133.356L130.937 165.777L130.935 165.782L129.949 173.885Z" fill="white"/>
<path d="M111.195 106.611C110.523 107.225 109.865 107.852 109.225 108.497C108.194 107.391 107.317 106.492 106.716 106.054C104.199 104.219 102.891 102.387 103.301 100.103C103.712 97.8197 105.74 100.334 106.552 101.677C107.365 103.021 106.991 101.271 107.759 100.461C108.528 99.6519 108.897 104.41 108.897 104.41C108.897 104.41 109.884 105.366 111.195 106.611H111.195Z" fill="#FDC8AA"/>
<path d="M127.087 167.058L127.074 170.243L123.824 170.303L123.556 166.91L127.087 167.058Z" fill="#FDC8AA"/>
<path d="M117.669 173.713C117.818 172.471 118.954 172.119 121.093 171.556C122.531 171.178 123.226 170.158 123.528 169.529L127.406 169.934L127.881 173.065C127.938 173.44 127.67 173.786 127.292 173.826C124.96 174.068 117.543 174.76 117.669 173.713L117.669 173.713Z" fill="#15315E"/>
<path d="M131.475 166.909L130.984 170.415L127.734 170.476L127.729 166.752L131.475 166.909Z" fill="#FDC8AA"/>
<path d="M121.665 173.883C121.814 172.641 122.95 172.289 125.09 171.726C126.527 171.348 127.222 170.328 127.524 169.699L131.403 170.104L131.877 173.235C131.934 173.61 131.666 173.956 131.288 173.996C128.956 174.238 121.539 174.93 121.665 173.883L121.665 173.883Z" fill="#1F3A6F"/>
<path d="M133.734 132.965C133.734 132.965 120.014 135.215 120.108 138.331C120.203 141.447 123.33 168.325 123.33 168.325L127.333 168.302C127.333 168.302 127.269 140.54 133.221 138.792C139.173 137.044 141.179 135.555 141.179 135.555L140.532 131.541L133.734 132.965H133.734Z" fill="#15315E"/>
<path d="M127.066 168.509H131.534L133.982 146.237H145.763C146.335 146.237 146.875 145.986 147.244 145.55C148.069 144.574 149.242 142.404 148.987 138.086C148.933 137.188 148.819 136.196 148.625 135.102C148.625 135.102 146.866 131.573 140.984 132.835C140.984 132.835 137.093 133.404 133.425 134.601C130.204 135.652 127.156 137.187 127.066 139.245C126.871 143.647 127.066 168.508 127.066 168.508L127.066 168.509Z" fill="#1F3A6F"/>
<path d="M135.114 114.861C136.92 116.958 140.001 118.077 144.967 117.431C146.015 117.294 146.956 117.138 147.794 116.964C163.97 113.602 142.666 103.461 142.569 96.1431C142.468 88.4456 135.827 89.7775 135.827 89.7775C135.827 89.7775 129.183 107.98 135.114 114.861Z" fill="#1F3A6F"/>
<path d="M141.066 105.547H130.659L129.979 132.641C129.979 132.641 134.511 135.101 141.568 132.641L141.066 105.547Z" fill="white"/>
<path d="M133.425 134.603C134.614 134.784 136.815 135.06 138.573 134.941C138.573 134.941 139.649 139.475 140.186 139.539C141.615 139.711 146.978 138.417 148.987 138.088C148.933 137.189 148.819 136.198 148.625 135.104C148.625 135.104 146.866 131.575 140.984 132.837C140.984 132.837 137.093 133.406 133.425 134.603H133.425Z" fill="#15315E"/>
<path d="M141.067 104.188L138.792 103.953L138.859 99.9541C138.859 99.9541 140.202 98.8267 140.088 97.7635C139.975 96.6998 138.797 97.1557 138.797 97.1557L135.917 100.414L134.568 101.941L134.505 104.01L132.99 104.026L132.226 106.565C132.036 107.608 132.986 108.506 134.007 108.79C135.434 109.186 138.255 107.968 139.126 107.042C139.149 107.018 141.066 104.188 141.066 104.188H141.067Z" fill="#FDC8AA"/>
<path d="M134.505 104.01C137.969 101.833 138.139 99.6621 138.139 99.6621L135.918 100.414L134.569 101.941L134.505 104.01Z" fill="#EFA37D"/>
<path d="M131.054 98.0158C131.11 99.7022 131.81 101.169 132.908 101.934C133.28 102.192 133.698 102.37 134.152 102.45C136.305 102.824 138.452 100.82 138.948 97.9725C139.443 95.1255 138.1 92.5133 135.947 92.1387C133.794 91.7642 131.647 93.7687 131.152 96.6158C131.069 97.0928 131.037 97.5626 131.054 98.0163V98.0158Z" fill="#FDC8AA"/>
<path d="M139.745 93.0885C139.745 93.0885 135.067 96.6924 131.678 94.924C128.288 93.155 134.451 88.6703 138.528 89.8603C142.605 91.0503 139.745 93.0885 139.745 93.0885Z" fill="#1F3A6F"/>
<path d="M136.425 93.2168C136.425 93.2168 137.728 96.9115 139.044 97.0871C139.044 97.0871 139.426 96.7625 139.595 96.8434C139.722 96.9043 139.852 96.9569 139.986 97.0007C142.122 97.6999 138.264 91.7874 138.264 91.7874C138.264 91.7874 136.828 91.7298 136.425 93.2168Z" fill="#1F3A6F"/>
<path d="M137.937 123.189C139.331 132.063 140.039 135.9 140.371 137.523C140.495 138.129 141.129 138.482 141.709 138.27L149.023 135.595C149.383 135.464 149.581 135.077 149.476 134.708L148.035 129.618L146.537 124.323C146.537 124.323 147.88 125.779 149.661 125.294C151.441 124.809 151.958 123.126 151.829 122.024C151.7 120.924 149.086 108.092 149.086 108.092C149.086 108.092 147.963 104.294 140.21 104.1C140.21 104.1 135.728 109.141 137.936 123.189H137.937Z" fill="#FBAB18"/>
<path d="M143.705 114.952L143.648 110.922L147.702 117.72C147.702 117.72 144.337 115.462 143.705 114.952Z" fill="#E59D29"/>
<path d="M139.375 118.398L148.035 129.617L146.537 124.322L139.375 118.398Z" fill="#E59D29"/>
<path d="M106.996 107.004C106.996 107.004 116.74 118.075 118.488 118.593C119.151 118.789 120.547 118.104 122.023 117.179C124.407 115.685 127.003 113.562 127.065 113.512L127.067 113.511C127.229 115.226 128.814 116.942 128.814 116.942C129.397 127.721 127.26 134.39 127.26 134.39C131.016 135.685 132.329 133.159 132.329 133.159C132.329 133.159 131.436 115.388 131.436 112.086C131.436 108.784 133.221 104.024 133.221 104.024C131.498 103.972 130.271 104.252 129.397 104.576C128.522 104.9 119.232 111.73 119.232 111.73L109.78 104.188L106.996 107.004V107.004Z" fill="#FBAB18"/>
<path d="M122.022 117.179C124.406 115.685 127.003 113.562 127.065 113.512L127.066 113.511C127.066 113.511 127.526 110.9 127.842 110.098C127.774 110.188 124.723 114.252 122.023 117.179H122.022Z" fill="#E59D29"/>
<path d="M133.158 117.217L137.603 118.277L139.453 110.518L135.008 109.458L133.158 117.217Z" fill="#36588E"/>
<path d="M141.124 114.204C141.053 113.949 140.863 113.738 140.612 113.627C139.973 113.345 138.174 112.588 137.725 112.812C137.177 113.087 137.569 113.786 137.569 113.786C137.569 113.786 136.925 113.864 136.829 114.36C136.732 114.856 137.179 115.091 137.179 115.091C137.179 115.091 136.798 115.103 136.7 115.523C136.602 115.943 137.056 116.256 137.056 116.256C137.056 116.256 136.625 116.312 136.625 116.508C136.625 116.704 140.078 118.874 140.893 116.352C141.252 115.244 141.23 114.585 141.124 114.204V114.204Z" fill="#E59D29"/>
<path d="M140.807 113.33C140.719 113.049 140.505 112.827 140.23 112.721C139.531 112.453 137.561 111.739 137.087 112.026C136.51 112.376 136.963 113.131 136.963 113.131C136.963 113.131 136.275 113.267 136.193 113.832C136.111 114.396 136.603 114.626 136.603 114.626C136.603 114.626 136.193 114.669 136.107 115.149C136.02 115.628 136.523 115.945 136.523 115.945C136.523 115.945 136.063 116.041 136.071 116.261C136.08 116.481 139.892 118.657 140.655 115.762C140.991 114.49 140.938 113.75 140.807 113.331L140.807 113.33Z" fill="#FDC8AA"/>
</svg>
