<svg width="121" height="121" viewBox="0 0 121 121" fill="none" xmlns="http://www.w3.org/2000/svg">
<g opacity="0.5">
<path opacity="0.2" d="M98 41.3945H71.75V15.1445L98 41.3945Z" fill="#1B63D4"/>
<path d="M38 105.145C38 106.139 37.6049 107.093 36.9016 107.796C36.1984 108.499 35.2446 108.895 34.25 108.895H26.75C24.7609 108.895 22.8532 108.104 21.4467 106.698C20.0402 105.291 19.25 103.384 19.25 101.395V86.3945C19.25 85.4 19.6451 84.4461 20.3484 83.7429C21.0516 83.0396 22.0054 82.6445 23 82.6445C23.9946 82.6445 24.9484 83.0396 25.6516 83.7429C26.3549 84.4461 26.75 85.4 26.75 86.3945V101.395H34.25C35.2446 101.395 36.1984 101.79 36.9016 102.493C37.6049 103.196 38 104.15 38 105.145ZM38 11.3945H26.75C24.7609 11.3945 22.8532 12.1847 21.4467 13.5912C20.0402 14.9978 19.25 16.9054 19.25 18.8945V30.1445C19.25 31.1391 19.6451 32.0929 20.3484 32.7962C21.0516 33.4994 22.0054 33.8945 23 33.8945C23.9946 33.8945 24.9484 33.4994 25.6516 32.7962C26.3549 32.0929 26.75 31.1391 26.75 30.1445V18.8945H38C38.9946 18.8945 39.9484 18.4994 40.6516 17.7962C41.3549 17.0929 41.75 16.1391 41.75 15.1445C41.75 14.15 41.3549 13.1961 40.6516 12.4929C39.9484 11.7896 38.9946 11.3945 38 11.3945V11.3945ZM101.75 41.4883V63.8945C101.75 64.8891 101.355 65.8429 100.652 66.5462C99.9484 67.2494 98.9946 67.6445 98 67.6445C97.0054 67.6445 96.0516 67.2494 95.3483 66.5462C94.6451 65.8429 94.25 64.8891 94.25 63.8945V45.1445H71.75C70.7554 45.1445 69.8016 44.7494 69.0983 44.0462C68.3951 43.3429 68 42.3891 68 41.3945V18.8945H56.75C55.7554 18.8945 54.8016 18.4994 54.0984 17.7962C53.3951 17.0929 53 16.1391 53 15.1445C53 14.15 53.3951 13.1961 54.0984 12.4929C54.8016 11.7896 55.7554 11.3945 56.75 11.3945H72.8281L73.1562 11.5352H73.2031L73.4375 11.6758H73.5313L73.7656 11.8164C73.7656 11.8633 73.8125 11.8633 73.8594 11.9102L74.0469 12.0508H74.1406L74.3281 12.2383H74.4219L100.625 38.4883C101.015 38.8599 101.318 39.3131 101.513 39.8155C101.707 40.318 101.788 40.8571 101.75 41.3945V41.4883ZM75.5 37.6445H88.9531L75.5 24.1914V37.6445ZM98 78.8945C97.0054 78.8945 96.0516 79.2896 95.3483 79.9929C94.6451 80.6961 94.25 81.65 94.25 82.6445V101.395H90.5C89.5054 101.395 88.5516 101.79 87.8483 102.493C87.1451 103.196 86.75 104.15 86.75 105.145C86.75 106.139 87.1451 107.093 87.8483 107.796C88.5516 108.499 89.5054 108.895 90.5 108.895H94.25C96.2391 108.895 98.1468 108.104 99.5533 106.698C100.96 105.291 101.75 103.384 101.75 101.395V82.6445C101.75 81.65 101.355 80.6961 100.652 79.9929C99.9484 79.2896 98.9946 78.8945 98 78.8945ZM23 71.3945C23.9946 71.3945 24.9484 70.9994 25.6516 70.2962C26.3549 69.5929 26.75 68.6391 26.75 67.6445V48.8945C26.75 47.9 26.3549 46.9461 25.6516 46.2429C24.9484 45.5396 23.9946 45.1445 23 45.1445C22.0054 45.1445 21.0516 45.5396 20.3484 46.2429C19.6451 46.9461 19.25 47.9 19.25 48.8945V67.6445C19.25 68.6391 19.6451 69.5929 20.3484 70.2962C21.0516 70.9994 22.0054 71.3945 23 71.3945ZM71.75 101.395H53C52.0054 101.395 51.0516 101.79 50.3484 102.493C49.6451 103.196 49.25 104.15 49.25 105.145C49.25 106.139 49.6451 107.093 50.3484 107.796C51.0516 108.499 52.0054 108.895 53 108.895H71.75C72.7446 108.895 73.6984 108.499 74.4017 107.796C75.1049 107.093 75.5 106.139 75.5 105.145C75.5 104.15 75.1049 103.196 74.4017 102.493C73.6984 101.79 72.7446 101.395 71.75 101.395Z" fill="#1B63D4"/>
</g>
</svg>
