<svg width="20" height="20" viewBox="0 0 20 20" fill="none" xmlns="http://www.w3.org/2000/svg">
<path d="M16.8221 3.05219C15.0067 1.25461 12.5544 0.247389 9.99954 0.250005C9.96623 0.250005 9.93292 0.250161 9.8996 0.250474C7.60795 0.274311 5.39791 1.10452 3.65736 2.5954C1.91681 4.08627 0.756957 6.14255 0.381374 8.40334C0.0057911 10.6641 0.438473 12.985 1.60348 14.9586C2.76849 16.9321 4.59138 18.4323 6.75223 19.1959C7.20471 19.3554 7.68885 19.404 8.16402 19.3377C8.63919 19.2715 9.09154 19.0922 9.48312 18.815C9.87469 18.5378 10.1941 18.1707 10.4145 17.7445C10.6349 17.3184 10.7498 16.8456 10.7497 16.3658V16C10.7502 15.6023 10.9084 15.221 11.1896 14.9398C11.4708 14.6586 11.852 14.5005 12.2497 14.5H16.5819C17.2624 14.5033 17.9235 14.2738 18.4556 13.8497C18.9877 13.4256 19.3588 12.8323 19.5074 12.1683C19.6748 11.4295 19.756 10.6738 19.7494 9.91638C19.7401 8.63542 19.4766 7.36905 18.9741 6.19073C18.4716 5.01241 17.7401 3.9456 16.8221 3.05219ZM18.0447 11.8357C17.9702 12.1675 17.7845 12.4639 17.5185 12.6757C17.2524 12.8875 16.9219 13.0019 16.5818 13H12.2497C11.4544 13.0009 10.6918 13.3173 10.1294 13.8797C9.56698 14.4421 9.25062 15.2046 9.24973 16V16.3658C9.2498 16.6057 9.19237 16.842 9.08225 17.0551C8.97212 17.2681 8.81252 17.4517 8.61683 17.5903C8.42113 17.729 8.19505 17.8187 7.95753 17.852C7.72001 17.8852 7.47798 17.861 7.25173 17.7814C5.42331 17.1354 3.88084 15.866 2.89505 14.196C1.90925 12.5261 1.54311 10.5623 1.86089 8.64929C2.17866 6.73629 3.16005 4.99633 4.63281 3.73478C6.10557 2.47323 7.9756 1.7707 9.9147 1.75047C9.94282 1.7501 9.97095 1.75001 9.99907 1.75001C12.1725 1.75789 14.2556 2.61989 15.7991 4.15004C17.3426 5.68018 18.2227 7.75579 18.2494 9.92904C18.2551 10.5704 18.1864 11.2102 18.0447 11.8357ZM11.1247 5.125C11.1247 5.34751 11.0587 5.56502 10.9351 5.75002C10.8115 5.93503 10.6358 6.07922 10.4302 6.16437C10.2247 6.24952 9.99848 6.2718 9.78025 6.22839C9.56202 6.18498 9.36157 6.07783 9.20424 5.9205C9.0469 5.76317 8.93975 5.56271 8.89635 5.34448C8.85294 5.12625 8.87522 4.90005 8.96037 4.69449C9.04551 4.48892 9.18971 4.31322 9.37471 4.1896C9.55972 4.06598 9.77723 4.00001 9.99973 4.00001C10.2981 4.00001 10.5842 4.11853 10.7952 4.32951C11.0062 4.54049 11.1247 4.82664 11.1247 5.125ZM6.75214 8.125C6.64087 8.31769 6.47497 8.47305 6.27541 8.57145C6.07585 8.66985 5.8516 8.70686 5.631 8.67781C5.4104 8.64876 5.20338 8.55495 5.0361 8.40824C4.86882 8.26153 4.7488 8.06851 4.69122 7.85358C4.63364 7.63866 4.64108 7.41149 4.7126 7.2008C4.78413 6.99011 4.91652 6.80536 5.09305 6.66991C5.26957 6.53447 5.48229 6.4544 5.70432 6.43985C5.92634 6.4253 6.14769 6.47691 6.34039 6.58816C6.46834 6.66203 6.58048 6.76038 6.67042 6.8776C6.76036 6.99481 6.82633 7.12859 6.86457 7.2713C6.9028 7.41401 6.91255 7.56286 6.89326 7.70934C6.87397 7.85581 6.82602 7.99706 6.75214 8.125ZM6.75214 11.875C6.86338 12.0677 6.91499 12.2891 6.90042 12.5111C6.88586 12.7331 6.80579 12.9458 6.67033 13.1224C6.53487 13.2989 6.35011 13.4313 6.13941 13.5028C5.92871 13.5743 5.70154 13.5817 5.48662 13.5241C5.2717 13.4665 5.07868 13.3465 4.93198 13.1792C4.78528 13.0119 4.69149 12.8049 4.66245 12.5843C4.63342 12.3637 4.67046 12.1394 4.76888 11.9398C4.8673 11.7403 5.02269 11.5744 5.21539 11.4632C5.47379 11.314 5.78086 11.2736 6.06906 11.3508C6.35725 11.4281 6.60296 11.6166 6.75214 11.875ZM15.1959 7C15.3072 7.1927 15.3587 7.41406 15.3442 7.63608C15.3296 7.8581 15.2495 8.07082 15.1141 8.24733C14.9786 8.42385 14.7939 8.55623 14.5832 8.62774C14.3725 8.69925 14.1453 8.70668 13.9304 8.64909C13.7155 8.59149 13.5225 8.47146 13.3758 8.30418C13.2291 8.13689 13.1353 7.92986 13.1062 7.70927C13.0772 7.48867 13.1142 7.26442 13.2126 7.06486C13.311 6.86531 13.4664 6.69942 13.6591 6.58816C13.787 6.51429 13.9283 6.46634 14.0748 6.44705C14.2212 6.42777 14.3701 6.43753 14.5128 6.47577C14.6555 6.51401 14.7893 6.57999 14.9065 6.66994C15.0237 6.75989 15.1221 6.87205 15.1959 7Z" fill="#1B63D4"/>
</svg>
