<svg width="20" height="20" viewBox="0 0 20 20" fill="none" xmlns="http://www.w3.org/2000/svg">
<path d="M14.6675 7.23212C14.8048 7.37602 14.8794 7.56856 14.8747 7.76741C14.8701 7.96625 14.7867 8.15511 14.6428 8.29244L9.14285 13.5424C9.00334 13.6756 8.8179 13.7499 8.62504 13.7499C8.43218 13.75 8.24672 13.6757 8.10719 13.5425L5.35713 10.9175C5.28532 10.8497 5.22762 10.7683 5.18736 10.6781C5.1471 10.5878 5.12506 10.4905 5.12251 10.3918C5.11997 10.293 5.13696 10.1947 5.17252 10.1025C5.20808 10.0103 5.26151 9.92607 5.32972 9.85459C5.39794 9.78312 5.47961 9.72583 5.57004 9.68602C5.66047 9.6462 5.75787 9.62465 5.85666 9.62259C5.95544 9.62053 6.05366 9.63802 6.14566 9.67404C6.23767 9.71005 6.32165 9.7639 6.39279 9.83247L8.62497 11.9632L13.6071 7.20747C13.751 7.07014 13.9435 6.99559 14.1424 7.00022C14.3412 7.00484 14.5301 7.08826 14.6674 7.23212H14.6675ZM19.75 10C19.75 11.9284 19.1782 13.8134 18.1068 15.4168C17.0355 17.0202 15.5127 18.2699 13.7312 19.0078C11.9496 19.7458 9.98919 19.9389 8.09787 19.5627C6.20656 19.1865 4.46928 18.2579 3.10571 16.8943C1.74215 15.5307 0.813554 13.7934 0.437348 11.9021C0.061142 10.0108 0.254225 8.05042 0.992179 6.26884C1.73013 4.48726 2.97982 2.96451 4.58319 1.89317C6.18657 0.821828 8.07164 0.25 10 0.25C12.585 0.252928 15.0632 1.2811 16.8911 3.10894C18.7189 4.93679 19.7471 7.41504 19.75 10ZM18.25 10C18.25 8.3683 17.7661 6.77325 16.8596 5.41655C15.9531 4.05984 14.6646 3.00242 13.1571 2.37799C11.6497 1.75357 9.99085 1.59019 8.39051 1.90852C6.79017 2.22685 5.32016 3.01259 4.16637 4.16637C3.01259 5.32015 2.22685 6.79016 1.90853 8.3905C1.5902 9.99085 1.75358 11.6496 2.378 13.1571C3.00242 14.6646 4.05984 15.9531 5.41655 16.8596C6.77326 17.7661 8.36831 18.25 10 18.25C12.1873 18.2475 14.2843 17.3775 15.8309 15.8309C17.3775 14.2843 18.2475 12.1873 18.25 10Z" fill="#7BBC49"/>
</svg>
