<svg width="20" height="21" viewBox="0 0 20 21" fill="none" xmlns="http://www.w3.org/2000/svg">
<path d="M18.125 13.4805H17.5V5.98047C17.4994 5.48336 17.3017 5.00677 16.9502 4.65526C16.5987 4.30375 16.1221 4.10603 15.625 4.10547H4.375C3.87789 4.10603 3.4013 4.30375 3.04979 4.65526C2.69828 5.00677 2.50056 5.48336 2.5 5.98047V13.4805H1.875C1.70924 13.4805 1.55027 13.5463 1.43306 13.6635C1.31585 13.7807 1.25 13.9397 1.25 14.1055V15.3555C1.25056 15.8526 1.44828 16.3292 1.79979 16.6807C2.1513 17.0322 2.62789 17.2299 3.125 17.2305H16.875C17.3721 17.2299 17.8487 17.0322 18.2002 16.6807C18.5517 16.3292 18.7494 15.8526 18.75 15.3555V14.1055C18.75 13.9397 18.6842 13.7807 18.5669 13.6635C18.4497 13.5463 18.2908 13.4805 18.125 13.4805ZM3.75 5.98047C3.75021 5.81477 3.81612 5.65592 3.93329 5.53876C4.05045 5.42159 4.2093 5.35568 4.375 5.35547H15.625C15.7907 5.35568 15.9495 5.42159 16.0667 5.53876C16.1839 5.65592 16.2498 5.81477 16.25 5.98047V13.4805H3.75V5.98047ZM17.5 15.3555C17.4998 15.5212 17.4339 15.68 17.3167 15.7972C17.1995 15.9143 17.0407 15.9803 16.875 15.9805H3.125C2.9593 15.9803 2.80045 15.9143 2.68329 15.7972C2.56612 15.68 2.50021 15.5212 2.5 15.3555V14.7305H17.5V15.3555ZM11.875 7.23047C11.875 7.39623 11.8092 7.5552 11.6919 7.67241C11.5747 7.78962 11.4158 7.85547 11.25 7.85547H8.75C8.58424 7.85547 8.42527 7.78962 8.30806 7.67241C8.19085 7.5552 8.125 7.39623 8.125 7.23047C8.125 7.06471 8.19085 6.90574 8.30806 6.78853C8.42527 6.67132 8.58424 6.60547 8.75 6.60547H11.25C11.4158 6.60547 11.5747 6.67132 11.6919 6.78853C11.8092 6.90574 11.875 7.06471 11.875 7.23047Z" fill="#1B63D4"/>
</svg>
