<svg width="30" height="30" viewBox="0 0 30 30" fill="none" xmlns="http://www.w3.org/2000/svg">
<path d="M15 0.375C12.1075 0.375 9.27986 1.23274 6.87479 2.83976C4.46972 4.44677 2.5952 6.73089 1.48827 9.40325C0.381337 12.0756 0.091713 15.0162 0.656022 17.8532C1.22033 20.6902 2.61323 23.2961 4.65857 25.3414C6.70391 27.3868 9.30984 28.7797 12.1468 29.344C14.9838 29.9083 17.9244 29.6187 20.5968 28.5117C23.2691 27.4048 25.5532 25.5303 27.1602 23.1252C28.7673 20.7201 29.625 17.8926 29.625 15C29.6206 11.1226 28.0784 7.40518 25.3366 4.66341C22.5948 1.92165 18.8774 0.379392 15 0.375ZM15 27.375C12.5525 27.375 10.1599 26.6492 8.12482 25.2894C6.08977 23.9297 4.50363 21.9969 3.567 19.7357C2.63036 17.4745 2.3853 14.9863 2.86279 12.5858C3.34028 10.1852 4.51889 7.98023 6.24956 6.24955C7.98024 4.51888 10.1852 3.34027 12.5858 2.86278C14.9863 2.38529 17.4745 2.63036 19.7357 3.56699C21.997 4.50363 23.9297 6.08976 25.2894 8.12482C26.6492 10.1599 27.375 12.5525 27.375 15C27.3713 18.2809 26.0663 21.4264 23.7463 23.7463C21.4264 26.0663 18.2809 27.3713 15 27.375ZM16.6875 22.3125C16.6875 22.6463 16.5885 22.9725 16.4031 23.25C16.2177 23.5275 15.9541 23.7438 15.6458 23.8715C15.3374 23.9993 14.9981 24.0327 14.6708 23.9676C14.3434 23.9025 14.0428 23.7417 13.8068 23.5057C13.5708 23.2697 13.41 22.9691 13.3449 22.6417C13.2798 22.3144 13.3132 21.9751 13.441 21.6667C13.5687 21.3584 13.785 21.0948 14.0625 20.9094C14.34 20.724 14.6663 20.625 15 20.625C15.4476 20.625 15.8768 20.8028 16.1932 21.1193C16.5097 21.4357 16.6875 21.8649 16.6875 22.3125ZM20.0625 12.1882C20.061 13.335 19.6708 14.4475 18.9557 15.344C18.2406 16.2405 17.2428 16.8682 16.125 17.1247V17.2507C16.125 17.5491 16.0065 17.8352 15.7955 18.0462C15.5845 18.2572 15.2984 18.3757 15 18.3757C14.7016 18.3757 14.4155 18.2572 14.2045 18.0462C13.9935 17.8352 13.875 17.5491 13.875 17.2507V16.1257C13.875 15.8273 13.9935 15.5412 14.2045 15.3302C14.4155 15.1192 14.7016 15.0007 15 15.0007C15.5563 15.0007 16.1 14.8358 16.5625 14.5267C17.0251 14.2177 17.3855 13.7784 17.5984 13.2645C17.8113 12.7506 17.867 12.1851 17.7585 11.6395C17.6499 11.0939 17.3821 10.5928 16.9887 10.1995C16.5954 9.80613 16.0943 9.53827 15.5487 9.42974C15.0031 9.32122 14.4376 9.37692 13.9237 9.58979C13.4098 9.80266 12.9705 10.1631 12.6615 10.6257C12.3525 11.0882 12.1875 11.6319 12.1875 12.1882C12.1875 12.4866 12.069 12.7727 11.858 12.9837C11.647 13.1947 11.3609 13.3132 11.0625 13.3132C10.7641 13.3132 10.478 13.1947 10.267 12.9837C10.056 12.7727 9.93751 12.4866 9.93751 12.1882C9.93751 10.8455 10.4709 9.55788 11.4203 8.60847C12.3697 7.65907 13.6573 7.1257 15 7.1257C16.3427 7.1257 17.6303 7.65907 18.5797 8.60847C19.5291 9.55788 20.0625 10.8455 20.0625 12.1882Z" fill="#ED543A"/>
</svg>
