<svg width="20" height="21" viewBox="0 0 20 21" fill="none" xmlns="http://www.w3.org/2000/svg">
<path d="M18.75 15.3555C18.75 15.5213 18.6842 15.6803 18.5669 15.7975C18.4497 15.9147 18.2908 15.9805 18.125 15.9805H15.625V18.4805C15.625 18.6463 15.5592 18.8053 15.4419 18.9225C15.3247 19.0397 15.1658 19.1055 15 19.1055C14.8342 19.1055 14.6753 19.0397 14.5581 18.9225C14.4408 18.8053 14.375 18.6463 14.375 18.4805V15.9805H5C4.83424 15.9805 4.67527 15.9147 4.55806 15.7975C4.44085 15.6803 4.375 15.5213 4.375 15.3555V5.98047H1.875C1.70924 5.98047 1.55027 5.91462 1.43306 5.79741C1.31585 5.6802 1.25 5.52123 1.25 5.35547C1.25 5.18971 1.31585 5.03074 1.43306 4.91353C1.55027 4.79632 1.70924 4.73047 1.875 4.73047H4.375V2.23047C4.375 2.06471 4.44085 1.90574 4.55806 1.78853C4.67527 1.67132 4.83424 1.60547 5 1.60547C5.16576 1.60547 5.32473 1.67132 5.44194 1.78853C5.55915 1.90574 5.625 2.06471 5.625 2.23047V14.7305H18.125C18.2908 14.7305 18.4497 14.7964 18.5669 14.9136C18.6842 15.0308 18.75 15.1898 18.75 15.3555ZM7.49938 5.98047H14.375V12.8555C14.375 13.0213 14.4408 13.1803 14.5581 13.2975C14.6753 13.4147 14.8342 13.4805 15 13.4805C15.1658 13.4805 15.3247 13.4147 15.4419 13.2975C15.5592 13.1803 15.625 13.0213 15.625 12.8555V5.35547C15.625 5.18971 15.5592 5.03074 15.4419 4.91353C15.3247 4.79632 15.1658 4.73047 15 4.73047H7.49938C7.33362 4.73047 7.17464 4.79632 7.05743 4.91353C6.94022 5.03074 6.87438 5.18971 6.87438 5.35547C6.87438 5.52123 6.94022 5.6802 7.05743 5.79741C7.17464 5.91462 7.33362 5.98047 7.49938 5.98047V5.98047Z" fill="#1B63D4"/>
</svg>
