<svg width="16" height="16" viewBox="0 0 16 16" fill="none" xmlns="http://www.w3.org/2000/svg">
<path d="M14.8808 10.4758C14.8913 10.4517 14.9 10.4268 14.907 10.4015C15.4479 8.84559 15.4477 7.15267 14.9063 5.59695C14.8996 5.57279 14.8913 5.54911 14.8814 5.52608C14.3706 4.11077 13.4364 2.88709 12.2057 2.0214C10.975 1.15572 9.50762 0.690034 8.00298 0.68766L8.00002 0.685059L7.99707 0.68766C6.49258 0.690034 5.02532 1.15562 3.79471 2.02112C2.56411 2.88663 1.62986 4.11008 1.11896 5.52516C1.10874 5.5488 1.10016 5.57311 1.0933 5.59793C0.551898 7.15464 0.552244 8.84858 1.09428 10.4051C1.1008 10.4282 1.10881 10.4509 1.11826 10.473C1.62883 11.8886 2.56302 13.1126 3.79378 13.9785C5.02454 14.8444 6.49214 15.3103 7.997 15.3127L8.00002 15.3153L8.00305 15.3127C9.5074 15.3103 10.9745 14.8447 12.2051 13.9794C13.4356 13.114 14.3698 11.8907 14.8808 10.4758ZM6.20551 10.8127H9.79454C9.43005 11.9304 8.81644 12.9508 8.00002 13.7969C7.1836 12.9508 6.57 11.9304 6.20551 10.8127ZM5.91104 9.68766C5.69639 8.5729 5.69639 7.42742 5.91104 6.31266H10.089C10.3037 7.42742 10.3037 8.5729 10.089 9.68766H5.91104ZM1.81252 8.00016C1.81212 7.42955 1.89085 6.86164 2.04645 6.31266H4.76368C4.57883 7.43007 4.57883 8.57025 4.76368 9.68766H2.04645C1.89085 9.13868 1.81212 8.57077 1.81252 8.00016ZM9.79454 5.18766H6.20551C6.57 4.06992 7.18361 3.04957 8.00002 2.2036C8.81643 3.04957 9.43004 4.06992 9.79454 5.18766ZM11.2364 6.31266H13.9536C14.2655 7.41605 14.2655 8.58428 13.9536 9.68766H11.2364C11.4212 8.57025 11.4212 7.43007 11.2364 6.31266ZM13.5106 5.18766H10.9818C10.645 4.00234 10.0674 2.89921 9.28498 1.94724C10.1855 2.14021 11.0319 2.53108 11.7627 3.09153C12.4936 3.65199 13.0906 4.36799 13.5106 5.18766ZM6.71506 1.94724C5.93265 2.89921 5.355 4.00234 5.01821 5.18766H2.48949C2.90945 4.36799 3.50648 3.65199 4.23732 3.09153C4.96816 2.53108 5.81451 2.14021 6.71506 1.94724ZM2.48949 10.8127H5.01828C5.35508 11.998 5.93272 13.1011 6.71513 14.0532C5.81456 13.8602 4.96819 13.4693 4.23734 12.9088C3.50648 12.3484 2.90945 11.6324 2.48949 10.8127ZM9.28491 14.0532C10.0673 13.1011 10.645 11.998 10.9818 10.8127H13.5106C13.0906 11.6324 12.4936 12.3484 11.7627 12.9088C11.0319 13.4693 10.1855 13.8602 9.28491 14.0532Z" fill="#A1ADB9"/>
</svg>
