<svg width="17" height="18" viewBox="0 0 17 18" fill="none" xmlns="http://www.w3.org/2000/svg">
<path d="M12.3896 6.69344C12.504 6.81335 12.5662 6.9738 12.5623 7.13951C12.5584 7.30521 12.4889 7.46259 12.369 7.57703L7.78571 11.952C7.66945 12.063 7.51492 12.1249 7.3542 12.125C7.19348 12.125 7.03893 12.0631 6.92266 11.9521L4.63094 9.76461C4.5711 9.70806 4.52302 9.64024 4.48947 9.56504C4.45591 9.48985 4.43755 9.40878 4.43543 9.32647C4.4333 9.24415 4.44747 9.16224 4.4771 9.08542C4.50673 9.0086 4.55125 8.93839 4.6081 8.87883C4.66495 8.81927 4.73301 8.77152 4.80837 8.73835C4.88373 8.70517 4.96489 8.68721 5.04721 8.68549C5.12953 8.68378 5.21138 8.69835 5.28805 8.72836C5.36472 8.75838 5.43471 8.80325 5.49399 8.86039L7.35414 10.636L11.5059 6.67289C11.6258 6.55845 11.7863 6.49633 11.952 6.50018C12.1177 6.50403 12.2751 6.57355 12.3895 6.69344H12.3896ZM16.625 9C16.625 10.607 16.1485 12.1779 15.2557 13.514C14.3629 14.8502 13.094 15.8916 11.6093 16.5065C10.1247 17.1215 8.49099 17.2824 6.9149 16.9689C5.3388 16.6554 3.89106 15.8815 2.75476 14.7452C1.61846 13.6089 0.844628 12.1612 0.531123 10.5851C0.217618 9.00901 0.37852 7.37535 0.993482 5.8907C1.60844 4.40605 2.64985 3.1371 3.986 2.24431C5.32214 1.35152 6.89303 0.875 8.5 0.875C10.6541 0.87744 12.7193 1.73425 14.2426 3.25745C15.7658 4.78066 16.6226 6.84586 16.625 9ZM15.375 9C15.375 7.64025 14.9718 6.31104 14.2164 5.18045C13.4609 4.04987 12.3872 3.16868 11.131 2.64833C9.87471 2.12798 8.49238 1.99183 7.15876 2.2571C5.82514 2.52237 4.60013 3.17716 3.63864 4.13864C2.67716 5.10013 2.02238 6.32513 1.7571 7.65875C1.49183 8.99237 1.62798 10.3747 2.14833 11.6309C2.66868 12.8872 3.54987 13.9609 4.68046 14.7164C5.81105 15.4718 7.14026 15.875 8.5 15.875C10.3227 15.8729 12.0702 15.1479 13.3591 13.8591C14.6479 12.5702 15.3729 10.8227 15.375 9Z" fill="white"/>
</svg>
