<svg width="20" height="20" viewBox="0 0 20 20" fill="none" xmlns="http://www.w3.org/2000/svg">
<path d="M10.9375 15C10.9375 15.1854 10.8825 15.3667 10.7795 15.5209C10.6765 15.675 10.5301 15.7952 10.3588 15.8661C10.1875 15.9371 9.99896 15.9557 9.81711 15.9195C9.63525 15.8833 9.4682 15.794 9.33709 15.6629C9.20598 15.5318 9.11669 15.3648 9.08051 15.1829C9.04434 15.001 9.06291 14.8125 9.13386 14.6412C9.20482 14.4699 9.32498 14.3235 9.47916 14.2205C9.63333 14.1175 9.81458 14.0625 10 14.0625C10.2486 14.0628 10.4868 14.1617 10.6626 14.3374C10.8384 14.5132 10.9372 14.7515 10.9375 15ZM10 5.9375C10.1854 5.9375 10.3667 5.88252 10.5209 5.7795C10.675 5.67649 10.7952 5.53007 10.8661 5.35877C10.9371 5.18746 10.9557 4.99896 10.9195 4.8171C10.8833 4.63525 10.794 4.4682 10.6629 4.33709C10.5318 4.20598 10.3648 4.11669 10.1829 4.08051C10.001 4.04434 9.81254 4.06291 9.64124 4.13386C9.46993 4.20482 9.32351 4.32498 9.2205 4.47915C9.11748 4.63332 9.0625 4.81458 9.0625 5C9.06279 5.24855 9.16166 5.48684 9.33741 5.66259C9.51316 5.83835 9.75145 5.93721 10 5.9375ZM10 9.0625C9.81458 9.0625 9.63333 9.11749 9.47916 9.2205C9.32498 9.32351 9.20482 9.46993 9.13386 9.64124C9.06291 9.81254 9.04434 10.001 9.08051 10.1829C9.11669 10.3648 9.20598 10.5318 9.33709 10.6629C9.4682 10.794 9.63525 10.8833 9.81711 10.9195C9.99896 10.9557 10.1875 10.9371 10.3588 10.8661C10.5301 10.7952 10.6765 10.675 10.7795 10.5209C10.8825 10.3667 10.9375 10.1854 10.9375 10C10.9372 9.75145 10.8384 9.51316 10.6626 9.33741C10.4868 9.16166 10.2486 9.06279 10 9.0625Z" fill="white"/>
</svg>
