<svg width="16" height="15" viewBox="0 0 16 15" fill="none" xmlns="http://www.w3.org/2000/svg">
<path d="M15.2843 13.7158C15.4252 13.858 15.5042 14.0501 15.5042 14.2502C15.5042 14.4504 15.4252 14.6424 15.2843 14.7846C15.141 14.9232 14.9494 15.0007 14.7499 15.0007C14.5505 15.0007 14.3589 14.9232 14.2156 14.7846L7.99994 8.55959L1.78432 14.7846C1.64097 14.9232 1.44936 15.0007 1.24995 15.0007C1.05054 15.0007 0.858926 14.9232 0.715571 14.7846C0.574735 14.6424 0.495728 14.4504 0.495728 14.2502C0.495728 14.0501 0.574735 13.858 0.715571 13.7158L6.94057 7.50022L0.715571 1.28459C0.595974 1.13887 0.534855 0.953871 0.544103 0.765582C0.55335 0.577293 0.632303 0.399174 0.765604 0.265873C0.898905 0.132572 1.07702 0.0536195 1.26531 0.0443719C1.4536 0.0351244 1.6386 0.0962433 1.78432 0.215841L7.99994 6.44084L14.2156 0.215841C14.3613 0.0962433 14.5463 0.0351244 14.7346 0.0443719C14.9229 0.0536195 15.101 0.132572 15.2343 0.265873C15.3676 0.399174 15.4465 0.577293 15.4558 0.765582C15.465 0.953871 15.4039 1.13887 15.2843 1.28459L9.05932 7.50022L15.2843 13.7158Z" fill="#1B63D4"/>
</svg>
