<svg width="17" height="18" viewBox="0 0 17 18" fill="none" xmlns="http://www.w3.org/2000/svg">
<path d="M7 0.75H1C0.801088 0.75 0.610322 0.829018 0.46967 0.96967C0.329018 1.11032 0.25 1.30109 0.25 1.5V7.5C0.25 7.69891 0.329018 7.88968 0.46967 8.03033C0.610322 8.17098 0.801088 8.25 1 8.25H7C7.19891 8.25 7.38968 8.17098 7.53033 8.03033C7.67098 7.88968 7.75 7.69891 7.75 7.5V1.5C7.75 1.30109 7.67098 1.11032 7.53033 0.96967C7.38968 0.829018 7.19891 0.75 7 0.75ZM6.25 6.75H1.75V2.25H6.25V6.75ZM16 0.75H10C9.80109 0.75 9.61032 0.829018 9.46967 0.96967C9.32902 1.11032 9.25 1.30109 9.25 1.5V7.5C9.25 7.69891 9.32902 7.88968 9.46967 8.03033C9.61032 8.17098 9.80109 8.25 10 8.25H16C16.1989 8.25 16.3897 8.17098 16.5303 8.03033C16.671 7.88968 16.75 7.69891 16.75 7.5V1.5C16.75 1.30109 16.671 1.11032 16.5303 0.96967C16.3897 0.829018 16.1989 0.75 16 0.75ZM15.25 6.75H10.75V2.25H15.25V6.75ZM7 9.75H1C0.801088 9.75 0.610322 9.82902 0.46967 9.96967C0.329018 10.1103 0.25 10.3011 0.25 10.5V16.5C0.25 16.6989 0.329018 16.8897 0.46967 17.0303C0.610322 17.171 0.801088 17.25 1 17.25H7C7.19891 17.25 7.38968 17.171 7.53033 17.0303C7.67098 16.8897 7.75 16.6989 7.75 16.5V10.5C7.75 10.3011 7.67098 10.1103 7.53033 9.96967C7.38968 9.82902 7.19891 9.75 7 9.75ZM6.25 15.75H1.75V11.25H6.25V15.75ZM16 9.75H10C9.80109 9.75 9.61032 9.82902 9.46967 9.96967C9.32902 10.1103 9.25 10.3011 9.25 10.5V16.5C9.25 16.6989 9.32902 16.8897 9.46967 17.0303C9.61032 17.171 9.80109 17.25 10 17.25H16C16.1989 17.25 16.3897 17.171 16.5303 17.0303C16.671 16.8897 16.75 16.6989 16.75 16.5V10.5C16.75 10.3011 16.671 10.1103 16.5303 9.96967C16.3897 9.82902 16.1989 9.75 16 9.75ZM15.25 15.75H10.75V11.25H15.25V15.75Z" fill="#1B63D4"/>
</svg>
