<svg width="12" height="2" viewBox="0 0 12 2" fill="none" xmlns="http://www.w3.org/2000/svg">
<path d="M1.9375 1C1.9375 1.18542 1.88252 1.36668 1.7795 1.52085C1.67649 1.67502 1.53007 1.79518 1.35877 1.86614C1.18746 1.9371 0.998961 1.95566 0.817103 1.91949C0.635246 1.88332 0.4682 1.79403 0.337088 1.66291C0.205976 1.5318 0.116688 1.36476 0.0805142 1.1829C0.0443406 1.00104 0.0629062 0.812541 0.133863 0.641235C0.204821 0.469929 0.324982 0.323511 0.479153 0.220497C0.633324 0.117483 0.814581 0.0625 1 0.0625C1.24855 0.0627895 1.48684 0.161655 1.66259 0.337408C1.83835 0.513161 1.93721 0.751449 1.9375 1ZM11 0.0625C10.8146 0.0625 10.6333 0.117483 10.4792 0.220497C10.325 0.323511 10.2048 0.469929 10.1339 0.641235C10.0629 0.812541 10.0443 1.00104 10.0805 1.1829C10.1167 1.36476 10.206 1.5318 10.3371 1.66291C10.4682 1.79403 10.6352 1.88332 10.8171 1.91949C10.999 1.95566 11.1875 1.9371 11.3588 1.86614C11.5301 1.79518 11.6765 1.67502 11.7795 1.52085C11.8825 1.36668 11.9375 1.18542 11.9375 1C11.9372 0.751449 11.8383 0.513161 11.6626 0.337408C11.4868 0.161655 11.2486 0.0627895 11 0.0625ZM6 0.0625C5.81458 0.0625 5.63332 0.117483 5.47915 0.220497C5.32498 0.323511 5.20482 0.469929 5.13386 0.641235C5.06291 0.812541 5.04434 1.00104 5.08051 1.1829C5.11669 1.36476 5.20598 1.5318 5.33709 1.66291C5.4682 1.79403 5.63525 1.88332 5.8171 1.91949C5.99896 1.95566 6.18746 1.9371 6.35877 1.86614C6.53007 1.79518 6.67649 1.67502 6.7795 1.52085C6.88252 1.36668 6.9375 1.18542 6.9375 1C6.93721 0.751449 6.83835 0.513161 6.66259 0.337408C6.48684 0.161655 6.24855 0.0627895 6 0.0625Z" fill="#1B63D4"/>
</svg>
