<svg width="24" height="24" viewBox="0 0 24 24" fill="none" xmlns="http://www.w3.org/2000/svg">
<path d="M12 0.335938C9.75024 0.335938 7.551 1.00307 5.68039 2.25297C3.80978 3.50287 2.35182 5.2794 1.49088 7.35791C0.629929 9.43642 0.404666 11.7236 0.843573 13.9301C1.28248 16.1366 2.36584 18.1635 3.95667 19.7543C5.54749 21.3451 7.57432 22.4285 9.78085 22.8674C11.9874 23.3063 14.2745 23.081 16.353 22.2201C18.4315 21.3591 20.2081 19.9012 21.458 18.0305C22.7079 16.1599 23.375 13.9607 23.375 11.7109C23.3721 8.69499 22.1727 5.80339 20.0401 3.6708C17.9075 1.5382 15.016 0.338833 12 0.335938ZM12 21.3359C10.0964 21.3359 8.23546 20.7714 6.65264 19.7138C5.06982 18.6562 3.83616 17.153 3.10766 15.3943C2.37917 13.6355 2.18856 11.7003 2.55995 9.83319C2.93133 7.96613 3.84802 6.25111 5.1941 4.90503C6.54018 3.55895 8.25519 2.64226 10.1223 2.27088C11.9893 1.8995 13.9246 2.0901 15.6833 2.8186C17.4421 3.54709 18.9453 4.78075 20.0029 6.36357C21.0605 7.9464 21.625 9.80729 21.625 11.7109C21.6221 14.2628 20.6071 16.7092 18.8027 18.5136C16.9983 20.3181 14.5518 21.333 12 21.3359ZM13.75 16.9609C13.75 17.193 13.6578 17.4156 13.4937 17.5797C13.3296 17.7437 13.1071 17.8359 12.875 17.8359H12C11.7679 17.8359 11.5454 17.7437 11.3813 17.5797C11.2172 17.4156 11.125 17.193 11.125 16.9609V11.7109C10.8929 11.7109 10.6704 11.6187 10.5063 11.4547C10.3422 11.2906 10.25 11.068 10.25 10.8359C10.25 10.6039 10.3422 10.3813 10.5063 10.2172C10.6704 10.0531 10.8929 9.96094 11.125 9.96094H12C12.2321 9.96094 12.4546 10.0531 12.6187 10.2172C12.7828 10.3813 12.875 10.6039 12.875 10.8359V16.0859C13.1071 16.0859 13.3296 16.1781 13.4937 16.3422C13.6578 16.5063 13.75 16.7289 13.75 16.9609ZM10.4688 6.89844C10.4688 6.63885 10.5457 6.38509 10.69 6.16925C10.8342 5.95341 11.0392 5.78519 11.279 5.68584C11.5188 5.5865 11.7827 5.56051 12.0373 5.61116C12.2919 5.6618 12.5258 5.7868 12.7093 5.97036C12.8929 6.15392 13.0179 6.38778 13.0685 6.64238C13.1192 6.89698 13.0932 7.16088 12.9938 7.40071C12.8945 7.64054 12.7263 7.84552 12.5104 7.98974C12.2946 8.13396 12.0408 8.21094 11.7813 8.21094C11.4332 8.21094 11.0993 8.07266 10.8532 7.82651C10.607 7.58037 10.4688 7.24653 10.4688 6.89844Z" fill="#1B63D4"/>
</svg>
