<svg width="20" height="21" viewBox="0 0 20 21" fill="none" xmlns="http://www.w3.org/2000/svg">
<path d="M13.75 1.60547H6.25C5.75289 1.60603 5.2763 1.80375 4.92479 2.15526C4.57328 2.50677 4.37556 2.98336 4.375 3.48047V17.2305C4.37556 17.7276 4.57328 18.2042 4.92479 18.5557C5.2763 18.9072 5.75289 19.1049 6.25 19.1055H13.75C14.2471 19.1049 14.7237 18.9072 15.0752 18.5557C15.4267 18.2042 15.6244 17.7276 15.625 17.2305V3.48047C15.6244 2.98336 15.4267 2.50677 15.0752 2.15526C14.7237 1.80375 14.2471 1.60603 13.75 1.60547ZM14.375 17.2305C14.3748 17.3962 14.3089 17.555 14.1917 17.6722C14.0745 17.7893 13.9157 17.8553 13.75 17.8555H6.25C6.0843 17.8553 5.92545 17.7893 5.80829 17.6722C5.69112 17.555 5.62521 17.3962 5.625 17.2305V3.48047C5.62521 3.31477 5.69112 3.15592 5.80829 3.03876C5.92545 2.92159 6.0843 2.85568 6.25 2.85547H13.75C13.9157 2.85568 14.0745 2.92159 14.1917 3.03876C14.3089 3.15592 14.3748 3.31477 14.375 3.48047V17.2305ZM13.125 4.73047C13.125 4.89623 13.0592 5.0552 12.9419 5.17241C12.8247 5.28962 12.6658 5.35547 12.5 5.35547H7.5C7.33424 5.35547 7.17527 5.28962 7.05806 5.17241C6.94085 5.0552 6.875 4.89623 6.875 4.73047C6.875 4.56471 6.94085 4.40574 7.05806 4.28853C7.17527 4.17132 7.33424 4.10547 7.5 4.10547H12.5C12.6658 4.10547 12.8247 4.17132 12.9419 4.28853C13.0592 4.40574 13.125 4.56471 13.125 4.73047Z" fill="#1B63D4"/>
</svg>
