<svg width="130" height="28" viewBox="0 0 130 28" fill="none" xmlns="http://www.w3.org/2000/svg">
<path fill-rule="evenodd" clip-rule="evenodd" d="M19.9509 12.2506V10.4301V8.12801H18.3766V10.4301V12.2506H19.9509Z" fill="url(#paint0_linear_6541_35074)"/>
<path fill-rule="evenodd" clip-rule="evenodd" d="M4.66663 4.90011V14.1167C4.66663 19.1858 8.81413 23.3333 13.8834 23.3333C18.9524 23.3333 23.1 19.1858 23.1 14.1167V4.90011H19.9512H19.1641H18.3769H16.8025H16.1959H15.2282V6.47453V8.04895V9.62338V11.1977V12.7721V14.117C15.2282 14.8411 14.6074 15.4618 13.8834 15.4618C13.1592 15.4618 12.5385 14.8412 12.5385 14.117V12.7721V11.1977V13.1314V11.557V11.3754H10.9641V11.557V13.1314V11.1977V14.117C10.9641 15.7102 12.2903 17.0362 13.8834 17.0362C15.4764 17.0362 16.8025 15.7102 16.8025 14.117V11.1977V9.62338V8.04895V6.47453H18.3769H19.9512H21.5257V8.04895V14.1168C21.5257 18.317 18.0835 21.759 13.8835 21.759C9.68319 21.759 6.24117 18.317 6.24117 14.1168V6.47453H7.81559L7.81547 8.04895H7.81559V12.3456H7.81547V14.1168C7.81547 17.4481 10.5523 20.1847 13.8835 20.1847C17.2146 20.1847 19.9512 17.4479 19.9512 14.1168V13.8915H18.3769V14.1168C18.3769 16.579 16.3456 18.6104 13.8835 18.6104C11.4213 18.6104 9.38977 16.579 9.38977 14.1168V12.3456L9.38989 9.62325V8.04883V6.47441V4.89998H7.81559H4.66675L4.66663 4.90011Z" fill="url(#paint1_linear_6541_35074)"/>
<path fill-rule="evenodd" clip-rule="evenodd" d="M7.81567 8.04882V12.3456V12.7197H9.38985V12.3456L9.38997 9.62324V8.04882V6.47452H7.81567V8.04882Z" fill="url(#paint2_linear_6541_35074)"/>
<path fill-rule="evenodd" clip-rule="evenodd" d="M15.2277 8.04882V12.3456V12.7197H16.802V12.3456V9.62324V8.04882V6.47452H15.2277V8.04882Z" fill="url(#paint3_linear_6541_35074)"/>
<path fill-rule="evenodd" clip-rule="evenodd" d="M12.5389 9.72113V8.59785V7.1778H10.9646V8.59785V9.72113H12.5389Z" fill="url(#paint4_linear_6541_35074)"/>
<path d="M27.6967 22.8667V4.9H31.8803L41.7877 16.8607H39.8113V4.9H44.7907V22.8667H40.607L30.6997 10.906H32.676V22.8667H27.6967Z" fill="#333333"/>
<path d="M48.3754 22.8667V4.9H53.4574V22.8667H48.3754Z" fill="#333333"/>
<path d="M57.073 22.8667V4.9H61.2566L68.7 17.1173H66.4926L73.7306 4.9H77.9143L77.9656 22.8667H73.2943L73.243 12.0097H74.0386L68.623 21.0957H66.3643L60.7946 12.0097H61.77V22.8667H57.073Z" fill="#333333"/>
<path d="M81.5616 22.8667V4.9H86.6436V22.8667H81.5616Z" fill="#333333"/>
<path d="M90.2592 22.8667V4.9H94.4428L104.35 16.8607H102.374V4.9H107.353V22.8667H103.169L93.2622 10.906H95.2385V22.8667H90.2592Z" fill="#333333"/>
<path d="M110.938 22.8667V4.9H119.434C121.418 4.9 123.164 5.26789 124.67 6.00367C126.175 6.73944 127.347 7.77467 128.186 9.10933C129.041 10.444 129.469 12.0353 129.469 13.8833C129.469 15.7142 129.041 17.3056 128.186 18.6573C127.347 19.992 126.175 21.0272 124.67 21.763C123.164 22.4988 121.418 22.8667 119.434 22.8667H110.938ZM116.02 18.8113H119.228C120.255 18.8113 121.145 18.6231 121.898 18.2467C122.668 17.8531 123.266 17.2884 123.694 16.5527C124.122 15.7998 124.336 14.91 124.336 13.8833C124.336 12.8396 124.122 11.9498 123.694 11.214C123.266 10.4782 122.668 9.92211 121.898 9.54567C121.145 9.15211 120.255 8.95533 119.228 8.95533H116.02V18.8113Z" fill="#333333"/>
<defs>
<linearGradient id="paint0_linear_6541_35074" x1="19.1637" y1="8.12801" x2="19.1637" y2="12.2506" gradientUnits="userSpaceOnUse">
<stop stop-color="#1B63D4"/>
<stop offset="1" stop-color="#0845A4"/>
</linearGradient>
<linearGradient id="paint1_linear_6541_35074" x1="13.8833" y1="4.89998" x2="13.8833" y2="23.3333" gradientUnits="userSpaceOnUse">
<stop stop-color="#1B63D4"/>
<stop offset="1" stop-color="#0845A4"/>
</linearGradient>
<linearGradient id="paint2_linear_6541_35074" x1="8.60282" y1="6.47452" x2="8.60282" y2="12.7197" gradientUnits="userSpaceOnUse">
<stop stop-color="#1B63D4"/>
<stop offset="1" stop-color="#0845A4"/>
</linearGradient>
<linearGradient id="paint3_linear_6541_35074" x1="16.0148" y1="6.47452" x2="16.0148" y2="12.7197" gradientUnits="userSpaceOnUse">
<stop stop-color="#1B63D4"/>
<stop offset="1" stop-color="#0845A4"/>
</linearGradient>
<linearGradient id="paint4_linear_6541_35074" x1="11.7517" y1="7.1778" x2="11.7517" y2="9.72113" gradientUnits="userSpaceOnUse">
<stop stop-color="#1B63D4"/>
<stop offset="1" stop-color="#0845A4"/>
</linearGradient>
</defs>
</svg>
