<svg width="20" height="14" viewBox="0 0 20 14" fill="none" xmlns="http://www.w3.org/2000/svg">
<path d="M19.3209 6.74611C19.2934 6.68439 18.6319 5.21673 17.1605 3.74533C15.2008 1.7854 12.7245 0.74939 9.99977 0.74939C7.275 0.74939 4.79875 1.78533 2.83907 3.74525C1.36766 5.21673 0.70602 6.68447 0.678598 6.74619C0.643098 6.8261 0.624756 6.91257 0.624756 7.00001C0.624756 7.08746 0.643098 7.17393 0.678598 7.25384C0.706098 7.31556 1.36766 8.7829 2.83914 10.2542C4.79883 12.2136 7.27493 13.2494 9.99977 13.2494C12.7246 13.2494 15.2007 12.2136 17.1604 10.2542C18.6318 8.7829 19.2934 7.31564 19.3209 7.25384C19.3564 7.17393 19.3748 7.08746 19.3748 7.00001C19.3748 6.91257 19.3564 6.8261 19.3209 6.74619L19.3209 6.74611ZM9.99977 11.9995C7.59508 11.9995 5.49399 11.1256 3.75485 9.40212C3.04011 8.69281 2.4319 7.88371 1.94914 7.00001C2.43187 6.11614 3.04009 5.30685 3.75485 4.59736C5.49399 2.87345 7.59516 1.99939 9.99977 1.99939C12.4044 1.99939 14.5056 2.87345 16.2447 4.59736C16.9595 5.30683 17.5677 6.11612 18.0505 7.00001C17.487 8.05079 15.0335 11.9992 9.99977 11.9992V11.9995ZM9.99977 3.25001C9.25809 3.25001 8.53307 3.46995 7.91638 3.882C7.2997 4.29406 6.81905 4.87973 6.53522 5.56495C6.25139 6.25017 6.17713 7.00417 6.32183 7.7316C6.46652 8.45903 6.82367 9.12722 7.34812 9.65166C7.87257 10.1761 8.54075 10.5333 9.26818 10.678C9.99561 10.8227 10.7496 10.7484 11.4348 10.4646C12.1201 10.1807 12.7057 9.70009 13.1178 9.0834C13.5298 8.46672 13.7498 7.74169 13.7498 7.00001C13.7487 6.00579 13.3532 5.05262 12.6502 4.3496C11.9472 3.64658 10.994 3.25113 9.99977 3.25001V3.25001ZM9.99977 9.50001C9.50532 9.50001 9.02197 9.35339 8.61084 9.07869C8.19972 8.80398 7.87929 8.41354 7.69007 7.95672C7.50085 7.49991 7.45134 6.99724 7.54781 6.51229C7.64427 6.02734 7.88237 5.58188 8.232 5.23225C8.58163 4.88262 9.02709 4.64451 9.51204 4.54805C9.997 4.45159 10.4997 4.5011 10.9565 4.69031C11.4133 4.87953 11.8037 5.19997 12.0784 5.61109C12.3531 6.02221 12.4998 6.50556 12.4998 7.00001C12.499 7.66282 12.2354 8.29826 11.7667 8.76694C11.298 9.23561 10.6626 9.49925 9.99977 9.50001V9.50001Z" fill="#1B63D4"/>
</svg>
