<svg width="20" height="20" viewBox="0 0 20 20" fill="none" xmlns="http://www.w3.org/2000/svg">
<g clip-path="url(#clip0_8957_14485)">
<rect width="20" height="20" rx="10" fill="white"/>
<path d="M10 0C4.47714 0 0 4.47714 0 10C0 15.5231 4.47714 20 10 20C15.5231 20 20 15.5229 20 10C20 4.47714 15.5231 0 10 0ZM16.3265 3.54796C16.3265 4.12939 16.2245 4.58204 15.9933 4.90633C15.7616 5.23061 15.442 5.48061 15.0202 5.65592C14.6935 5.79122 14.2373 5.89959 13.7343 5.98061C13.2312 6.06163 12.8571 6.10204 12.2449 6.10204V15.9594C13.2653 15.6465 13.9349 15.218 14.5341 14.6735C14.9694 14.2653 15.4473 13.6873 15.9237 12.9388L16.0776 13.0002C15.8459 14.4561 15.2086 15.6737 14.1543 16.6529C13.1 17.632 11.8337 18.1222 10.3508 18.1222C8.28286 18.1222 6.56673 17.5398 5.19918 16.3747C3.83184 15.21 3.14898 13.7551 3.14898 12.011C3.14898 10.7845 3.50306 9.55143 4.21061 8.31143C4.98612 6.94878 5.98633 5.93347 7.21082 5.26571C6.95204 5.22041 6.74143 5.16184 6.57816 5.1502C6.4149 5.13878 6.17 5.10245 5.84347 5.10245C5.73449 5.10245 5.64612 5.10245 5.57816 5.10245C5.14265 5.10245 4.57102 5.33388 3.86388 5.7351C3.15633 6.13653 2.63224 6.53102 2.29245 7.14327H2.17C2.08837 6.7351 2.23122 6.21163 2.59939 5.53122C3.51204 3.84429 5.01061 3.00061 7.09551 3.00061C7.68143 3.00061 8.96551 3.19796 10.9478 3.59245C12.93 3.98714 14.0304 4.18429 14.2486 4.18429C14.7392 4.18429 15.1139 4.11633 15.3729 3.9802C15.6859 3.80347 15.9384 3.47694 16.1565 3.00061L16.3267 3.08225C16.3265 3.25735 16.3265 3.41265 16.3265 3.54796Z" fill="#016FBA"/>
<path d="M7.94208 13.5302C8.06473 13.1496 8.1633 12.8294 8.1633 12.5713V5.44882L7.81963 5.36719C7.0033 5.85698 6.36555 6.59882 5.94371 7.59168C5.57636 8.44882 5.3833 9.34678 5.3833 10.2854C5.3833 11.6054 5.68473 12.7278 6.29718 13.6527C6.50126 13.9523 6.80493 14.2856 7.2131 14.6527C7.308 14.5711 7.38187 14.5033 7.43636 14.4486C7.59963 14.2721 7.72983 14.1019 7.79126 13.9384C7.85269 13.7749 7.91473 13.6392 7.94208 13.5302Z" fill="#016FBA"/>
<path d="M10.4083 10.1642C10.4083 10.8991 10.3228 11.5216 10.1873 12.0318C10.051 12.542 9.79771 12.9877 9.44404 13.3683C9.15853 13.6816 8.81383 14.0014 8.41934 14.3277C8.13383 14.5591 7.85261 14.7905 7.58057 15.0212C7.87975 15.2252 8.19179 15.4022 8.51832 15.5522C8.84506 15.702 9.19118 15.8173 9.55873 15.8989C9.69444 15.9265 9.88812 16.0046 10.1402 16.0314C10.3914 16.0591 10.6667 16.1232 10.9661 16.1232C11.143 16.1232 11.2993 16.1232 11.4357 16.1232C11.5714 16.1234 11.6328 16.1234 11.8369 16.1234V6.103L10.4083 5.79688V10.1642Z" fill="#016FBA"/>
</g>
<defs>
<clipPath id="clip0_8957_14485">
<rect width="20" height="20" rx="10" fill="white"/>
</clipPath>
</defs>
</svg>
