<svg width="16" height="16" viewBox="0 0 16 16" fill="none" xmlns="http://www.w3.org/2000/svg">
<path d="M13.1165 2.78914C11.7549 1.44096 9.91565 0.685542 7.99953 0.687504C7.97455 0.687504 7.94957 0.687621 7.92458 0.687855C6.20584 0.705733 4.54831 1.32839 3.2429 2.44655C1.93748 3.5647 1.0676 5.10691 0.785908 6.80251C0.504221 8.4981 0.828733 10.2387 1.70249 11.7189C2.57624 13.1991 3.94341 14.3242 5.56405 14.8969C5.90341 15.0165 6.26651 15.053 6.62289 15.0033C6.97927 14.9536 7.31853 14.8192 7.61222 14.6112C7.9059 14.4033 8.14543 14.128 8.31073 13.8084C8.47602 13.4888 8.56225 13.1342 8.56218 12.7744V12.5C8.56251 12.2017 8.68114 11.9158 8.89205 11.7049C9.10296 11.494 9.38891 11.3753 9.68717 11.375H12.9363C13.4466 11.3775 13.9425 11.2054 14.3416 10.8873C14.7406 10.5692 15.019 10.1242 15.1304 9.62619C15.256 9.07213 15.3169 8.50538 15.3119 7.93728C15.305 6.97657 15.1073 6.02679 14.7305 5.14305C14.3536 4.25931 13.805 3.4592 13.1165 2.78914ZM14.0334 9.37679C13.9775 9.62565 13.8383 9.84793 13.6387 10.0068C13.4392 10.1656 13.1913 10.2514 12.9362 10.25H9.68717C9.09064 10.2507 8.51874 10.4879 8.09692 10.9098C7.67511 11.3316 7.43785 11.9035 7.43718 12.5V12.7744C7.43723 12.9542 7.39415 13.1315 7.31156 13.2913C7.22897 13.4511 7.10927 13.5888 6.9625 13.6928C6.81573 13.7967 6.64616 13.864 6.46802 13.889C6.28988 13.9139 6.10836 13.8958 5.93868 13.8361C4.56736 13.3515 3.41051 12.3995 2.67116 11.147C1.93182 9.89456 1.65721 8.42171 1.89554 6.98696C2.13388 5.55222 2.86991 4.24725 3.97448 3.30109C5.07905 2.35493 6.48158 1.82802 7.9359 1.81286C7.957 1.81257 7.97809 1.8125 7.99918 1.8125C9.62923 1.81841 11.1916 2.46492 12.3492 3.61253C13.5068 4.76014 14.1669 6.31684 14.187 7.94678C14.1912 8.42778 14.1397 8.90766 14.0334 9.37679ZM8.84343 4.34375C8.84343 4.51063 8.79394 4.67376 8.70123 4.81252C8.60852 4.95127 8.47674 5.05942 8.32256 5.12328C8.16839 5.18714 7.99874 5.20385 7.83507 5.17129C7.6714 5.13874 7.52105 5.05838 7.40305 4.94038C7.28505 4.82237 7.20469 4.67203 7.17214 4.50836C7.13958 4.34469 7.15629 4.17504 7.22015 4.02086C7.28401 3.86669 7.39216 3.73491 7.53091 3.6422C7.66967 3.54949 7.8328 3.5 7.99968 3.5C8.22345 3.5 8.43806 3.5889 8.5963 3.74713C8.75453 3.90537 8.84343 4.11998 8.84343 4.34375ZM5.56398 6.59375C5.48053 6.73827 5.35611 6.85479 5.20644 6.92859C5.05677 7.00239 4.88857 7.03015 4.72313 7.00836C4.55768 6.98657 4.40241 6.91621 4.27695 6.80618C4.15149 6.69614 4.06148 6.55138 4.01829 6.39019C3.97511 6.229 3.98069 6.05862 4.03433 5.9006C4.08797 5.74258 4.18727 5.60402 4.31966 5.50244C4.45205 5.40085 4.6116 5.3408 4.77812 5.32989C4.94463 5.31898 5.11065 5.35768 5.25517 5.44112C5.35113 5.49652 5.43524 5.57029 5.5027 5.6582C5.57015 5.74611 5.61963 5.84644 5.6483 5.95348C5.67698 6.06051 5.68429 6.17214 5.66982 6.282C5.65536 6.39186 5.61939 6.4978 5.56398 6.59375ZM5.56398 9.40625C5.64741 9.55078 5.68612 9.7168 5.6752 9.88332C5.66428 10.0498 5.60422 10.2094 5.50263 10.3418C5.40103 10.4742 5.26246 10.5735 5.10444 10.6271C4.94641 10.6807 4.77603 10.6863 4.61484 10.6431C4.45365 10.5999 4.30889 10.5099 4.19886 10.3844C4.08884 10.2589 4.01849 10.1036 3.99672 9.93819C3.97494 9.77274 4.00272 9.60455 4.07654 9.45488C4.15035 9.30522 4.26689 9.1808 4.41142 9.09737C4.60522 8.98549 4.83552 8.95518 5.05167 9.01311C5.26782 9.07104 5.4521 9.21245 5.56398 9.40625ZM11.8968 5.75C11.9802 5.89453 12.0189 6.06054 12.008 6.22706C11.9971 6.39358 11.937 6.55311 11.8354 6.6855C11.7338 6.81788 11.5953 6.91717 11.4373 6.9708C11.2792 7.02444 11.1089 7.03001 10.9477 6.98681C10.7865 6.94362 10.6417 6.8536 10.5317 6.72813C10.4217 6.60267 10.3513 6.4474 10.3295 6.28195C10.3078 6.1165 10.3355 5.94831 10.4093 5.79865C10.4831 5.64898 10.5997 5.52456 10.7442 5.44112C10.8401 5.38571 10.9461 5.34975 11.0559 5.33529C11.1658 5.32083 11.2774 5.32814 11.3845 5.35683C11.4915 5.38551 11.5918 5.435 11.6798 5.50246C11.7677 5.56992 11.8414 5.65404 11.8968 5.75Z" fill="#A1ADB9"/>
</svg>
