<svg width="60" height="60" viewBox="0 0 60 60" fill="none" xmlns="http://www.w3.org/2000/svg">
<path fill-rule="evenodd" clip-rule="evenodd" d="M38.7405 27.3119V24.6893V21.373H36.4727V24.6893V27.3119H38.7405Z" fill="url(#paint0_linear_8417_180359)"/>
<path fill-rule="evenodd" clip-rule="evenodd" d="M16.7227 16.7228V30C16.7227 37.3024 22.6974 43.2771 30 43.2771C37.3024 43.2771 43.2771 37.3024 43.2771 30V16.7228H38.7412H37.6073H36.4733H34.2052H33.3313H31.9374V18.9909V21.259V23.527V25.7949V28.063V30.0004C31.9374 31.0436 31.043 31.9377 30 31.9377C28.9568 31.9377 28.0626 31.0437 28.0626 30.0004V28.063V25.7949V28.5805V26.3125V26.051H25.7946V26.3125V28.5805V25.7949V30.0004C25.7946 32.2955 27.705 34.2058 30 34.2058C32.295 34.2058 34.2052 32.2955 34.2052 30.0004V25.7949V23.527V21.259V18.9909H36.4733H38.7412H41.0093V21.259V30.0002C41.0093 36.0508 36.0506 41.0093 30.0002 41.0093C23.9494 41.0093 18.9909 36.0508 18.9909 30.0002V18.9909H21.259L21.2588 21.259H21.259V27.4486H21.2588V30.0002C21.2588 34.799 25.2013 38.7414 30.0002 38.7414C34.7989 38.7414 38.7412 34.7989 38.7412 30.0002V29.6756H36.4733V30.0002C36.4733 33.5471 33.5471 36.4735 30.0002 36.4735C26.4533 36.4735 23.5267 33.5471 23.5267 30.0002V27.4486L23.5269 23.5269V21.2588V18.9907V16.7227H21.259H16.7228L16.7227 16.7228Z" fill="url(#paint1_linear_8417_180359)"/>
<path fill-rule="evenodd" clip-rule="evenodd" d="M21.2593 21.2586V27.4484V27.9873H23.527V27.4484L23.5272 23.5267V21.2586V18.9907H21.2593V21.2586Z" fill="url(#paint2_linear_8417_180359)"/>
<path fill-rule="evenodd" clip-rule="evenodd" d="M31.9365 21.2586V27.4484V27.9873H34.2044V27.4484V23.5267V21.2586V18.9907H31.9365V21.2586Z" fill="url(#paint3_linear_8417_180359)"/>
<path fill-rule="evenodd" clip-rule="evenodd" d="M28.0633 23.6677V22.0496V20.0039H25.7954V22.0496V23.6677H28.0633Z" fill="url(#paint4_linear_8417_180359)"/>
<defs>
<linearGradient id="paint0_linear_8417_180359" x1="37.6066" y1="21.373" x2="37.6066" y2="27.3119" gradientUnits="userSpaceOnUse">
<stop stop-color="#1B63D4"/>
<stop offset="1" stop-color="#0845A4"/>
</linearGradient>
<linearGradient id="paint1_linear_8417_180359" x1="29.9999" y1="16.7227" x2="29.9999" y2="43.2771" gradientUnits="userSpaceOnUse">
<stop stop-color="#1B63D4"/>
<stop offset="1" stop-color="#0845A4"/>
</linearGradient>
<linearGradient id="paint2_linear_8417_180359" x1="22.3932" y1="18.9907" x2="22.3932" y2="27.9873" gradientUnits="userSpaceOnUse">
<stop stop-color="#1B63D4"/>
<stop offset="1" stop-color="#0845A4"/>
</linearGradient>
<linearGradient id="paint3_linear_8417_180359" x1="33.0705" y1="18.9907" x2="33.0705" y2="27.9873" gradientUnits="userSpaceOnUse">
<stop stop-color="#1B63D4"/>
<stop offset="1" stop-color="#0845A4"/>
</linearGradient>
<linearGradient id="paint4_linear_8417_180359" x1="26.9294" y1="20.0039" x2="26.9294" y2="23.6677" gradientUnits="userSpaceOnUse">
<stop stop-color="#1B63D4"/>
<stop offset="1" stop-color="#0845A4"/>
</linearGradient>
</defs>
</svg>
