<svg width="14" height="9" viewBox="0 0 14 9" fill="none" xmlns="http://www.w3.org/2000/svg">
<path d="M7.00002 8.37502C6.91792 8.37513 6.83662 8.35902 6.76077 8.3276C6.68493 8.29619 6.61604 8.2501 6.55806 8.19197L0.308063 1.94197C0.19085 1.82476 0.125 1.66578 0.125 1.50002C0.125 1.33425 0.19085 1.17528 0.308063 1.05806C0.425276 0.94085 0.584252 0.875 0.750016 0.875C0.915781 0.875 1.07476 0.94085 1.19197 1.05806L7.00002 6.86611L12.8081 1.05806C12.9253 0.94085 13.0843 0.875 13.25 0.875C13.4158 0.875 13.5748 0.94085 13.692 1.05806C13.8092 1.17528 13.875 1.33425 13.875 1.50002C13.875 1.66578 13.8092 1.82476 13.692 1.94197L7.44197 8.19197C7.38399 8.2501 7.3151 8.29619 7.23926 8.3276C7.16341 8.35902 7.08211 8.37513 7.00002 8.37502Z" fill="#1B63D4"/>
</svg>
