<svg width="14" height="9" viewBox="0 0 14 9" fill="none" xmlns="http://www.w3.org/2000/svg">
<path d="M13.25 8.12502C13.1679 8.12513 13.0866 8.10902 13.0108 8.0776C12.9349 8.04619 12.866 8.0001 12.8081 7.94198L7.00002 2.13393L1.19197 7.94198C1.07476 8.05919 0.915781 8.12504 0.750016 8.12504C0.584252 8.12504 0.425276 8.05919 0.308063 7.94198C0.19085 7.82476 0.125 7.66579 0.125 7.50002C0.125 7.33426 0.19085 7.17528 0.308063 7.05807L6.55806 0.80807C6.6161 0.75003 6.685 0.703989 6.76083 0.672578C6.83666 0.641167 6.91794 0.625 7.00002 0.625C7.0821 0.625 7.16337 0.641167 7.2392 0.672578C7.31503 0.703989 7.38393 0.75003 7.44197 0.80807L13.692 7.05807C13.7794 7.14548 13.8389 7.25684 13.863 7.37808C13.8871 7.49933 13.8748 7.625 13.8275 7.7392C13.7802 7.85341 13.7 7.95102 13.5973 8.0197C13.4945 8.08837 13.3736 8.12503 13.25 8.12502Z" fill="#1B63D4"/>
</svg>
