<svg width="16" height="17" viewBox="0 0 16 17" fill="none" xmlns="http://www.w3.org/2000/svg">
<path d="M14.8748 2.75H1.12476C0.958995 2.75 0.800024 2.81585 0.682814 2.93306C0.565604 3.05027 0.499756 3.20924 0.499756 3.375C0.499756 3.54076 0.565604 3.69973 0.682814 3.81694C0.800024 3.93415 0.958995 4 1.12476 4H1.74976V15.25C1.75013 15.5814 1.88194 15.8991 2.11628 16.1335C2.35062 16.3678 2.66835 16.4996 2.99976 16.5H12.9998C13.3312 16.4996 13.6489 16.3678 13.8832 16.1335C14.1176 15.8991 14.2494 15.5814 14.2498 15.25V4H14.8748C15.0405 4 15.1995 3.93415 15.3167 3.81694C15.4339 3.69973 15.4998 3.54076 15.4998 3.375C15.4998 3.20924 15.4339 3.05027 15.3167 2.93306C15.1995 2.81585 15.0405 2.75 14.8748 2.75ZM12.9998 15.25H2.99976V4H12.9998V15.25ZM4.25007 0.875C4.25007 0.70924 4.31592 0.550268 4.43313 0.433058C4.55034 0.315848 4.70931 0.25 4.87507 0.25H11.1251C11.2908 0.25 11.4498 0.315848 11.567 0.433058C11.6842 0.550268 11.7501 0.70924 11.7501 0.875C11.7501 1.04076 11.6842 1.19973 11.567 1.31694C11.4498 1.43415 11.2908 1.5 11.1251 1.5H4.87507C4.70931 1.5 4.55034 1.43415 4.43313 1.31694C4.31592 1.19973 4.25007 1.04076 4.25007 0.875Z" fill="#ED543A"/>
</svg>
