<svg width="16" height="16" viewBox="0 0 16 16" fill="none" xmlns="http://www.w3.org/2000/svg">
<path d="M4.27688 7.03656C4.21777 6.97877 4.17071 6.90983 4.13843 6.83373C4.10615 6.75763 4.08928 6.67588 4.08881 6.59322C4.08834 6.51055 4.10428 6.42862 4.13569 6.35215C4.16711 6.27569 4.21338 6.20622 4.27182 6.14776C4.33027 6.0893 4.39973 6.04302 4.47619 6.01159C4.55265 5.98017 4.63458 5.96422 4.71725 5.96467C4.79991 5.96513 4.88166 5.98198 4.95777 6.01425C5.03387 6.04651 5.10282 6.09356 5.16062 6.15266L7.375 8.36641V1.125C7.375 0.95924 7.44085 0.800269 7.55806 0.683058C7.67527 0.565848 7.83424 0.5 8 0.5C8.16576 0.5 8.32473 0.565848 8.44194 0.683058C8.55915 0.800269 8.625 0.95924 8.625 1.125V8.36641L10.8394 6.15266C10.8972 6.09356 10.9661 6.04651 11.0422 6.01425C11.1183 5.98198 11.2001 5.96513 11.2828 5.96467C11.3654 5.96422 11.4473 5.98017 11.5238 6.01159C11.6003 6.04302 11.6697 6.0893 11.7282 6.14776C11.7866 6.20622 11.8329 6.27569 11.8643 6.35215C11.8957 6.42862 11.9117 6.51055 11.9112 6.59322C11.9107 6.67588 11.8939 6.75763 11.8616 6.83373C11.8293 6.90983 11.7822 6.97877 11.7231 7.03656L8.44188 10.317C8.32467 10.4342 8.16573 10.5 8 10.5C7.83427 10.5 7.67533 10.4342 7.55813 10.317L4.27688 7.03656ZM14.875 9.25C14.7092 9.25 14.5503 9.31585 14.4331 9.43306C14.3158 9.55027 14.25 9.70924 14.25 9.875V14.25H1.75V9.875C1.75 9.70924 1.68415 9.55027 1.56694 9.43306C1.44973 9.31585 1.29076 9.25 1.125 9.25C0.95924 9.25 0.800269 9.31585 0.683058 9.43306C0.565848 9.55027 0.5 9.70924 0.5 9.875V14.25C0.500372 14.5814 0.632188 14.8991 0.866528 15.1335C1.10087 15.3678 1.41859 15.4996 1.75 15.5H14.25C14.5814 15.4996 14.8991 15.3678 15.1335 15.1335C15.3678 14.8991 15.4996 14.5814 15.5 14.25V9.875C15.5 9.70924 15.4342 9.55027 15.3169 9.43306C15.1997 9.31585 15.0408 9.25 14.875 9.25Z" fill="#1B63D4"/>
</svg>
