<svg width="16" height="16" viewBox="0 0 16 16" fill="none" xmlns="http://www.w3.org/2000/svg">
<path d="M14.875 0.5H4.87496C4.7092 0.5 4.55022 0.565848 4.43301 0.683058C4.3158 0.800269 4.24996 0.95924 4.24996 1.125V4.25008H1.12488C0.959118 4.25008 0.800146 4.31593 0.682936 4.43314C0.565726 4.55035 0.499878 4.70932 0.499878 4.87508V14.8751C0.499878 15.0408 0.565726 15.1998 0.682936 15.317C0.800146 15.4342 0.959118 15.5001 1.12488 15.5001H11.1249C11.2906 15.5001 11.4496 15.4342 11.5668 15.317C11.684 15.1998 11.7499 15.0408 11.7499 14.8751V11.7501H14.875C15.0407 11.7501 15.1997 11.6842 15.3169 11.567C15.4341 11.4498 15.5 11.2908 15.5 11.1251V1.12508C15.5 0.959318 15.4341 0.800347 15.3169 0.683136C15.1997 0.565926 15.0407 0.500078 14.875 0.500078V0.5ZM10.4999 14.2501H1.74988V5.50008H10.4999V14.2501ZM14.25 10.5001H11.7499V4.87508C11.7499 4.70932 11.684 4.55035 11.5668 4.43314C11.4496 4.31593 11.2906 4.25008 11.1249 4.25008H5.49996V1.75008H14.25V10.5001Z" fill="#1B63D4"/>
</svg>
