<svg width="16" height="16" viewBox="0 0 16 16" fill="none" xmlns="http://www.w3.org/2000/svg">
<path d="M14.6251 0.499512H4.62508C4.45932 0.499512 4.30035 0.56536 4.18314 0.68257C4.06593 0.79978 4.00008 0.958751 4.00008 1.12451V4.24959H0.875C0.70924 4.24959 0.550268 4.31544 0.433058 4.43265C0.315848 4.54986 0.25 4.70883 0.25 4.87459V14.8746C0.25 15.0404 0.315848 15.1993 0.433058 15.3165C0.550268 15.4337 0.70924 15.4996 0.875 15.4996H10.875C11.0408 15.4996 11.1997 15.4337 11.3169 15.3165C11.4342 15.1993 11.5 15.0404 11.5 14.8746V11.7496H14.6251C14.7908 11.7496 14.9498 11.6837 15.067 11.5665C15.1842 11.4493 15.2501 11.2904 15.2501 11.1246V1.12459C15.2501 0.95883 15.1842 0.799858 15.067 0.682648C14.9498 0.565438 14.7908 0.49959 14.6251 0.49959V0.499512ZM10.25 14.2496H1.5V5.49959H10.25V14.2496ZM14.0001 10.4996H11.5V4.87459C11.5 4.70883 11.4342 4.54986 11.3169 4.43265C11.1997 4.31544 11.0408 4.24959 10.875 4.24959H5.25008V1.74959H14.0001V10.4996Z" fill="white"/>
</svg>
