<svg width="22" height="22" viewBox="0 0 22 22" fill="none" xmlns="http://www.w3.org/2000/svg">
<path d="M20.6251 0.499268H6.62511C6.39304 0.499268 6.17049 0.591455 6.00639 0.755549C5.8423 0.919644 5.75011 1.1422 5.75011 1.37427V5.74938H1.375C1.14294 5.74938 0.920376 5.84156 0.756281 6.00566C0.592187 6.16975 0.5 6.39231 0.5 6.62438V20.6244C0.5 20.8564 0.592187 21.079 0.756281 21.2431C0.920376 21.4072 1.14294 21.4994 1.375 21.4994H15.375C15.6071 21.4994 15.8296 21.4072 15.9937 21.2431C16.1578 21.079 16.25 20.8564 16.25 20.6244V16.2494H20.6251C20.8572 16.2494 21.0797 16.1572 21.2438 15.9931C21.4079 15.829 21.5001 15.6064 21.5001 15.3744V1.37438C21.5001 1.14231 21.4079 0.919753 21.2438 0.755659C21.0797 0.591564 20.8572 0.499377 20.6251 0.499377V0.499268ZM14.5 19.7494H2.25V7.49938H14.5V19.7494ZM19.7501 14.4994H16.25V6.62438C16.25 6.39231 16.1578 6.16975 15.9937 6.00566C15.8296 5.84156 15.6071 5.74938 15.375 5.74938H7.50011V2.24938H19.7501V14.4994Z" fill="#1B63D4"/>
</svg>
