<svg width="16" height="16" viewBox="0 0 16 16" fill="none" xmlns="http://www.w3.org/2000/svg">
<path d="M15.5 3.99207L12.0088 0.500898C11.8928 0.384821 11.755 0.292742 11.6033 0.229921C11.4517 0.167099 11.2891 0.134766 11.125 0.134766C10.9608 0.134766 10.7983 0.167099 10.6466 0.229921C10.495 0.292742 10.3572 0.384821 10.2411 0.500898L8.18313 2.55887V2.55894L8.18297 2.55902L0.866176 9.8759C0.749731 9.99169 0.65741 10.1294 0.594556 10.2811C0.531703 10.4328 0.499565 10.5955 0.500004 10.7597V14.2509C0.500377 14.5823 0.632192 14.9 0.866532 15.1344C1.10087 15.3687 1.4186 15.5005 1.75 15.5009H5.5C5.58208 15.5009 5.66336 15.4847 5.73919 15.4533C5.81502 15.4219 5.88392 15.3759 5.94196 15.3179L15.5 5.75973C15.734 5.52513 15.8655 5.20728 15.8655 4.8759C15.8655 4.54452 15.734 4.22667 15.5 3.99207V3.99207ZM5.24118 14.2509H1.75V10.7597L8.625 3.88473L12.1162 7.3759L5.24118 14.2509ZM13 6.49207L9.50891 3.0009L11.125 1.38473L14.6162 4.8759L13 6.49207Z" fill="#1B63D4"/>
</svg>
