<svg width="20" height="20" viewBox="0 0 20 20" fill="none" xmlns="http://www.w3.org/2000/svg">
<path d="M18.9578 8.57939C19.6658 8.99053 19.6658 10.0131 18.9578 10.4243L4.64867 18.7328C3.93756 19.1457 3.04639 18.6327 3.04639 17.8104L3.04639 1.19327C3.04639 0.370975 3.93756 -0.142078 4.64867 0.270827L18.9578 8.57939Z" fill="#F2531B"/>
<path d="M18.1313 5.39939C18.9337 5.56206 19.2613 6.53078 18.7222 7.14706L7.82834 19.6012C7.28695 20.2201 6.2784 20.0196 6.01501 19.2406L0.692379 3.49899C0.428991 2.72002 1.10887 1.94855 1.91477 2.11192L18.1313 5.39939Z" fill="#00599A"/>
<path d="M7.04272 11.6063L8.12188 5.82444H9.00244V5.58203H6.20338V5.82444H7.00338L5.883 11.6063H5.00244V11.8487H7.80338H7.84272V11.6063H7.04272Z" fill="white"/>
<path d="M11.9356 5.82444V5.58203H9.80874V5.82444H10.7321L7.80225 8.57428L9.60752 11.6063H8.72557V11.8487H11.7362V11.6063H10.8919L8.72557 8.08756L11.174 5.82444H11.9356Z" fill="white"/>
</svg>
