<svg width="18" height="14" viewBox="0 0 18 14" fill="none" xmlns="http://www.w3.org/2000/svg">
<path d="M16.5 0.75H1.5C1.33424 0.75 1.17527 0.815848 1.05806 0.933058C0.940848 1.05027 0.875 1.20924 0.875 1.375V12C0.875372 12.3314 1.00719 12.6491 1.24153 12.8835C1.47587 13.1178 1.79359 13.2496 2.125 13.25H15.875C16.2064 13.2496 16.5241 13.1178 16.7585 12.8835C16.9928 12.6491 17.1246 12.3314 17.125 12V1.375C17.125 1.20924 17.0592 1.05027 16.9419 0.933058C16.8247 0.815848 16.6658 0.75 16.5 0.75ZM2.125 5.75H5.25V8.25H2.125V5.75ZM6.5 5.75H15.8753L15.8755 8.25H6.5V5.75ZM15.875 2L15.8752 4.5H2.125V2H15.875ZM2.125 9.5H5.25V12H2.125V9.5ZM15.875 12H6.5V9.5H15.8756L15.8758 12H15.875Z" fill="#1B63D4"/>
</svg>
