<svg width="17" height="15" viewBox="0 0 17 15" fill="none" xmlns="http://www.w3.org/2000/svg">
<path d="M0.590644 5.77359C0.576128 5.76162 0.562155 5.749 0.54877 5.73578C0.54752 5.73453 0.546113 5.73343 0.544863 5.73226C0.543301 5.7307 0.541895 5.72882 0.540332 5.72726C0.527507 5.71426 0.515255 5.70071 0.503613 5.68664C0.497129 5.67875 0.491504 5.67046 0.485488 5.66242C0.479316 5.65414 0.472988 5.64601 0.467207 5.6375C0.460879 5.62812 0.45541 5.61828 0.449629 5.60859C0.444941 5.60078 0.440098 5.59312 0.435801 5.58515C0.430488 5.57531 0.426035 5.56515 0.421348 5.55515C0.417363 5.54664 0.413066 5.53835 0.409473 5.52968C0.405488 5.51992 0.402207 5.51 0.398691 5.50015C0.395332 5.49078 0.39166 5.48156 0.388848 5.47203C0.385801 5.46195 0.383613 5.45187 0.381035 5.44171C0.378691 5.43203 0.375957 5.42249 0.374004 5.41265C0.37166 5.40085 0.370176 5.38898 0.368535 5.37703C0.367363 5.36875 0.365723 5.36062 0.364941 5.35218C0.362871 5.33149 0.361828 5.31071 0.361816 5.28992V1.54031C0.361816 1.37455 0.427664 1.21558 0.544875 1.09837C0.662085 0.981156 0.821056 0.915308 0.986816 0.915308C1.15258 0.915308 1.31155 0.981156 1.42876 1.09837C1.54597 1.21558 1.61182 1.37455 1.61182 1.54031V3.7814L3.1965 2.19671C4.60415 0.792258 6.51141 0.00350952 8.49986 0.00350952C10.4883 0.00350952 12.3956 0.792258 13.8032 2.19671C13.8613 2.25476 13.9073 2.32366 13.9387 2.3995C13.9701 2.47533 13.9863 2.55661 13.9862 2.63868C13.9862 2.72076 13.9701 2.80204 13.9386 2.87786C13.9072 2.95369 13.8612 3.02259 13.8031 3.08062C13.7451 3.13865 13.6762 3.18469 13.6004 3.21609C13.5245 3.24749 13.4433 3.26365 13.3612 3.26364C13.2791 3.26364 13.1978 3.24746 13.122 3.21605C13.0462 3.18463 12.9773 3.13859 12.9192 3.08054C11.7462 1.9102 10.1569 1.25294 8.49986 1.25294C6.84286 1.25294 5.25351 1.9102 4.08049 3.08054L2.49572 4.66531H4.73682C4.90258 4.66531 5.06155 4.73116 5.17876 4.84837C5.29597 4.96558 5.36182 5.12455 5.36182 5.29031C5.36182 5.45607 5.29597 5.61504 5.17876 5.73225C5.06155 5.84946 4.90258 5.91531 4.73682 5.91531H0.986816C0.966191 5.91531 0.945644 5.91421 0.925098 5.91218C0.915879 5.91125 0.906973 5.90953 0.897832 5.90828C0.886816 5.90671 0.875645 5.90539 0.864707 5.9032C0.85416 5.90109 0.844004 5.8982 0.833691 5.89562C0.824316 5.89328 0.814785 5.89117 0.80541 5.88835C0.795254 5.88523 0.785566 5.88148 0.775723 5.87796C0.766348 5.87461 0.756894 5.87148 0.747598 5.86765C0.738457 5.8639 0.729629 5.85945 0.720801 5.85515C0.711191 5.8507 0.701582 5.84648 0.692207 5.8414C0.683613 5.83687 0.675566 5.83164 0.667207 5.82671C0.658066 5.82125 0.648691 5.81601 0.639785 5.80999C0.630645 5.8039 0.622129 5.79711 0.613379 5.79062C0.605801 5.78492 0.597988 5.77968 0.590644 5.77359ZM16.6348 9.64781C16.634 9.63945 16.6324 9.63124 16.6312 9.62296C16.6295 9.61101 16.6281 9.59914 16.6257 9.58734C16.6238 9.5775 16.621 9.56796 16.6187 9.55828C16.6161 9.54812 16.6139 9.53796 16.6109 9.52804C16.608 9.51843 16.6044 9.50929 16.601 9.49992C16.5975 9.49 16.5942 9.48007 16.5903 9.47031C16.5867 9.46164 16.5824 9.45335 16.5784 9.44484C16.5737 9.43484 16.5692 9.42468 16.5639 9.41484C16.5596 9.40687 16.5547 9.39921 16.5501 9.3914C16.5443 9.38171 16.5388 9.37187 16.5325 9.3625C16.5268 9.3539 16.5204 9.34585 16.5142 9.33765C16.5082 9.32953 16.5025 9.32125 16.4961 9.31343C16.4845 9.29936 16.4722 9.28581 16.4594 9.27281C16.4578 9.27117 16.4565 9.26937 16.4549 9.26773C16.4536 9.26648 16.4522 9.26546 16.451 9.26421C16.4376 9.25099 16.4236 9.23837 16.4091 9.2264C16.4017 9.22039 16.394 9.21515 16.3864 9.20945C16.3777 9.20289 16.3691 9.19609 16.3599 9.18992C16.3511 9.18406 16.342 9.17898 16.3328 9.17351C16.3244 9.16851 16.3161 9.1632 16.3074 9.15851C16.2983 9.15367 16.2889 9.14953 16.2796 9.14515C16.2704 9.14078 16.2613 9.13617 16.252 9.13226C16.2431 9.12859 16.234 9.12562 16.225 9.12242C16.2148 9.11867 16.2046 9.11476 16.1942 9.11164C16.1853 9.1089 16.1762 9.10695 16.1672 9.10468C16.1565 9.10195 16.1458 9.09898 16.1349 9.09679C16.1247 9.09476 16.1144 9.09367 16.1041 9.0921C16.0942 9.09062 16.0844 9.08882 16.0744 9.08781C16.0562 9.0861 16.038 9.08519 16.0198 9.08507C16.0174 9.08507 16.0153 9.08468 16.0129 9.08468H12.2629C12.0972 9.08468 11.9382 9.15053 11.821 9.26774C11.7038 9.38495 11.6379 9.54392 11.6379 9.70968C11.6379 9.87544 11.7038 10.0344 11.821 10.1516C11.9382 10.2688 12.0972 10.3347 12.2629 10.3347H14.504L12.9192 11.9194C11.7462 13.0898 10.1569 13.747 8.49986 13.747C6.84286 13.747 5.25351 13.0898 4.08049 11.9194C3.96329 11.8022 3.80432 11.7364 3.63855 11.7363C3.47279 11.7363 3.31381 11.8022 3.19658 11.9194C3.07936 12.0366 3.01349 12.1955 3.01348 12.3613C3.01347 12.5271 3.0793 12.6861 3.1965 12.8033C4.60415 14.2077 6.51141 14.9965 8.49986 14.9965C10.4883 14.9965 12.3956 14.2077 13.8032 12.8033L15.3879 11.2186V13.4597C15.3879 13.6254 15.4538 13.7844 15.571 13.9016C15.6882 14.0188 15.8472 14.0847 16.0129 14.0847C16.1787 14.0847 16.3376 14.0188 16.4549 13.9016C16.5721 13.7844 16.6379 13.6254 16.6379 13.4597V9.71015C16.6379 9.68937 16.6368 9.66859 16.6348 9.64789V9.64781Z" fill="#1B63D4"/>
</svg>
