<svg width="28" height="22" viewBox="0 0 28 22" fill="none" xmlns="http://www.w3.org/2000/svg">
<path d="M7.55758 7.29223L3.11696 11L7.55758 14.7079C7.64663 14.7799 7.72047 14.8689 7.7748 14.9697C7.82914 15.0706 7.86288 15.1812 7.87408 15.2952C7.88527 15.4092 7.8737 15.5242 7.84002 15.6337C7.80634 15.7432 7.75123 15.8449 7.6779 15.9329C7.59487 16.032 7.49113 16.1118 7.37398 16.1666C7.25683 16.2214 7.1291 16.2499 6.99977 16.25C6.79474 16.251 6.5964 16.1771 6.44196 16.0422L1.19196 11.6672C1.09346 11.5862 1.01413 11.4843 0.959663 11.369C0.905199 11.2536 0.876953 11.1276 0.876953 11C0.876953 10.8725 0.905199 10.7465 0.959663 10.6311C1.01413 10.5158 1.09346 10.4139 1.19196 10.3329L6.44196 5.95786C6.52708 5.86899 6.62998 5.79907 6.74395 5.75267C6.85793 5.70627 6.98041 5.68443 7.10339 5.68859C7.22638 5.69274 7.34711 5.72278 7.4577 5.77676C7.56828 5.83074 7.66624 5.90744 7.74517 6.00184C7.8241 6.09625 7.88223 6.20625 7.91576 6.32465C7.9493 6.44305 7.95748 6.56719 7.93978 6.68896C7.92207 6.81074 7.87888 6.92742 7.81303 7.03137C7.74717 7.13532 7.66013 7.22421 7.55758 7.29223ZM26.8076 10.3329L21.5576 5.95786C21.3781 5.83882 21.1611 5.79013 20.948 5.82111C20.7349 5.85209 20.5407 5.96056 20.4026 6.12576C20.2645 6.29097 20.1921 6.50131 20.1994 6.71652C20.2066 6.93174 20.293 7.13672 20.442 7.29223L24.8826 11L20.442 14.7079C20.3059 14.8233 20.2083 14.9776 20.1625 15.1501C20.1166 15.3225 20.1245 15.5049 20.1852 15.6727C20.2459 15.8405 20.3565 15.9858 20.5021 16.089C20.6477 16.1922 20.8213 16.2484 20.9998 16.25C21.2048 16.251 21.4031 16.1771 21.5576 16.0422L26.8076 11.6672C26.9061 11.5862 26.9854 11.4843 27.0399 11.369C27.0943 11.2536 27.1226 11.1276 27.1226 11C27.1226 10.8725 27.0943 10.7465 27.0399 10.6311C26.9854 10.5158 26.9061 10.4139 26.8076 10.3329ZM17.7951 0.554737C17.6874 0.51488 17.5729 0.496871 17.4582 0.501761C17.3436 0.506651 17.231 0.534344 17.1271 0.583219C17.0233 0.632095 16.9302 0.701176 16.8533 0.786426C16.7765 0.871676 16.7174 0.971387 16.6795 1.07974L9.67946 20.3297C9.6396 20.4374 9.62159 20.5519 9.62648 20.6666C9.63137 20.7812 9.65907 20.8938 9.70794 20.9977C9.75682 21.1015 9.8259 21.1946 9.91115 21.2715C9.9964 21.3483 10.0961 21.4075 10.2045 21.4454C10.2993 21.4793 10.399 21.4977 10.4998 21.5C10.6799 21.501 10.8557 21.4456 11.0028 21.3416C11.1499 21.2377 11.2608 21.0904 11.3201 20.9204L18.3201 1.67036C18.3599 1.56272 18.3779 1.44821 18.3731 1.33353C18.3682 1.21884 18.3405 1.10628 18.2916 1.00242C18.2427 0.898562 18.1736 0.80548 18.0884 0.728614C18.0031 0.651747 17.9034 0.592638 17.7951 0.554737Z" fill="#1B63D4"/>
</svg>
