<svg width="20" height="16" viewBox="0 0 20 16" fill="none" xmlns="http://www.w3.org/2000/svg">
<path d="M5.39834 5.35139L2.22647 7.99982L5.39834 10.6483C5.46195 10.6997 5.51469 10.7633 5.5535 10.8353C5.59231 10.9073 5.61642 10.9864 5.62441 11.0678C5.63241 11.1492 5.62414 11.2314 5.60008 11.3096C5.57602 11.3878 5.53666 11.4604 5.48428 11.5233C5.42497 11.5941 5.35088 11.6511 5.2672 11.6902C5.18352 11.7294 5.09229 11.7497 4.99991 11.7498C4.85345 11.7505 4.71178 11.6977 4.60147 11.6014L0.851468 8.47639C0.78111 8.41849 0.724446 8.34572 0.685543 8.26333C0.646641 8.18093 0.626465 8.09094 0.626465 7.99982C0.626465 7.90871 0.646641 7.81872 0.685543 7.73632C0.724446 7.65392 0.78111 7.58116 0.851468 7.52326L4.60147 4.39826C4.66227 4.33478 4.73577 4.28484 4.81718 4.2517C4.89859 4.21856 4.98607 4.20296 5.07392 4.20592C5.16177 4.20889 5.248 4.23035 5.32699 4.26891C5.40598 4.30746 5.47595 4.36225 5.53233 4.42968C5.58871 4.49711 5.63023 4.57568 5.65419 4.66025C5.67814 4.74482 5.68398 4.8335 5.67134 4.92048C5.65869 5.00746 5.62784 5.0908 5.5808 5.16505C5.53376 5.2393 5.47159 5.3028 5.39834 5.35139ZM19.1483 7.52326L15.3983 4.39826C15.2702 4.31323 15.1151 4.27846 14.9629 4.30058C14.8107 4.32271 14.672 4.40019 14.5733 4.51819C14.4747 4.6362 14.423 4.78644 14.4282 4.94016C14.4334 5.09389 14.4951 5.2403 14.6015 5.35139L17.7733 7.99982L14.6015 10.6483C14.5043 10.7307 14.4346 10.8409 14.4018 10.9641C14.369 11.0873 14.3747 11.2176 14.4181 11.3374C14.4614 11.4573 14.5404 11.5611 14.6444 11.6348C14.7484 11.7085 14.8724 11.7486 14.9999 11.7498C15.1464 11.7505 15.288 11.6977 15.3983 11.6014L19.1483 8.47639C19.2187 8.41849 19.2754 8.34572 19.3143 8.26333C19.3532 8.18093 19.3733 8.09094 19.3733 7.99982C19.3733 7.90871 19.3532 7.81872 19.3143 7.73632C19.2754 7.65392 19.2187 7.58116 19.1483 7.52326ZM12.7108 0.538888C12.634 0.510419 12.5522 0.497556 12.4702 0.501049C12.3883 0.504542 12.3079 0.524322 12.2337 0.559233C12.1596 0.594145 12.0931 0.643488 12.0382 0.704381C11.9833 0.765274 11.941 0.836496 11.914 0.913888L6.91397 14.6639C6.8855 14.7408 6.87264 14.8226 6.87613 14.9045C6.87962 14.9864 6.8994 15.0668 6.93431 15.141C6.96922 15.2152 7.01857 15.2817 7.07946 15.3366C7.14035 15.3915 7.21158 15.4337 7.28897 15.4608C7.35673 15.485 7.42795 15.4982 7.49991 15.4998C7.62854 15.5005 7.75417 15.4609 7.85922 15.3867C7.96428 15.3124 8.04351 15.2072 8.08584 15.0858L13.0858 1.33576C13.1143 1.25887 13.1272 1.17708 13.1237 1.09517C13.1202 1.01325 13.1004 0.932851 13.0655 0.858665C13.0306 0.784478 12.9812 0.717991 12.9204 0.663086C12.8595 0.608182 12.7882 0.565961 12.7108 0.538888Z" fill="#1B63D4"/>
</svg>
